<mxfile host="app.diagrams.net" modified="2024-03-27T02:48:22.500Z" agent="Mozilla/5.0 (Windows NT 10.0; Win64; x64) AppleWebKit/537.36 (KHTML, like Gecko) Chrome/123.0.0.0 Safari/537.36" etag="kul9NNpJX1GXTowNh6C2" version="24.0.9" type="device">
  <diagram name="PÃ¡gina-1" id="aA3tJd1HOx-QBl3OGgXy">
    <mxGraphModel dx="1793" dy="955" grid="1" gridSize="10" guides="1" tooltips="1" connect="1" arrows="1" fold="1" page="1" pageScale="1" pageWidth="827" pageHeight="1169" math="0" shadow="0">
      <root>
        <mxCell id="0" />
        <mxCell id="1" parent="0" />
        <mxCell id="br1NFhTCXlxhO1oLuqVo-52" value="" style="rounded=0;whiteSpace=wrap;html=1;fillColor=#66B2FF;strokeColor=#0000FF;strokeWidth=2;" vertex="1" parent="1">
          <mxGeometry x="1070" y="550" width="240" height="110" as="geometry" />
        </mxCell>
        <mxCell id="br1NFhTCXlxhO1oLuqVo-51" style="edgeStyle=orthogonalEdgeStyle;rounded=0;orthogonalLoop=1;jettySize=auto;html=1;entryX=0;entryY=0.5;entryDx=0;entryDy=0;" edge="1" parent="1" source="br1NFhTCXlxhO1oLuqVo-60" target="br1NFhTCXlxhO1oLuqVo-52">
          <mxGeometry relative="1" as="geometry">
            <mxPoint x="735" y="750" as="targetPoint" />
          </mxGeometry>
        </mxCell>
        <mxCell id="br1NFhTCXlxhO1oLuqVo-39" value="" style="rounded=0;whiteSpace=wrap;html=1;fillColor=#fad7ac;strokeColor=#FF8000;strokeWidth=2;" vertex="1" parent="1">
          <mxGeometry x="600" y="550" width="270" height="110" as="geometry" />
        </mxCell>
        <mxCell id="br1NFhTCXlxhO1oLuqVo-1" value="Web Client" style="image;aspect=fixed;perimeter=ellipsePerimeter;html=1;align=center;shadow=0;dashed=0;spacingTop=3;image=img/lib/active_directory/laptop_client.svg;" vertex="1" parent="1">
          <mxGeometry x="30" y="320" width="50" height="55.56" as="geometry" />
        </mxCell>
        <mxCell id="br1NFhTCXlxhO1oLuqVo-37" style="edgeStyle=orthogonalEdgeStyle;rounded=0;orthogonalLoop=1;jettySize=auto;html=1;entryX=0.5;entryY=1;entryDx=0;entryDy=0;" edge="1" parent="1" source="br1NFhTCXlxhO1oLuqVo-2" target="br1NFhTCXlxhO1oLuqVo-16">
          <mxGeometry relative="1" as="geometry" />
        </mxCell>
        <mxCell id="br1NFhTCXlxhO1oLuqVo-2" value="Cloudfront" style="sketch=0;points=[[0,0,0],[0.25,0,0],[0.5,0,0],[0.75,0,0],[1,0,0],[0,1,0],[0.25,1,0],[0.5,1,0],[0.75,1,0],[1,1,0],[0,0.25,0],[0,0.5,0],[0,0.75,0],[1,0.25,0],[1,0.5,0],[1,0.75,0]];outlineConnect=0;fontColor=#232F3E;fillColor=#8C4FFF;strokeColor=#ffffff;dashed=0;verticalLabelPosition=bottom;verticalAlign=top;align=center;html=1;fontSize=12;fontStyle=0;aspect=fixed;shape=mxgraph.aws4.resourceIcon;resIcon=mxgraph.aws4.cloudfront;" vertex="1" parent="1">
          <mxGeometry x="180" y="320" width="54" height="54" as="geometry" />
        </mxCell>
        <mxCell id="br1NFhTCXlxhO1oLuqVo-3" value="" style="endArrow=classic;startArrow=classic;html=1;rounded=0;exitX=1;exitY=0.5;exitDx=0;exitDy=0;entryX=0;entryY=0.5;entryDx=0;entryDy=0;entryPerimeter=0;" edge="1" parent="1" source="br1NFhTCXlxhO1oLuqVo-1" target="br1NFhTCXlxhO1oLuqVo-2">
          <mxGeometry width="50" height="50" relative="1" as="geometry">
            <mxPoint x="390" y="420" as="sourcePoint" />
            <mxPoint x="440" y="370" as="targetPoint" />
          </mxGeometry>
        </mxCell>
        <mxCell id="br1NFhTCXlxhO1oLuqVo-22" style="edgeStyle=orthogonalEdgeStyle;rounded=0;orthogonalLoop=1;jettySize=auto;html=1;entryX=0;entryY=0.75;entryDx=0;entryDy=0;" edge="1" parent="1" source="br1NFhTCXlxhO1oLuqVo-28" target="br1NFhTCXlxhO1oLuqVo-13">
          <mxGeometry relative="1" as="geometry">
            <mxPoint x="390" y="450" as="sourcePoint" />
            <Array as="points">
              <mxPoint x="432" y="365" />
              <mxPoint x="570" y="365" />
            </Array>
          </mxGeometry>
        </mxCell>
        <mxCell id="br1NFhTCXlxhO1oLuqVo-14" style="edgeStyle=orthogonalEdgeStyle;rounded=0;orthogonalLoop=1;jettySize=auto;html=1;entryX=0;entryY=0.5;entryDx=0;entryDy=0;" edge="1" parent="1" source="br1NFhTCXlxhO1oLuqVo-9" target="br1NFhTCXlxhO1oLuqVo-12">
          <mxGeometry relative="1" as="geometry">
            <Array as="points">
              <mxPoint x="570" y="180" />
              <mxPoint x="570" y="75" />
            </Array>
          </mxGeometry>
        </mxCell>
        <mxCell id="br1NFhTCXlxhO1oLuqVo-20" style="edgeStyle=orthogonalEdgeStyle;rounded=0;orthogonalLoop=1;jettySize=auto;html=1;entryX=0;entryY=0.25;entryDx=0;entryDy=0;" edge="1" parent="1" source="br1NFhTCXlxhO1oLuqVo-9" target="br1NFhTCXlxhO1oLuqVo-13">
          <mxGeometry relative="1" as="geometry">
            <Array as="points">
              <mxPoint x="570" y="200" />
              <mxPoint x="570" y="330" />
              <mxPoint x="660" y="330" />
            </Array>
          </mxGeometry>
        </mxCell>
        <mxCell id="br1NFhTCXlxhO1oLuqVo-9" value="Lambda Auth" style="sketch=0;points=[[0,0,0],[0.25,0,0],[0.5,0,0],[0.75,0,0],[1,0,0],[0,1,0],[0.25,1,0],[0.5,1,0],[0.75,1,0],[1,1,0],[0,0.25,0],[0,0.5,0],[0,0.75,0],[1,0.25,0],[1,0.5,0],[1,0.75,0]];outlineConnect=0;fontColor=#232F3E;fillColor=#ED7100;strokeColor=#ffffff;dashed=0;verticalLabelPosition=bottom;verticalAlign=top;align=center;html=1;fontSize=12;fontStyle=0;aspect=fixed;shape=mxgraph.aws4.resourceIcon;resIcon=mxgraph.aws4.lambda;" vertex="1" parent="1">
          <mxGeometry x="402" y="160" width="60" height="60" as="geometry" />
        </mxCell>
        <mxCell id="br1NFhTCXlxhO1oLuqVo-12" value="User Table" style="shape=image;verticalLabelPosition=bottom;labelBackgroundColor=default;verticalAlign=top;aspect=fixed;imageAspect=0;image=data:image/jpeg,/9j/4AAQSkZJRgABAQAAAQABAAD/2wCEAAkGBw0PDg8ODRASDRANGA8QDQ0YDg8REQ0VGBUXFxYRFRgYHSkgGBolGxUVIT0hJSkrMi4uFx8zRDMsNygtLisBCgoKDg0OGhAQGy0lHSUrLTAtLSsvLS0rLSsrLS0tListLS0tLS0rKy0tLystLS0tLS0tKy4tKystLS0tLS0rLf/AABEIAOEA4QMBIgACEQEDEQH/xAAcAAADAAMBAQEAAAAAAAAAAAAAAQIFBgcEAwj/xABMEAABAwICBgUEDQgKAwAAAAABAAIDBBEFIQYHEjFBURMiYXGBUnKRoRQXMjNCVIKSk6KxwtIWI1Nig7LB0SQ1Q2NzdKOzw+EV4vD/xAAaAQEBAAMBAQAAAAAAAAAAAAAAAQIDBAUG/8QANxEAAgECAwMKBAYCAwAAAAAAAAECAxEEITESQVEFEzJhcYGRsdHwocHh8RQVIiNS0jNCYrLi/9oADAMBAAIRAxEAPwDAIQhfbnnjTUpoQtJJCApNSmhCkJJoBpqU0IUmpTVBSalNCFISTQDTUpoQaaSEBSpQmhCkIQgKQkmqAQhCEMSmoVLE3jQhCAaaSEINNJCApNSmhCkJJoBpqU0IUmpTVBSalNCFISTQDTUpoQaaSEBSpQmhCk0kICkkJIDEJqU1DeWmoVIQaEIQDTQ0EkAAkmwAAuSTuAHErdcA1d1EwElW72Kw5iOwdM4do3M8bnsC1Va1OlHam7e93EsYuWhpS+9LSSym0Mb5jyZG55+qF2Kk0WwmiZtvjj6u+eZzXW7ev1WnuAXzqtN8KgGyyTpdncyKMkeByb61wfmTm7Uabl76r+Zs5m3Sdjm9PojikmbaSQecWR/vkL3R6A4od8bGdhmZ9262So1nwD3qmlf5z2M+zaXifrPl+DSsb3zud90Kutj5dGml2v1kibNLizHe15iX9z9Mfwr5yaA4m3dGx/YJmfessiNZtT8Wi+e9faLWe/4VI091Q4fawpt8ofxj4r1LalxZrU+ieJx+6pJD5uxJ+4SsXUQSRHZlY+I+S5jmH0ELpFNrMpj77BKzzXRyAektWVi0ywmdpD5mgHeySJ4HrFip+MxUOnRv2X/9E5uD0l7+Bx5NdIxKm0bnuRLFTuPw4iWW+TbZ9S0vGcNghN6eriqozutdsje9pyI7QfALso4qNTLZkn1p+f2NcqbW8xapSmuk1lISTQDTUpoQaaSEBSpQmhCkIQgMMmkhQ3lJqU0BaahMoQ6tq40bjigZWzNDpphtQ3GUMZ3EfrOGd+RA538Gk2sR206HDrWFwaogO2u2Npyt+sb35cVuEVK6bC2wMOw6WmbG13BpdCAD3Zrh9XSywyOimYWSMNnsIzB/iO3ivFwlOGKrTqVc2nkt1vn7b1OibcIpI+lZWzTv6SeR8zvKc4uI7BfcOwL4KU17W6xzDVKUICk1KpCH1p4XyPZHGNp8haxjfKJNgFvDNWU9htVMYPECN5APIG4v6FOq3B9uV9a8dWC8cPbIR1neDTb5XYvZpnpnUQVRp6NzQIQBM4sDrvOeyL8hbxJ5LzMRiK06/M0GrpXbdvmnbcu03QhFR2pHw9rKb40z6F34ke1nN8aZ9C78SxX5f4p+kj+hal+X+J+XH9C1TY5R/nHwX9RejwZl/azl+NM+hd+JHtZy/GmfQu/EsT+X2KfpI/oWrb9AcYra3ppKlzTHHssYAxrbvObsxyGz85aq88fRg5ynGy6l/UyiqUnZJmj6TaMy0BjL3tlZLtBrwC2xFrtIPf8AasItv1n4h0lWyAHq07esP132cfqhnpK05elhJznRjKpq/a+FjRUSUmkWhJNdBgNNSmhBppIQFISQhDEJqU1idA00kKkKQUkFVag79SVbKfDop5LlkMEcj7C5s2ME2C8lVQYZi0If1JwBZkzDaWLjs33jzXDwU4j/AFHJ/lP+Fcewh9WJgaLpem4CIPLyBvuG729+S+dwuE51TqRk4yTee7vOmc7WVjccV1Z1DCXUkrJm8GP/ADcg7LjquPb1VrFbo5iEHvtLK0De4M6Ro+Uy49a2Ok1hYjTOMVbC2ZzMnBzXQTeNhb6q2Gi1l0D8pWTQHidkSN9LTf1LsVXHU+lFTXFa/C3/AFNdqb0djk20L24jeOIVLtbdJ8GqB1p4HdkjNj/cAS6HAJNww957PYt/Ur+ZSXTpSXvsQ5lbmjiq+1NC+R7I4xtPkLWMbzcTYD1rpWlzMIpqN74YKV8r7xwhrYnFpIzflyFz32HFYvVZg3STPrXjqwXjh7ZCOs7wabfL7FvWOToSrbLSWl97+/kzB0/1KNzcZHRYThmVnex2Wbw6WV383m/YO5cXllc9znvO055c57uLnE3JPiVuutHGOlnZRsPUpuvL2yOGQ+S0/XPJaQsOTqLjT5yXSnm+zd6+ArSu7LRDQkmvQNQ7rs+h1I2kw2IydQlpqJicrbQ2s+5th8lco0fw/wBlVcFPvD3jb8wdZ/1QV1TTyokZQSRwse99QWwgNY5xDTm8kAZDZBHiF5PKb25U6CfSd35evgb6OSczk2I1jp55Z3b5nOfbybnJvgLDwXnXp/8AGVfxeb6CX+ST8PqGgudDK1ozLjDIAO0kjJeqnFZI58zzqlKFkQtCSaAaalNCDQkhAYlClUsToGmpTQg1SlCpDudA0VuDMjjcAaim6Ha4Mf0ewQe5wI8FougWKQ4bVVMOINNO94YzbLSejLS4lptfJ20DcZZDsWc1T01W2CSR7rU0hPQxEXcXg2dI08G5WtncjhbrbLjOA0FeC2ZrXyR9XpWOAliNr7JI777LrjPcvnZVIUZ1aE84N6rVfbR9m/R9NnJKS1OZawsapq2qY6m67YmbDpdkt6Q7RNhfOwvv7StYW8Yrqzq2EupJWTt4Md+bk7vJPfcLWa3R+vg9+pZm23uEZez5zbj1r18NVoKChTkml15+DsaJqV7tGNQlcbuPJNdmaNZ9qaB8j2Rxt2nyFrGN5uJsB6V2pxiwnDeBFMyw4dNK4/eefAHsXLtBq6mp6+Oaq6rGh4Y+xIjeRYONuFtofKXUpNKsJcLPqYXDfY5j1heNym6kqkYbLcVm7b+q/UsjoopJN3zOJzVBke6SR20+Que9183OJuT6SpDhzXavyhwX9NT/ADR/JZCaGikp3SOjifA9nSF3Rts5mztbW7lmq+VXC21Sa97skTmL/wCxwZNK44ZDgN5CF7Bzmd0OxmOiqxPMwvYWvjNrFzLkHbAO/wBzbuJXQfbDw3+++i/7XI1kcBwaetnEMI7ZJCOrE3yj/LiuHE4OhVbqVMrLW+5eP1NkKklkjrWCaU01bIY6dsri0bT3GPZYwcLm+88u/kV7McxeCjgM05y3MZltSu4MA/8ArLyNbR4RR+Sxm85GSeQj1uNu4AcAFyfSDG5q6czTGwFxFED1Ym8hzPM8fQB5GHwUMRVcoJqmuOr97+HadE6rgs9THudck2DbknZG5vYOxClNfSnCUmpTQFISTQAhNCAw6EIWJvKQpVIBoSQqtSHeaMSRYRH7HbtSx0rTC23un9FcZcSXLiVFiE8MnTQyvjkOZeHuDn3NztH4Vzzvdd5wiVrKGme9wY1sMJc4kANGwMyTuC1nSjV/DVOdPSuFNM+7ntteGU8yBm0nmL91zdfPYLF06M5xqaSeuvc+r3bh0VINpNGuYZrMrI7NqY46kD4XvUh7SRdv1Qtmo9ZWHP8AfWzU54kxh7fAsJPqXN8V0ZxCkJ6anfsj+1aOkjtz2m7vGyxAK9GWAwtZbUV3xf3Rq52cTuQ0kwWoHXnp3/4jQ3/cAWv6bRYQcPmfSNozNeLYfF7H6T3xt7bGe6/guXqljS5NjTmpQnKyaduwrqtrNDQhC9I0nrwujNRPDA3fM9jL8gTYu8Bc+C63rBrBT4Y+NnVM+xTsHJp90PmNcFpmqyg6WudMRdtKwkHk9/Vb9XpPQvVrZxDangpgcommR/nPNgD2gN+svLxH72Mp090Vd+f9TbH9NNviaMhSvZhOGzVczYKdu09/zWDi9x4NH/W8hem2km28jTqfTBcJnrJ2wQC7jm5x9yxvF7jy+3cuvUtNR4RRkk7LG5ySEDbnf/EncBwSwygo8Io3Oc4ANAdPObbUzuFh42DRz4kknl2lGkU1fNtuuyJlxBDfJg8p3Nx/6XjycsfPZjlSWr4v34avM6ElSX/InSTH5q+bpJOqxtxDDfKJv8XHif4ALEpJr14QjCKjFWSOdtvNjTSQsjEpNSmqCk1KEIWhJCAxCahUsTeNCEICkikmqtSHdMR/qKT/ACf/AArl+AaZV9EAxjxNCN0Ml3NaOTDe7e69uxdRljdNgZbENt0tIBG0b3EwZAdvBaHqsoKOeef2Q1kr2NYaeJ4DmkEnbeGnIkdTuuvDwsoKhVc43Slpr9u3gjfNPaVjZsL1m0UlhUxyUruLrdLH6W9b6qy5GCVxv/RKh54/mxL/AAcFzrWZQ0sFY1tM1sZcwOniaAGsdc2Nhk0kcO48c9RIvvW2nyfRqQVWk3G/v3mYuo07PM7TUau8Kfujkiv5M0n3iV4X6sKH4M9SO8wn7gXLaeunjyimli82V7PsK98WkuJN3VlR4zvd+8Ss/wAJi1pWv2+35k24fxN/9q+l+MTeiL+S1XTfR2mw50EcL5JHyh7n7RZZjRYCwAG8k/NWO/KvE/jk3z14qiqqauVplkfPK7ZjjLnFxzPVaOy7vWt1CjiYzTqVE48PaMZShbJHVNVtB0VAZiOtVPc/t2G9Ro9IcflLmekeIeya2pnvcSPdsH9RvVZ9VoXW8flbh+EvbGbGGJsER47RAja7vub+C4zQ0cs8rIIGF8kh2WsH2nkAM78Fz8nvnJ1cQ9G7LsWfp3oyqqyUT64bQTVMzIIG7ckm4cAOLnHgBzXYcEwmlwmlc97wCAHVNSci88hxtc2De3iSp0dwOmwqmfJI5u3baqag5Cw+C3k0cuJXOdMdKZK+Szbx00RPRR7i8/pH9vZwHisJzlj583B2prV8fe5d73IqSpK71I0t0llr5b5xwRk9DFz4bb+bj6hlzJwS2vDtFC3D6murAWWieaWE3B2iLNkd4kWHitSXpUHTs4U9I5d/z63xNMk73e8pNSmt5gUhJNANNSmhCk1KaoGhCEIYdNJCxOgtNQqQg0ITugOsap8VqJad1M9jjFTe9VHwRc3MJvmSL3y3A2Nsr+jSnV/FUvdUUjhSzklzm59FI7yss2OPMX7rm6yuBtjoMHjkDbiGA1EgG97izpH+kkrm1DrDxKKV0j3tnbIdp0Lm2Y3sjIzbllx8TmvBhCtVr1KuHtGz8fvq9xvbiopSMbi+jWIUpPsinfs5kzNBkjPaXNvbxsVhwQd2a69hmszD5ABO2SldxJaZI/Asz9LQst0eCV+dqSpcd5HRdL426wXV+PrUv89J9q0+fmYc2n0WcMTXZ6jV1hT77MckV/Jmk++SvC/VdQ/BmqR3uhP3AtkeVcM97XavRsjoyOULZtXWH9PiUNxdtPtTv+Tk367mnwXu0y0NpsPpmzNmlke97Y2MIZY3BJJsOTT6lnNUWH7MNRVOGcrmxM81guSO8ut8lXEYyDwsqkHk8l2v6XJGDU7MetGaSV1HQQNMkkzjL0Y3mwLWeGbzc5DZvwWZ0V0egwyndLK5vSlu1U1BNmxtGZY0nc0c+O/kBlvYEMc81bIRtloZ0jrAQRNFy0E7hfacT29gXLdOdLnVrzBAS2ljOW8GocNz3DyeQ8TnYDzaCniIRw9PKC6T4t5/RLquzbK0W5PXcfPTXSx9dJ0cd2UsZuxu4ykf2j/4Dh37s7oFoXtbFXWs6uTqeAjfykeOXIeK07Aqylp39NPC6qeyxhguGxX8uQ5k28myys+nuJOnZNttY1huKdrbRvHFrr3JuON8t4svTq0KvN8zh1sri/Jdr1fcjSpK+1LM2PWric7WxUwYWwSWe+bK0rmm4jHK2Ts9+XI35su06ZQR1WFTPI9zGKmMkZtLRteBtceJXFVjyVNOhspWaefX1/LuLWT2rjTSVL0TSCalNCFISVIATUpoQpCSFQYhNJCxOgaaSEIWgqUyqtSH6KwZjXUNM1wDmuhhDmkXDgYwCCOS5jpVq7qIHOloWmohzPQjOaIeSBvkHdn2Het7rJXswN0kbixzKQOY8EhzSIQQQeBWo6P6z3tAjxCMy2sOnjDQ/vezIHvbbuXzuEWIi51KOavZrj76nfuudE9nJM505paS1wLXNyc0ggtPIg7kiAd+a7mKjBcUAuaepdawDgGztHZez2+CxVdqwoH3MEk1OTubtCRg8HDa+su+HKtNO1ROL99/wNfNPdmcspsQqIhaKaWIDcGTSMt80r3M0nxNu6sqPGZzvtW1VOqqoHvVVFJy2o3x/YXLxP1Z4mNxp3d0z/4sC3fisLPPaT7dfirmOxNbjW8TxqrqQ0VMz5gy5YHEdW+85dy7dozQikoKeJ1m9GwOlN7AOd13m/LaJXMva2xTlD9N/wCqz0+jekU9M2klqacQgBp/OP23tG5r3CO7h9vG65Ma6NaEYQqRSTz+iS7fEzhtRbbTMNp5piatxpqZxFMw9Z241JHHzBwHHfyWmrodNqrlNumqmN5hsLn+suH2LN0OrbDoyDK6aoPFpeGN9DAD61thjsHQgoQd11J/Oxi6c5O7OSxRue4MY1z3uyaxrS5zuwAZlb7orq+lc5s2IDo4xYinvd8nY+2TW9m89i21+JYNhjSxroID8KOMB0rvODbuPeVqGkGsiWQOjoWGBpuOndsmU+a3MN78/BYPE4nE/poQ2U/9n8vpdjYjHOTub7pX/V1b/gz/ALhXBl23EnE4JK5xJLqRxc4m5JMOZJO8riSvJK2ac1wkK+qGmpTXqmgtJJCApNSmhCk1KaAaEkISxiU0kKHQNNJCAaEIVRDvGJZ4DJbP+h/8K5poFovHiUs3TSOjjpwwuDdkPeX7VgCQbDqnhyW76t9IIaukbRTEdNAzozGbWmhAs0gHfZtmkdl+KxGI6J4jhk76rBnOkjcCHQWD5Gt37Ba73wDgR1u/MnwqM3S52g3szbum9PHddG6SvaW41nTrRtmHVDI43mSKZu2za2dtljYtNhY8M7Df2Z46hx+ugsIKmaMDczpXFg+Sbj1L5YxiVTUzulqnOfKLMILQ3owNzA2w2bXOXaV4l69OEubjGrm7Z8GaXa90bZTaw8XZvlZN58Mf3A1e5mtDER7qKmd+zlH31oyaweDw71gvC3kXblxN99tOu/QU/wDq/iXzfrQxA+5jpm/s5T99aMmp+Cw/8ENuXE2qp0/xZ+6ZsXYyGL7wJWHrcarZ7iepmkB3sMr9g/JBt6ljkLbCjTh0YpdiS+pi5Peyggqoo3PcGMa573ZNY1pc53cBmVv2ier6V7mzYgNiMWcKa4L5Ox/BrezeexK2IhRW1Ufq+xakjFyyRuGJZYHJfK1IR/oria6lrN0ijjgNDE4GWbZ6ax96jyNj2uyFuV+y/LFxclwkqTk10nddnv1NlZ/qsNCEL0jSNNJCEGmkhAUmpTQhSEkIDEKlCah0FJpIQg00kID6wTPje2SNzo3sO0x7SWuaeYI3Louj2tF7A2PEYzIBl7IYAH972ZA94t3Lmya01sPTrK1RX8/fwCk1od2bV4HioAJp6lxyDXAMnb3B1njwWNrtWGHPzhdNT/qh4e364LvWuNkDispQ6Q18FuhqpmAbm9K5zB8l1x6lw/l9Wn/hqtLg9PT4Ge2nqjdKjVRMPequN/IOgcz1hzl4pNV+JD3MlM79rKD64146bWNizPdSMm8+Bn3Nle5mtPEB7qKmd+zmb98q25Qjvi/h8kT9vrPj7WeKf3H0zvwr6RasMSO99Mz9rKT6mL7e2rW/F4P9T8S+T9aOIn3MdM39lKT/ALit8e/4j9vrPfT6qpjbpatjOYbC5/rLh9izdDq0w5mczpqg8QZNhv1AD61o1TrAxZ+6ZsXYyGL7XAlYitxqtnv09TNKDvaZX7Hzb29SnMY2fSqpdi+i8xtQW47FJiWDYY0sa6CA/CjjAdK7zg27j3ladpDrJmlBjoGGBpyM7tkykfqtzDe/PwXPgOSa2UuTaMJbU7yfX6etySqvRZFve5xLnEuc4kucSSXE7ySd5QpTXoGotNQqQg0IQgGmpTQg00kICkJIQhiE1Kah0FKlCaApNJCEGmkhAUmpTQhSahUhBoQhAUhSqQDTUpoQaaSFSFJqU0BaahUhBoQhANNSmhBoSQgMShJNQ6BpqU0IUqUJoCk0kIQaaSEA00k0IUmoVIQaEIQFIUqkA01KaEGmkhUhSalNAWmoVIQaEIQDQhCEMOEwmhQ6QCEIQxGmhCApNCEICYQhAATCEIQaEIQFJoQhATQhAAVBCEIATTQqUEIQhiNNCEBSaEIQEIQgP//Z;" vertex="1" parent="1">
          <mxGeometry x="710" y="39.99999999999997" width="70" height="70" as="geometry" />
        </mxCell>
        <mxCell id="br1NFhTCXlxhO1oLuqVo-13" value="Session Table" style="shape=image;verticalLabelPosition=bottom;labelBackgroundColor=default;verticalAlign=top;aspect=fixed;imageAspect=0;image=data:image/jpeg,/9j/4AAQSkZJRgABAQAAAQABAAD/2wCEAAkGBw0PDg8ODRASDRANGA8QDQ0YDg8REQ0VGBUXFxYRFRgYHSkgGBolGxUVIT0hJSkrMi4uFx8zRDMsNygtLisBCgoKDg0OGhAQGy0lHSUrLTAtLSsvLS0rLSsrLS0tListLS0tLS0rKy0tLystLS0tLS0tKy4tKystLS0tLS0rLf/AABEIAOEA4QMBIgACEQEDEQH/xAAcAAADAAMBAQEAAAAAAAAAAAAAAQIFBgcEAwj/xABMEAABAwICBgUEDQgKAwAAAAABAAIDBBEFIQYHEjFBURMiYXGBUnKRoRQXMjNCVIKSk6KxwtIWI1Nig7LB0SQ1Q2NzdKOzw+EV4vD/xAAaAQEBAAMBAQAAAAAAAAAAAAAAAQIDBAUG/8QANxEAAgECAwMKBAYCAwAAAAAAAAECAxEEITESQVEFEzJhcYGRsdHwocHh8RQVIiNS0jNCYrLi/9oADAMBAAIRAxEAPwDAIQhfbnnjTUpoQtJJCApNSmhCkJJoBpqU0IUmpTVBSalNCFISTQDTUpoQaaSEBSpQmhCkIQgKQkmqAQhCEMSmoVLE3jQhCAaaSEINNJCApNSmhCkJJoBpqU0IUmpTVBSalNCFISTQDTUpoQaaSEBSpQmhCk0kICkkJIDEJqU1DeWmoVIQaEIQDTQ0EkAAkmwAAuSTuAHErdcA1d1EwElW72Kw5iOwdM4do3M8bnsC1Va1OlHam7e93EsYuWhpS+9LSSym0Mb5jyZG55+qF2Kk0WwmiZtvjj6u+eZzXW7ev1WnuAXzqtN8KgGyyTpdncyKMkeByb61wfmTm7Uabl76r+Zs5m3Sdjm9PojikmbaSQecWR/vkL3R6A4od8bGdhmZ9262So1nwD3qmlf5z2M+zaXifrPl+DSsb3zud90Kutj5dGml2v1kibNLizHe15iX9z9Mfwr5yaA4m3dGx/YJmfessiNZtT8Wi+e9faLWe/4VI091Q4fawpt8ofxj4r1LalxZrU+ieJx+6pJD5uxJ+4SsXUQSRHZlY+I+S5jmH0ELpFNrMpj77BKzzXRyAektWVi0ywmdpD5mgHeySJ4HrFip+MxUOnRv2X/9E5uD0l7+Bx5NdIxKm0bnuRLFTuPw4iWW+TbZ9S0vGcNghN6eriqozutdsje9pyI7QfALso4qNTLZkn1p+f2NcqbW8xapSmuk1lISTQDTUpoQaaSEBSpQmhCkIQgMMmkhQ3lJqU0BaahMoQ6tq40bjigZWzNDpphtQ3GUMZ3EfrOGd+RA538Gk2sR206HDrWFwaogO2u2Npyt+sb35cVuEVK6bC2wMOw6WmbG13BpdCAD3Zrh9XSywyOimYWSMNnsIzB/iO3ivFwlOGKrTqVc2nkt1vn7b1OibcIpI+lZWzTv6SeR8zvKc4uI7BfcOwL4KU17W6xzDVKUICk1KpCH1p4XyPZHGNp8haxjfKJNgFvDNWU9htVMYPECN5APIG4v6FOq3B9uV9a8dWC8cPbIR1neDTb5XYvZpnpnUQVRp6NzQIQBM4sDrvOeyL8hbxJ5LzMRiK06/M0GrpXbdvmnbcu03QhFR2pHw9rKb40z6F34ke1nN8aZ9C78SxX5f4p+kj+hal+X+J+XH9C1TY5R/nHwX9RejwZl/azl+NM+hd+JHtZy/GmfQu/EsT+X2KfpI/oWrb9AcYra3ppKlzTHHssYAxrbvObsxyGz85aq88fRg5ynGy6l/UyiqUnZJmj6TaMy0BjL3tlZLtBrwC2xFrtIPf8AasItv1n4h0lWyAHq07esP132cfqhnpK05elhJznRjKpq/a+FjRUSUmkWhJNdBgNNSmhBppIQFISQhDEJqU1idA00kKkKQUkFVag79SVbKfDop5LlkMEcj7C5s2ME2C8lVQYZi0If1JwBZkzDaWLjs33jzXDwU4j/AFHJ/lP+Fcewh9WJgaLpem4CIPLyBvuG729+S+dwuE51TqRk4yTee7vOmc7WVjccV1Z1DCXUkrJm8GP/ADcg7LjquPb1VrFbo5iEHvtLK0De4M6Ro+Uy49a2Ok1hYjTOMVbC2ZzMnBzXQTeNhb6q2Gi1l0D8pWTQHidkSN9LTf1LsVXHU+lFTXFa/C3/AFNdqb0djk20L24jeOIVLtbdJ8GqB1p4HdkjNj/cAS6HAJNww957PYt/Ur+ZSXTpSXvsQ5lbmjiq+1NC+R7I4xtPkLWMbzcTYD1rpWlzMIpqN74YKV8r7xwhrYnFpIzflyFz32HFYvVZg3STPrXjqwXjh7ZCOs7wabfL7FvWOToSrbLSWl97+/kzB0/1KNzcZHRYThmVnex2Wbw6WV383m/YO5cXllc9znvO055c57uLnE3JPiVuutHGOlnZRsPUpuvL2yOGQ+S0/XPJaQsOTqLjT5yXSnm+zd6+ArSu7LRDQkmvQNQ7rs+h1I2kw2IydQlpqJicrbQ2s+5th8lco0fw/wBlVcFPvD3jb8wdZ/1QV1TTyokZQSRwse99QWwgNY5xDTm8kAZDZBHiF5PKb25U6CfSd35evgb6OSczk2I1jp55Z3b5nOfbybnJvgLDwXnXp/8AGVfxeb6CX+ST8PqGgudDK1ozLjDIAO0kjJeqnFZI58zzqlKFkQtCSaAaalNCDQkhAYlClUsToGmpTQg1SlCpDudA0VuDMjjcAaim6Ha4Mf0ewQe5wI8FougWKQ4bVVMOINNO94YzbLSejLS4lptfJ20DcZZDsWc1T01W2CSR7rU0hPQxEXcXg2dI08G5WtncjhbrbLjOA0FeC2ZrXyR9XpWOAliNr7JI777LrjPcvnZVIUZ1aE84N6rVfbR9m/R9NnJKS1OZawsapq2qY6m67YmbDpdkt6Q7RNhfOwvv7StYW8Yrqzq2EupJWTt4Md+bk7vJPfcLWa3R+vg9+pZm23uEZez5zbj1r18NVoKChTkml15+DsaJqV7tGNQlcbuPJNdmaNZ9qaB8j2Rxt2nyFrGN5uJsB6V2pxiwnDeBFMyw4dNK4/eefAHsXLtBq6mp6+Oaq6rGh4Y+xIjeRYONuFtofKXUpNKsJcLPqYXDfY5j1heNym6kqkYbLcVm7b+q/UsjoopJN3zOJzVBke6SR20+Que9183OJuT6SpDhzXavyhwX9NT/ADR/JZCaGikp3SOjifA9nSF3Rts5mztbW7lmq+VXC21Sa97skTmL/wCxwZNK44ZDgN5CF7Bzmd0OxmOiqxPMwvYWvjNrFzLkHbAO/wBzbuJXQfbDw3+++i/7XI1kcBwaetnEMI7ZJCOrE3yj/LiuHE4OhVbqVMrLW+5eP1NkKklkjrWCaU01bIY6dsri0bT3GPZYwcLm+88u/kV7McxeCjgM05y3MZltSu4MA/8ArLyNbR4RR+Sxm85GSeQj1uNu4AcAFyfSDG5q6czTGwFxFED1Ym8hzPM8fQB5GHwUMRVcoJqmuOr97+HadE6rgs9THudck2DbknZG5vYOxClNfSnCUmpTQFISTQAhNCAw6EIWJvKQpVIBoSQqtSHeaMSRYRH7HbtSx0rTC23un9FcZcSXLiVFiE8MnTQyvjkOZeHuDn3NztH4Vzzvdd5wiVrKGme9wY1sMJc4kANGwMyTuC1nSjV/DVOdPSuFNM+7ntteGU8yBm0nmL91zdfPYLF06M5xqaSeuvc+r3bh0VINpNGuYZrMrI7NqY46kD4XvUh7SRdv1Qtmo9ZWHP8AfWzU54kxh7fAsJPqXN8V0ZxCkJ6anfsj+1aOkjtz2m7vGyxAK9GWAwtZbUV3xf3Rq52cTuQ0kwWoHXnp3/4jQ3/cAWv6bRYQcPmfSNozNeLYfF7H6T3xt7bGe6/guXqljS5NjTmpQnKyaduwrqtrNDQhC9I0nrwujNRPDA3fM9jL8gTYu8Bc+C63rBrBT4Y+NnVM+xTsHJp90PmNcFpmqyg6WudMRdtKwkHk9/Vb9XpPQvVrZxDangpgcommR/nPNgD2gN+svLxH72Mp090Vd+f9TbH9NNviaMhSvZhOGzVczYKdu09/zWDi9x4NH/W8hem2km28jTqfTBcJnrJ2wQC7jm5x9yxvF7jy+3cuvUtNR4RRkk7LG5ySEDbnf/EncBwSwygo8Io3Oc4ANAdPObbUzuFh42DRz4kknl2lGkU1fNtuuyJlxBDfJg8p3Nx/6XjycsfPZjlSWr4v34avM6ElSX/InSTH5q+bpJOqxtxDDfKJv8XHif4ALEpJr14QjCKjFWSOdtvNjTSQsjEpNSmqCk1KEIWhJCAxCahUsTeNCEICkikmqtSHdMR/qKT/ACf/AArl+AaZV9EAxjxNCN0Ml3NaOTDe7e69uxdRljdNgZbENt0tIBG0b3EwZAdvBaHqsoKOeef2Q1kr2NYaeJ4DmkEnbeGnIkdTuuvDwsoKhVc43Slpr9u3gjfNPaVjZsL1m0UlhUxyUruLrdLH6W9b6qy5GCVxv/RKh54/mxL/AAcFzrWZQ0sFY1tM1sZcwOniaAGsdc2Nhk0kcO48c9RIvvW2nyfRqQVWk3G/v3mYuo07PM7TUau8Kfujkiv5M0n3iV4X6sKH4M9SO8wn7gXLaeunjyimli82V7PsK98WkuJN3VlR4zvd+8Ss/wAJi1pWv2+35k24fxN/9q+l+MTeiL+S1XTfR2mw50EcL5JHyh7n7RZZjRYCwAG8k/NWO/KvE/jk3z14qiqqauVplkfPK7ZjjLnFxzPVaOy7vWt1CjiYzTqVE48PaMZShbJHVNVtB0VAZiOtVPc/t2G9Ro9IcflLmekeIeya2pnvcSPdsH9RvVZ9VoXW8flbh+EvbGbGGJsER47RAja7vub+C4zQ0cs8rIIGF8kh2WsH2nkAM78Fz8nvnJ1cQ9G7LsWfp3oyqqyUT64bQTVMzIIG7ckm4cAOLnHgBzXYcEwmlwmlc97wCAHVNSci88hxtc2De3iSp0dwOmwqmfJI5u3baqag5Cw+C3k0cuJXOdMdKZK+Szbx00RPRR7i8/pH9vZwHisJzlj583B2prV8fe5d73IqSpK71I0t0llr5b5xwRk9DFz4bb+bj6hlzJwS2vDtFC3D6murAWWieaWE3B2iLNkd4kWHitSXpUHTs4U9I5d/z63xNMk73e8pNSmt5gUhJNANNSmhCk1KaoGhCEIYdNJCxOgtNQqQg0ITugOsap8VqJad1M9jjFTe9VHwRc3MJvmSL3y3A2Nsr+jSnV/FUvdUUjhSzklzm59FI7yss2OPMX7rm6yuBtjoMHjkDbiGA1EgG97izpH+kkrm1DrDxKKV0j3tnbIdp0Lm2Y3sjIzbllx8TmvBhCtVr1KuHtGz8fvq9xvbiopSMbi+jWIUpPsinfs5kzNBkjPaXNvbxsVhwQd2a69hmszD5ABO2SldxJaZI/Asz9LQst0eCV+dqSpcd5HRdL426wXV+PrUv89J9q0+fmYc2n0WcMTXZ6jV1hT77MckV/Jmk++SvC/VdQ/BmqR3uhP3AtkeVcM97XavRsjoyOULZtXWH9PiUNxdtPtTv+Tk367mnwXu0y0NpsPpmzNmlke97Y2MIZY3BJJsOTT6lnNUWH7MNRVOGcrmxM81guSO8ut8lXEYyDwsqkHk8l2v6XJGDU7MetGaSV1HQQNMkkzjL0Y3mwLWeGbzc5DZvwWZ0V0egwyndLK5vSlu1U1BNmxtGZY0nc0c+O/kBlvYEMc81bIRtloZ0jrAQRNFy0E7hfacT29gXLdOdLnVrzBAS2ljOW8GocNz3DyeQ8TnYDzaCniIRw9PKC6T4t5/RLquzbK0W5PXcfPTXSx9dJ0cd2UsZuxu4ykf2j/4Dh37s7oFoXtbFXWs6uTqeAjfykeOXIeK07Aqylp39NPC6qeyxhguGxX8uQ5k28myys+nuJOnZNttY1huKdrbRvHFrr3JuON8t4svTq0KvN8zh1sri/Jdr1fcjSpK+1LM2PWric7WxUwYWwSWe+bK0rmm4jHK2Ts9+XI35su06ZQR1WFTPI9zGKmMkZtLRteBtceJXFVjyVNOhspWaefX1/LuLWT2rjTSVL0TSCalNCFISVIATUpoQpCSFQYhNJCxOgaaSEIWgqUyqtSH6KwZjXUNM1wDmuhhDmkXDgYwCCOS5jpVq7qIHOloWmohzPQjOaIeSBvkHdn2Het7rJXswN0kbixzKQOY8EhzSIQQQeBWo6P6z3tAjxCMy2sOnjDQ/vezIHvbbuXzuEWIi51KOavZrj76nfuudE9nJM505paS1wLXNyc0ggtPIg7kiAd+a7mKjBcUAuaepdawDgGztHZez2+CxVdqwoH3MEk1OTubtCRg8HDa+su+HKtNO1ROL99/wNfNPdmcspsQqIhaKaWIDcGTSMt80r3M0nxNu6sqPGZzvtW1VOqqoHvVVFJy2o3x/YXLxP1Z4mNxp3d0z/4sC3fisLPPaT7dfirmOxNbjW8TxqrqQ0VMz5gy5YHEdW+85dy7dozQikoKeJ1m9GwOlN7AOd13m/LaJXMva2xTlD9N/wCqz0+jekU9M2klqacQgBp/OP23tG5r3CO7h9vG65Ma6NaEYQqRSTz+iS7fEzhtRbbTMNp5piatxpqZxFMw9Z241JHHzBwHHfyWmrodNqrlNumqmN5hsLn+suH2LN0OrbDoyDK6aoPFpeGN9DAD61thjsHQgoQd11J/Oxi6c5O7OSxRue4MY1z3uyaxrS5zuwAZlb7orq+lc5s2IDo4xYinvd8nY+2TW9m89i21+JYNhjSxroID8KOMB0rvODbuPeVqGkGsiWQOjoWGBpuOndsmU+a3MN78/BYPE4nE/poQ2U/9n8vpdjYjHOTub7pX/V1b/gz/ALhXBl23EnE4JK5xJLqRxc4m5JMOZJO8riSvJK2ac1wkK+qGmpTXqmgtJJCApNSmhCk1KaAaEkISxiU0kKHQNNJCAaEIVRDvGJZ4DJbP+h/8K5poFovHiUs3TSOjjpwwuDdkPeX7VgCQbDqnhyW76t9IIaukbRTEdNAzozGbWmhAs0gHfZtmkdl+KxGI6J4jhk76rBnOkjcCHQWD5Gt37Ba73wDgR1u/MnwqM3S52g3szbum9PHddG6SvaW41nTrRtmHVDI43mSKZu2za2dtljYtNhY8M7Df2Z46hx+ugsIKmaMDczpXFg+Sbj1L5YxiVTUzulqnOfKLMILQ3owNzA2w2bXOXaV4l69OEubjGrm7Z8GaXa90bZTaw8XZvlZN58Mf3A1e5mtDER7qKmd+zlH31oyaweDw71gvC3kXblxN99tOu/QU/wDq/iXzfrQxA+5jpm/s5T99aMmp+Cw/8ENuXE2qp0/xZ+6ZsXYyGL7wJWHrcarZ7iepmkB3sMr9g/JBt6ljkLbCjTh0YpdiS+pi5Peyggqoo3PcGMa573ZNY1pc53cBmVv2ier6V7mzYgNiMWcKa4L5Ox/BrezeexK2IhRW1Ufq+xakjFyyRuGJZYHJfK1IR/oria6lrN0ijjgNDE4GWbZ6ax96jyNj2uyFuV+y/LFxclwkqTk10nddnv1NlZ/qsNCEL0jSNNJCEGmkhAUmpTQhSEkIDEKlCah0FJpIQg00kID6wTPje2SNzo3sO0x7SWuaeYI3Louj2tF7A2PEYzIBl7IYAH972ZA94t3Lmya01sPTrK1RX8/fwCk1od2bV4HioAJp6lxyDXAMnb3B1njwWNrtWGHPzhdNT/qh4e364LvWuNkDispQ6Q18FuhqpmAbm9K5zB8l1x6lw/l9Wn/hqtLg9PT4Ge2nqjdKjVRMPequN/IOgcz1hzl4pNV+JD3MlM79rKD64146bWNizPdSMm8+Bn3Nle5mtPEB7qKmd+zmb98q25Qjvi/h8kT9vrPj7WeKf3H0zvwr6RasMSO99Mz9rKT6mL7e2rW/F4P9T8S+T9aOIn3MdM39lKT/ALit8e/4j9vrPfT6qpjbpatjOYbC5/rLh9izdDq0w5mczpqg8QZNhv1AD61o1TrAxZ+6ZsXYyGL7XAlYitxqtnv09TNKDvaZX7Hzb29SnMY2fSqpdi+i8xtQW47FJiWDYY0sa6CA/CjjAdK7zg27j3ladpDrJmlBjoGGBpyM7tkykfqtzDe/PwXPgOSa2UuTaMJbU7yfX6etySqvRZFve5xLnEuc4kucSSXE7ySd5QpTXoGotNQqQg0IQgGmpTQg00kICkJIQhiE1Kah0FKlCaApNJCEGmkhAUmpTQhSahUhBoQhAUhSqQDTUpoQaaSFSFJqU0BaahUhBoQhANNSmhBoSQgMShJNQ6BpqU0IUqUJoCk0kIQaaSEA00k0IUmoVIQaEIQFIUqkA01KaEGmkhUhSalNAWmoVIQaEIQDQhCEMOEwmhQ6QCEIQxGmhCApNCEICYQhAATCEIQaEIQFJoQhATQhAAVBCEIATTQqUEIQhiNNCEBSaEIQEIQgP//Z;" vertex="1" parent="1">
          <mxGeometry x="710" y="312" width="70" height="70" as="geometry" />
        </mxCell>
        <mxCell id="br1NFhTCXlxhO1oLuqVo-16" value="Frontend&#xa;Angular SPA" style="shape=image;verticalLabelPosition=top;labelBackgroundColor=default;verticalAlign=bottom;aspect=fixed;imageAspect=0;image=https://seeklogo.com/images/A/amazon-s3-simple-storage-service-logo-9A3F37976E-seeklogo.com.png;labelPosition=center;align=center;fontStyle=0" vertex="1" parent="1">
          <mxGeometry x="177.25" y="50.5" width="59.5" height="59.5" as="geometry" />
        </mxCell>
        <mxCell id="br1NFhTCXlxhO1oLuqVo-21" style="edgeStyle=orthogonalEdgeStyle;rounded=0;orthogonalLoop=1;jettySize=auto;html=1;entryX=0;entryY=0.5;entryDx=0;entryDy=0;entryPerimeter=0;" edge="1" parent="1" source="br1NFhTCXlxhO1oLuqVo-2">
          <mxGeometry relative="1" as="geometry">
            <mxPoint x="400" y="467.9999999999999" as="targetPoint" />
            <Array as="points">
              <mxPoint x="300" y="360" />
              <mxPoint x="300" y="468" />
            </Array>
          </mxGeometry>
        </mxCell>
        <mxCell id="br1NFhTCXlxhO1oLuqVo-23" value="Create Session with TTL" style="text;html=1;align=center;verticalAlign=middle;whiteSpace=wrap;rounded=0;fillColor=#6a00ff;strokeColor=#3700CC;perimeterSpacing=1;strokeWidth=2;fontStyle=1;fontColor=#ffffff;gradientColor=none;" vertex="1" parent="1">
          <mxGeometry x="530" y="260" width="90" height="34" as="geometry" />
        </mxCell>
        <mxCell id="br1NFhTCXlxhO1oLuqVo-24" value="Login/&lt;span style=&quot;background-color: initial;&quot;&gt;Register&lt;/span&gt;" style="text;html=1;align=center;verticalAlign=middle;whiteSpace=wrap;rounded=0;fillColor=#f0a30a;strokeColor=#BD7000;perimeterSpacing=1;strokeWidth=2;fontStyle=1;fontColor=#FFFFFF;" vertex="1" parent="1">
          <mxGeometry x="382" y="130" width="100" height="24" as="geometry" />
        </mxCell>
        <mxCell id="br1NFhTCXlxhO1oLuqVo-26" value="Create/Get&lt;div&gt;User Info&lt;/div&gt;" style="text;html=1;align=center;verticalAlign=middle;whiteSpace=wrap;rounded=0;fillColor=#6a00ff;strokeColor=#3700CC;perimeterSpacing=1;strokeWidth=2;fontStyle=1;fontColor=#ffffff;gradientColor=none;" vertex="1" parent="1">
          <mxGeometry x="520" y="100" width="100" height="34" as="geometry" />
        </mxCell>
        <mxCell id="br1NFhTCXlxhO1oLuqVo-27" style="edgeStyle=orthogonalEdgeStyle;rounded=0;orthogonalLoop=1;jettySize=auto;html=1;entryX=0;entryY=0.5;entryDx=0;entryDy=0;entryPerimeter=0;startArrow=classic;startFill=1;" edge="1" parent="1" source="br1NFhTCXlxhO1oLuqVo-2" target="br1NFhTCXlxhO1oLuqVo-9">
          <mxGeometry relative="1" as="geometry">
            <Array as="points">
              <mxPoint x="300" y="330" />
              <mxPoint x="300" y="190" />
            </Array>
          </mxGeometry>
        </mxCell>
        <mxCell id="br1NFhTCXlxhO1oLuqVo-36" style="edgeStyle=orthogonalEdgeStyle;rounded=0;orthogonalLoop=1;jettySize=auto;html=1;" edge="1" parent="1" source="br1NFhTCXlxhO1oLuqVo-41" target="br1NFhTCXlxhO1oLuqVo-39">
          <mxGeometry relative="1" as="geometry">
            <mxPoint x="660" y="520" as="targetPoint" />
            <Array as="points">
              <mxPoint x="730" y="470" />
            </Array>
          </mxGeometry>
        </mxCell>
        <mxCell id="br1NFhTCXlxhO1oLuqVo-28" value="&lt;span style=&quot;color: rgb(35, 47, 62);&quot;&gt;Lambda@Edge&lt;/span&gt;&lt;div style=&quot;color: rgb(35, 47, 62);&quot;&gt;Session Checker&lt;/div&gt;" style="sketch=0;outlineConnect=0;fontColor=#ffffff;fillColor=#6a00ff;strokeColor=#3700CC;dashed=0;verticalLabelPosition=bottom;verticalAlign=top;align=center;html=1;fontSize=12;fontStyle=0;aspect=fixed;pointerEvents=1;shape=mxgraph.aws4.lambda_function;" vertex="1" parent="1">
          <mxGeometry x="402" y="440" width="60" height="60" as="geometry" />
        </mxCell>
        <mxCell id="br1NFhTCXlxhO1oLuqVo-29" value="Request Static Files" style="text;html=1;align=center;verticalAlign=middle;whiteSpace=wrap;rounded=0;fillColor=#009900;strokeColor=#36393d;fontStyle=1;fontColor=#FFFFFF;" vertex="1" parent="1">
          <mxGeometry x="174.75" y="160" width="70" height="30" as="geometry" />
        </mxCell>
        <mxCell id="br1NFhTCXlxhO1oLuqVo-30" value="Receive Session Cookie" style="text;html=1;align=center;verticalAlign=middle;whiteSpace=wrap;rounded=0;fillColor=#f8cecc;strokeColor=#b85450;fontStyle=1;fontColor=#990000;" vertex="1" parent="1">
          <mxGeometry x="250" y="250" width="100" height="30" as="geometry" />
        </mxCell>
        <mxCell id="br1NFhTCXlxhO1oLuqVo-32" value="Request&lt;div&gt;Dynamic&amp;nbsp;&lt;span style=&quot;background-color: initial;&quot;&gt;Data&lt;/span&gt;&lt;/div&gt;" style="text;html=1;align=center;verticalAlign=middle;whiteSpace=wrap;rounded=0;fillColor=#f8cecc;strokeColor=#b85450;fontStyle=1;fontColor=#990000;spacing=0;" vertex="1" parent="1">
          <mxGeometry x="260" y="410" width="90" height="30" as="geometry" />
        </mxCell>
        <mxCell id="br1NFhTCXlxhO1oLuqVo-34" value="Validate&lt;div&gt;Session&amp;nbsp;&lt;span style=&quot;background-color: initial;&quot;&gt;Cookie&lt;/span&gt;&lt;/div&gt;" style="text;html=1;align=center;verticalAlign=middle;whiteSpace=wrap;rounded=0;fillColor=#6a00ff;strokeColor=#3700CC;perimeterSpacing=1;strokeWidth=2;fontStyle=1;fontColor=#ffffff;gradientColor=none;" vertex="1" parent="1">
          <mxGeometry x="440" y="382" width="110" height="34" as="geometry" />
        </mxCell>
        <mxCell id="br1NFhTCXlxhO1oLuqVo-38" value="" style="sketch=0;points=[[0,0,0],[0.25,0,0],[0.5,0,0],[0.75,0,0],[1,0,0],[0,1,0],[0.25,1,0],[0.5,1,0],[0.75,1,0],[1,1,0],[0,0.25,0],[0,0.5,0],[0,0.75,0],[1,0.25,0],[1,0.5,0],[1,0.75,0]];outlineConnect=0;fontColor=#232F3E;fillColor=#ED7100;strokeColor=#ffffff;dashed=0;verticalLabelPosition=bottom;verticalAlign=top;align=center;html=1;fontSize=12;fontStyle=0;aspect=fixed;shape=mxgraph.aws4.resourceIcon;resIcon=mxgraph.aws4.lambda;" vertex="1" parent="1">
          <mxGeometry x="610" y="560" width="40" height="40" as="geometry" />
        </mxCell>
        <mxCell id="br1NFhTCXlxhO1oLuqVo-42" value="" style="edgeStyle=orthogonalEdgeStyle;rounded=0;orthogonalLoop=1;jettySize=auto;html=1;startArrow=classic;startFill=1;endArrow=none;endFill=0;" edge="1" parent="1" source="br1NFhTCXlxhO1oLuqVo-28" target="br1NFhTCXlxhO1oLuqVo-41">
          <mxGeometry relative="1" as="geometry">
            <mxPoint x="710" y="560" as="targetPoint" />
            <mxPoint x="462" y="470" as="sourcePoint" />
          </mxGeometry>
        </mxCell>
        <mxCell id="br1NFhTCXlxhO1oLuqVo-41" value="&lt;span style=&quot;&quot;&gt;Proxy Authenticated Request to Lambda Urls&lt;/span&gt;" style="text;html=1;align=center;verticalAlign=middle;whiteSpace=wrap;rounded=0;fillColor=#f0a30a;strokeColor=#BD7000;perimeterSpacing=1;strokeWidth=2;fontStyle=1;fontColor=#FFFFFF;" vertex="1" parent="1">
          <mxGeometry x="540" y="453" width="160" height="34" as="geometry" />
        </mxCell>
        <mxCell id="br1NFhTCXlxhO1oLuqVo-43" value="" style="sketch=0;points=[[0,0,0],[0.25,0,0],[0.5,0,0],[0.75,0,0],[1,0,0],[0,1,0],[0.25,1,0],[0.5,1,0],[0.75,1,0],[1,1,0],[0,0.25,0],[0,0.5,0],[0,0.75,0],[1,0.25,0],[1,0.5,0],[1,0.75,0]];outlineConnect=0;fontColor=#232F3E;fillColor=#ED7100;strokeColor=#ffffff;dashed=0;verticalLabelPosition=bottom;verticalAlign=top;align=center;html=1;fontSize=12;fontStyle=0;aspect=fixed;shape=mxgraph.aws4.resourceIcon;resIcon=mxgraph.aws4.lambda;" vertex="1" parent="1">
          <mxGeometry x="680" y="560" width="40" height="40" as="geometry" />
        </mxCell>
        <mxCell id="br1NFhTCXlxhO1oLuqVo-44" value="" style="sketch=0;points=[[0,0,0],[0.25,0,0],[0.5,0,0],[0.75,0,0],[1,0,0],[0,1,0],[0.25,1,0],[0.5,1,0],[0.75,1,0],[1,1,0],[0,0.25,0],[0,0.5,0],[0,0.75,0],[1,0.25,0],[1,0.5,0],[1,0.75,0]];outlineConnect=0;fontColor=#232F3E;fillColor=#ED7100;strokeColor=#ffffff;dashed=0;verticalLabelPosition=bottom;verticalAlign=top;align=center;html=1;fontSize=12;fontStyle=0;aspect=fixed;shape=mxgraph.aws4.resourceIcon;resIcon=mxgraph.aws4.lambda;" vertex="1" parent="1">
          <mxGeometry x="750" y="560" width="40" height="40" as="geometry" />
        </mxCell>
        <mxCell id="br1NFhTCXlxhO1oLuqVo-45" value="" style="sketch=0;points=[[0,0,0],[0.25,0,0],[0.5,0,0],[0.75,0,0],[1,0,0],[0,1,0],[0.25,1,0],[0.5,1,0],[0.75,1,0],[1,1,0],[0,0.25,0],[0,0.5,0],[0,0.75,0],[1,0.25,0],[1,0.5,0],[1,0.75,0]];outlineConnect=0;fontColor=#232F3E;fillColor=#ED7100;strokeColor=#ffffff;dashed=0;verticalLabelPosition=bottom;verticalAlign=top;align=center;html=1;fontSize=12;fontStyle=0;aspect=fixed;shape=mxgraph.aws4.resourceIcon;resIcon=mxgraph.aws4.lambda;" vertex="1" parent="1">
          <mxGeometry x="820" y="560" width="40" height="40" as="geometry" />
        </mxCell>
        <mxCell id="br1NFhTCXlxhO1oLuqVo-46" value="" style="sketch=0;points=[[0,0,0],[0.25,0,0],[0.5,0,0],[0.75,0,0],[1,0,0],[0,1,0],[0.25,1,0],[0.5,1,0],[0.75,1,0],[1,1,0],[0,0.25,0],[0,0.5,0],[0,0.75,0],[1,0.25,0],[1,0.5,0],[1,0.75,0]];outlineConnect=0;fontColor=#232F3E;fillColor=#ED7100;strokeColor=#ffffff;dashed=0;verticalLabelPosition=bottom;verticalAlign=top;align=center;html=1;fontSize=12;fontStyle=0;aspect=fixed;shape=mxgraph.aws4.resourceIcon;resIcon=mxgraph.aws4.lambda;" vertex="1" parent="1">
          <mxGeometry x="750" y="612.5" width="40" height="40" as="geometry" />
        </mxCell>
        <mxCell id="br1NFhTCXlxhO1oLuqVo-47" value="" style="sketch=0;points=[[0,0,0],[0.25,0,0],[0.5,0,0],[0.75,0,0],[1,0,0],[0,1,0],[0.25,1,0],[0.5,1,0],[0.75,1,0],[1,1,0],[0,0.25,0],[0,0.5,0],[0,0.75,0],[1,0.25,0],[1,0.5,0],[1,0.75,0]];outlineConnect=0;fontColor=#232F3E;fillColor=#ED7100;strokeColor=#ffffff;dashed=0;verticalLabelPosition=bottom;verticalAlign=top;align=center;html=1;fontSize=12;fontStyle=0;aspect=fixed;shape=mxgraph.aws4.resourceIcon;resIcon=mxgraph.aws4.lambda;" vertex="1" parent="1">
          <mxGeometry x="820" y="612.5" width="40" height="40" as="geometry" />
        </mxCell>
        <mxCell id="br1NFhTCXlxhO1oLuqVo-48" value="" style="sketch=0;points=[[0,0,0],[0.25,0,0],[0.5,0,0],[0.75,0,0],[1,0,0],[0,1,0],[0.25,1,0],[0.5,1,0],[0.75,1,0],[1,1,0],[0,0.25,0],[0,0.5,0],[0,0.75,0],[1,0.25,0],[1,0.5,0],[1,0.75,0]];outlineConnect=0;fontColor=#232F3E;fillColor=#ED7100;strokeColor=#ffffff;dashed=0;verticalLabelPosition=bottom;verticalAlign=top;align=center;html=1;fontSize=12;fontStyle=0;aspect=fixed;shape=mxgraph.aws4.resourceIcon;resIcon=mxgraph.aws4.lambda;" vertex="1" parent="1">
          <mxGeometry x="680" y="612.5" width="40" height="40" as="geometry" />
        </mxCell>
        <mxCell id="br1NFhTCXlxhO1oLuqVo-49" value="" style="sketch=0;points=[[0,0,0],[0.25,0,0],[0.5,0,0],[0.75,0,0],[1,0,0],[0,1,0],[0.25,1,0],[0.5,1,0],[0.75,1,0],[1,1,0],[0,0.25,0],[0,0.5,0],[0,0.75,0],[1,0.25,0],[1,0.5,0],[1,0.75,0]];outlineConnect=0;fontColor=#232F3E;fillColor=#ED7100;strokeColor=#ffffff;dashed=0;verticalLabelPosition=bottom;verticalAlign=top;align=center;html=1;fontSize=12;fontStyle=0;aspect=fixed;shape=mxgraph.aws4.resourceIcon;resIcon=mxgraph.aws4.lambda;" vertex="1" parent="1">
          <mxGeometry x="610" y="612.5" width="40" height="40" as="geometry" />
        </mxCell>
        <mxCell id="br1NFhTCXlxhO1oLuqVo-50" value="" style="shape=image;verticalLabelPosition=bottom;labelBackgroundColor=default;verticalAlign=top;aspect=fixed;imageAspect=0;image=data:image/jpeg,/9j/4AAQSkZJRgABAQAAAQABAAD/2wCEAAkGBw0PDg8ODRASDRANGA8QDQ0YDg8REQ0VGBUXFxYRFRgYHSkgGBolGxUVIT0hJSkrMi4uFx8zRDMsNygtLisBCgoKDg0OGhAQGy0lHSUrLTAtLSsvLS0rLSsrLS0tListLS0tLS0rKy0tLystLS0tLS0tKy4tKystLS0tLS0rLf/AABEIAOEA4QMBIgACEQEDEQH/xAAcAAADAAMBAQEAAAAAAAAAAAAAAQIFBgcEAwj/xABMEAABAwICBgUEDQgKAwAAAAABAAIDBBEFIQYHEjFBURMiYXGBUnKRoRQXMjNCVIKSk6KxwtIWI1Nig7LB0SQ1Q2NzdKOzw+EV4vD/xAAaAQEBAAMBAQAAAAAAAAAAAAAAAQIDBAUG/8QANxEAAgECAwMKBAYCAwAAAAAAAAECAxEEITESQVEFEzJhcYGRsdHwocHh8RQVIiNS0jNCYrLi/9oADAMBAAIRAxEAPwDAIQhfbnnjTUpoQtJJCApNSmhCkJJoBpqU0IUmpTVBSalNCFISTQDTUpoQaaSEBSpQmhCkIQgKQkmqAQhCEMSmoVLE3jQhCAaaSEINNJCApNSmhCkJJoBpqU0IUmpTVBSalNCFISTQDTUpoQaaSEBSpQmhCk0kICkkJIDEJqU1DeWmoVIQaEIQDTQ0EkAAkmwAAuSTuAHErdcA1d1EwElW72Kw5iOwdM4do3M8bnsC1Va1OlHam7e93EsYuWhpS+9LSSym0Mb5jyZG55+qF2Kk0WwmiZtvjj6u+eZzXW7ev1WnuAXzqtN8KgGyyTpdncyKMkeByb61wfmTm7Uabl76r+Zs5m3Sdjm9PojikmbaSQecWR/vkL3R6A4od8bGdhmZ9262So1nwD3qmlf5z2M+zaXifrPl+DSsb3zud90Kutj5dGml2v1kibNLizHe15iX9z9Mfwr5yaA4m3dGx/YJmfessiNZtT8Wi+e9faLWe/4VI091Q4fawpt8ofxj4r1LalxZrU+ieJx+6pJD5uxJ+4SsXUQSRHZlY+I+S5jmH0ELpFNrMpj77BKzzXRyAektWVi0ywmdpD5mgHeySJ4HrFip+MxUOnRv2X/9E5uD0l7+Bx5NdIxKm0bnuRLFTuPw4iWW+TbZ9S0vGcNghN6eriqozutdsje9pyI7QfALso4qNTLZkn1p+f2NcqbW8xapSmuk1lISTQDTUpoQaaSEBSpQmhCkIQgMMmkhQ3lJqU0BaahMoQ6tq40bjigZWzNDpphtQ3GUMZ3EfrOGd+RA538Gk2sR206HDrWFwaogO2u2Npyt+sb35cVuEVK6bC2wMOw6WmbG13BpdCAD3Zrh9XSywyOimYWSMNnsIzB/iO3ivFwlOGKrTqVc2nkt1vn7b1OibcIpI+lZWzTv6SeR8zvKc4uI7BfcOwL4KU17W6xzDVKUICk1KpCH1p4XyPZHGNp8haxjfKJNgFvDNWU9htVMYPECN5APIG4v6FOq3B9uV9a8dWC8cPbIR1neDTb5XYvZpnpnUQVRp6NzQIQBM4sDrvOeyL8hbxJ5LzMRiK06/M0GrpXbdvmnbcu03QhFR2pHw9rKb40z6F34ke1nN8aZ9C78SxX5f4p+kj+hal+X+J+XH9C1TY5R/nHwX9RejwZl/azl+NM+hd+JHtZy/GmfQu/EsT+X2KfpI/oWrb9AcYra3ppKlzTHHssYAxrbvObsxyGz85aq88fRg5ynGy6l/UyiqUnZJmj6TaMy0BjL3tlZLtBrwC2xFrtIPf8AasItv1n4h0lWyAHq07esP132cfqhnpK05elhJznRjKpq/a+FjRUSUmkWhJNdBgNNSmhBppIQFISQhDEJqU1idA00kKkKQUkFVag79SVbKfDop5LlkMEcj7C5s2ME2C8lVQYZi0If1JwBZkzDaWLjs33jzXDwU4j/AFHJ/lP+Fcewh9WJgaLpem4CIPLyBvuG729+S+dwuE51TqRk4yTee7vOmc7WVjccV1Z1DCXUkrJm8GP/ADcg7LjquPb1VrFbo5iEHvtLK0De4M6Ro+Uy49a2Ok1hYjTOMVbC2ZzMnBzXQTeNhb6q2Gi1l0D8pWTQHidkSN9LTf1LsVXHU+lFTXFa/C3/AFNdqb0djk20L24jeOIVLtbdJ8GqB1p4HdkjNj/cAS6HAJNww957PYt/Ur+ZSXTpSXvsQ5lbmjiq+1NC+R7I4xtPkLWMbzcTYD1rpWlzMIpqN74YKV8r7xwhrYnFpIzflyFz32HFYvVZg3STPrXjqwXjh7ZCOs7wabfL7FvWOToSrbLSWl97+/kzB0/1KNzcZHRYThmVnex2Wbw6WV383m/YO5cXllc9znvO055c57uLnE3JPiVuutHGOlnZRsPUpuvL2yOGQ+S0/XPJaQsOTqLjT5yXSnm+zd6+ArSu7LRDQkmvQNQ7rs+h1I2kw2IydQlpqJicrbQ2s+5th8lco0fw/wBlVcFPvD3jb8wdZ/1QV1TTyokZQSRwse99QWwgNY5xDTm8kAZDZBHiF5PKb25U6CfSd35evgb6OSczk2I1jp55Z3b5nOfbybnJvgLDwXnXp/8AGVfxeb6CX+ST8PqGgudDK1ozLjDIAO0kjJeqnFZI58zzqlKFkQtCSaAaalNCDQkhAYlClUsToGmpTQg1SlCpDudA0VuDMjjcAaim6Ha4Mf0ewQe5wI8FougWKQ4bVVMOINNO94YzbLSejLS4lptfJ20DcZZDsWc1T01W2CSR7rU0hPQxEXcXg2dI08G5WtncjhbrbLjOA0FeC2ZrXyR9XpWOAliNr7JI777LrjPcvnZVIUZ1aE84N6rVfbR9m/R9NnJKS1OZawsapq2qY6m67YmbDpdkt6Q7RNhfOwvv7StYW8Yrqzq2EupJWTt4Md+bk7vJPfcLWa3R+vg9+pZm23uEZez5zbj1r18NVoKChTkml15+DsaJqV7tGNQlcbuPJNdmaNZ9qaB8j2Rxt2nyFrGN5uJsB6V2pxiwnDeBFMyw4dNK4/eefAHsXLtBq6mp6+Oaq6rGh4Y+xIjeRYONuFtofKXUpNKsJcLPqYXDfY5j1heNym6kqkYbLcVm7b+q/UsjoopJN3zOJzVBke6SR20+Que9183OJuT6SpDhzXavyhwX9NT/ADR/JZCaGikp3SOjifA9nSF3Rts5mztbW7lmq+VXC21Sa97skTmL/wCxwZNK44ZDgN5CF7Bzmd0OxmOiqxPMwvYWvjNrFzLkHbAO/wBzbuJXQfbDw3+++i/7XI1kcBwaetnEMI7ZJCOrE3yj/LiuHE4OhVbqVMrLW+5eP1NkKklkjrWCaU01bIY6dsri0bT3GPZYwcLm+88u/kV7McxeCjgM05y3MZltSu4MA/8ArLyNbR4RR+Sxm85GSeQj1uNu4AcAFyfSDG5q6czTGwFxFED1Ym8hzPM8fQB5GHwUMRVcoJqmuOr97+HadE6rgs9THudck2DbknZG5vYOxClNfSnCUmpTQFISTQAhNCAw6EIWJvKQpVIBoSQqtSHeaMSRYRH7HbtSx0rTC23un9FcZcSXLiVFiE8MnTQyvjkOZeHuDn3NztH4Vzzvdd5wiVrKGme9wY1sMJc4kANGwMyTuC1nSjV/DVOdPSuFNM+7ntteGU8yBm0nmL91zdfPYLF06M5xqaSeuvc+r3bh0VINpNGuYZrMrI7NqY46kD4XvUh7SRdv1Qtmo9ZWHP8AfWzU54kxh7fAsJPqXN8V0ZxCkJ6anfsj+1aOkjtz2m7vGyxAK9GWAwtZbUV3xf3Rq52cTuQ0kwWoHXnp3/4jQ3/cAWv6bRYQcPmfSNozNeLYfF7H6T3xt7bGe6/guXqljS5NjTmpQnKyaduwrqtrNDQhC9I0nrwujNRPDA3fM9jL8gTYu8Bc+C63rBrBT4Y+NnVM+xTsHJp90PmNcFpmqyg6WudMRdtKwkHk9/Vb9XpPQvVrZxDangpgcommR/nPNgD2gN+svLxH72Mp090Vd+f9TbH9NNviaMhSvZhOGzVczYKdu09/zWDi9x4NH/W8hem2km28jTqfTBcJnrJ2wQC7jm5x9yxvF7jy+3cuvUtNR4RRkk7LG5ySEDbnf/EncBwSwygo8Io3Oc4ANAdPObbUzuFh42DRz4kknl2lGkU1fNtuuyJlxBDfJg8p3Nx/6XjycsfPZjlSWr4v34avM6ElSX/InSTH5q+bpJOqxtxDDfKJv8XHif4ALEpJr14QjCKjFWSOdtvNjTSQsjEpNSmqCk1KEIWhJCAxCahUsTeNCEICkikmqtSHdMR/qKT/ACf/AArl+AaZV9EAxjxNCN0Ml3NaOTDe7e69uxdRljdNgZbENt0tIBG0b3EwZAdvBaHqsoKOeef2Q1kr2NYaeJ4DmkEnbeGnIkdTuuvDwsoKhVc43Slpr9u3gjfNPaVjZsL1m0UlhUxyUruLrdLH6W9b6qy5GCVxv/RKh54/mxL/AAcFzrWZQ0sFY1tM1sZcwOniaAGsdc2Nhk0kcO48c9RIvvW2nyfRqQVWk3G/v3mYuo07PM7TUau8Kfujkiv5M0n3iV4X6sKH4M9SO8wn7gXLaeunjyimli82V7PsK98WkuJN3VlR4zvd+8Ss/wAJi1pWv2+35k24fxN/9q+l+MTeiL+S1XTfR2mw50EcL5JHyh7n7RZZjRYCwAG8k/NWO/KvE/jk3z14qiqqauVplkfPK7ZjjLnFxzPVaOy7vWt1CjiYzTqVE48PaMZShbJHVNVtB0VAZiOtVPc/t2G9Ro9IcflLmekeIeya2pnvcSPdsH9RvVZ9VoXW8flbh+EvbGbGGJsER47RAja7vub+C4zQ0cs8rIIGF8kh2WsH2nkAM78Fz8nvnJ1cQ9G7LsWfp3oyqqyUT64bQTVMzIIG7ckm4cAOLnHgBzXYcEwmlwmlc97wCAHVNSci88hxtc2De3iSp0dwOmwqmfJI5u3baqag5Cw+C3k0cuJXOdMdKZK+Szbx00RPRR7i8/pH9vZwHisJzlj583B2prV8fe5d73IqSpK71I0t0llr5b5xwRk9DFz4bb+bj6hlzJwS2vDtFC3D6murAWWieaWE3B2iLNkd4kWHitSXpUHTs4U9I5d/z63xNMk73e8pNSmt5gUhJNANNSmhCk1KaoGhCEIYdNJCxOgtNQqQg0ITugOsap8VqJad1M9jjFTe9VHwRc3MJvmSL3y3A2Nsr+jSnV/FUvdUUjhSzklzm59FI7yss2OPMX7rm6yuBtjoMHjkDbiGA1EgG97izpH+kkrm1DrDxKKV0j3tnbIdp0Lm2Y3sjIzbllx8TmvBhCtVr1KuHtGz8fvq9xvbiopSMbi+jWIUpPsinfs5kzNBkjPaXNvbxsVhwQd2a69hmszD5ABO2SldxJaZI/Asz9LQst0eCV+dqSpcd5HRdL426wXV+PrUv89J9q0+fmYc2n0WcMTXZ6jV1hT77MckV/Jmk++SvC/VdQ/BmqR3uhP3AtkeVcM97XavRsjoyOULZtXWH9PiUNxdtPtTv+Tk367mnwXu0y0NpsPpmzNmlke97Y2MIZY3BJJsOTT6lnNUWH7MNRVOGcrmxM81guSO8ut8lXEYyDwsqkHk8l2v6XJGDU7MetGaSV1HQQNMkkzjL0Y3mwLWeGbzc5DZvwWZ0V0egwyndLK5vSlu1U1BNmxtGZY0nc0c+O/kBlvYEMc81bIRtloZ0jrAQRNFy0E7hfacT29gXLdOdLnVrzBAS2ljOW8GocNz3DyeQ8TnYDzaCniIRw9PKC6T4t5/RLquzbK0W5PXcfPTXSx9dJ0cd2UsZuxu4ykf2j/4Dh37s7oFoXtbFXWs6uTqeAjfykeOXIeK07Aqylp39NPC6qeyxhguGxX8uQ5k28myys+nuJOnZNttY1huKdrbRvHFrr3JuON8t4svTq0KvN8zh1sri/Jdr1fcjSpK+1LM2PWric7WxUwYWwSWe+bK0rmm4jHK2Ts9+XI35su06ZQR1WFTPI9zGKmMkZtLRteBtceJXFVjyVNOhspWaefX1/LuLWT2rjTSVL0TSCalNCFISVIATUpoQpCSFQYhNJCxOgaaSEIWgqUyqtSH6KwZjXUNM1wDmuhhDmkXDgYwCCOS5jpVq7qIHOloWmohzPQjOaIeSBvkHdn2Het7rJXswN0kbixzKQOY8EhzSIQQQeBWo6P6z3tAjxCMy2sOnjDQ/vezIHvbbuXzuEWIi51KOavZrj76nfuudE9nJM505paS1wLXNyc0ggtPIg7kiAd+a7mKjBcUAuaepdawDgGztHZez2+CxVdqwoH3MEk1OTubtCRg8HDa+su+HKtNO1ROL99/wNfNPdmcspsQqIhaKaWIDcGTSMt80r3M0nxNu6sqPGZzvtW1VOqqoHvVVFJy2o3x/YXLxP1Z4mNxp3d0z/4sC3fisLPPaT7dfirmOxNbjW8TxqrqQ0VMz5gy5YHEdW+85dy7dozQikoKeJ1m9GwOlN7AOd13m/LaJXMva2xTlD9N/wCqz0+jekU9M2klqacQgBp/OP23tG5r3CO7h9vG65Ma6NaEYQqRSTz+iS7fEzhtRbbTMNp5piatxpqZxFMw9Z241JHHzBwHHfyWmrodNqrlNumqmN5hsLn+suH2LN0OrbDoyDK6aoPFpeGN9DAD61thjsHQgoQd11J/Oxi6c5O7OSxRue4MY1z3uyaxrS5zuwAZlb7orq+lc5s2IDo4xYinvd8nY+2TW9m89i21+JYNhjSxroID8KOMB0rvODbuPeVqGkGsiWQOjoWGBpuOndsmU+a3MN78/BYPE4nE/poQ2U/9n8vpdjYjHOTub7pX/V1b/gz/ALhXBl23EnE4JK5xJLqRxc4m5JMOZJO8riSvJK2ac1wkK+qGmpTXqmgtJJCApNSmhCk1KaAaEkISxiU0kKHQNNJCAaEIVRDvGJZ4DJbP+h/8K5poFovHiUs3TSOjjpwwuDdkPeX7VgCQbDqnhyW76t9IIaukbRTEdNAzozGbWmhAs0gHfZtmkdl+KxGI6J4jhk76rBnOkjcCHQWD5Gt37Ba73wDgR1u/MnwqM3S52g3szbum9PHddG6SvaW41nTrRtmHVDI43mSKZu2za2dtljYtNhY8M7Df2Z46hx+ugsIKmaMDczpXFg+Sbj1L5YxiVTUzulqnOfKLMILQ3owNzA2w2bXOXaV4l69OEubjGrm7Z8GaXa90bZTaw8XZvlZN58Mf3A1e5mtDER7qKmd+zlH31oyaweDw71gvC3kXblxN99tOu/QU/wDq/iXzfrQxA+5jpm/s5T99aMmp+Cw/8ENuXE2qp0/xZ+6ZsXYyGL7wJWHrcarZ7iepmkB3sMr9g/JBt6ljkLbCjTh0YpdiS+pi5Peyggqoo3PcGMa573ZNY1pc53cBmVv2ier6V7mzYgNiMWcKa4L5Ox/BrezeexK2IhRW1Ufq+xakjFyyRuGJZYHJfK1IR/oria6lrN0ijjgNDE4GWbZ6ax96jyNj2uyFuV+y/LFxclwkqTk10nddnv1NlZ/qsNCEL0jSNNJCEGmkhAUmpTQhSEkIDEKlCah0FJpIQg00kID6wTPje2SNzo3sO0x7SWuaeYI3Louj2tF7A2PEYzIBl7IYAH972ZA94t3Lmya01sPTrK1RX8/fwCk1od2bV4HioAJp6lxyDXAMnb3B1njwWNrtWGHPzhdNT/qh4e364LvWuNkDispQ6Q18FuhqpmAbm9K5zB8l1x6lw/l9Wn/hqtLg9PT4Ge2nqjdKjVRMPequN/IOgcz1hzl4pNV+JD3MlM79rKD64146bWNizPdSMm8+Bn3Nle5mtPEB7qKmd+zmb98q25Qjvi/h8kT9vrPj7WeKf3H0zvwr6RasMSO99Mz9rKT6mL7e2rW/F4P9T8S+T9aOIn3MdM39lKT/ALit8e/4j9vrPfT6qpjbpatjOYbC5/rLh9izdDq0w5mczpqg8QZNhv1AD61o1TrAxZ+6ZsXYyGL7XAlYitxqtnv09TNKDvaZX7Hzb29SnMY2fSqpdi+i8xtQW47FJiWDYY0sa6CA/CjjAdK7zg27j3ladpDrJmlBjoGGBpyM7tkykfqtzDe/PwXPgOSa2UuTaMJbU7yfX6etySqvRZFve5xLnEuc4kucSSXE7ySd5QpTXoGotNQqQg0IQgGmpTQg00kICkJIQhiE1Kah0FKlCaApNJCEGmkhAUmpTQhSahUhBoQhAUhSqQDTUpoQaaSFSFJqU0BaahUhBoQhANNSmhBoSQgMShJNQ6BpqU0IUqUJoCk0kIQaaSEA00k0IUmoVIQaEIQFIUqkA01KaEGmkhUhSalNAWmoVIQaEIQDQhCEMOEwmhQ6QCEIQxGmhCApNCEICYQhAATCEIQaEIQFJoQhATQhAAVBCEIATTQqUEIQhiNNCEBSaEIQEIQgP//Z;" vertex="1" parent="1">
          <mxGeometry x="1080" y="560" width="40" height="40" as="geometry" />
        </mxCell>
        <mxCell id="br1NFhTCXlxhO1oLuqVo-53" value="" style="shape=image;verticalLabelPosition=bottom;labelBackgroundColor=default;verticalAlign=top;aspect=fixed;imageAspect=0;image=data:image/jpeg,/9j/4AAQSkZJRgABAQAAAQABAAD/2wCEAAkGBw0PDg8ODRASDRANGA8QDQ0YDg8REQ0VGBUXFxYRFRgYHSkgGBolGxUVIT0hJSkrMi4uFx8zRDMsNygtLisBCgoKDg0OGhAQGy0lHSUrLTAtLSsvLS0rLSsrLS0tListLS0tLS0rKy0tLystLS0tLS0tKy4tKystLS0tLS0rLf/AABEIAOEA4QMBIgACEQEDEQH/xAAcAAADAAMBAQEAAAAAAAAAAAAAAQIFBgcEAwj/xABMEAABAwICBgUEDQgKAwAAAAABAAIDBBEFIQYHEjFBURMiYXGBUnKRoRQXMjNCVIKSk6KxwtIWI1Nig7LB0SQ1Q2NzdKOzw+EV4vD/xAAaAQEBAAMBAQAAAAAAAAAAAAAAAQIDBAUG/8QANxEAAgECAwMKBAYCAwAAAAAAAAECAxEEITESQVEFEzJhcYGRsdHwocHh8RQVIiNS0jNCYrLi/9oADAMBAAIRAxEAPwDAIQhfbnnjTUpoQtJJCApNSmhCkJJoBpqU0IUmpTVBSalNCFISTQDTUpoQaaSEBSpQmhCkIQgKQkmqAQhCEMSmoVLE3jQhCAaaSEINNJCApNSmhCkJJoBpqU0IUmpTVBSalNCFISTQDTUpoQaaSEBSpQmhCk0kICkkJIDEJqU1DeWmoVIQaEIQDTQ0EkAAkmwAAuSTuAHErdcA1d1EwElW72Kw5iOwdM4do3M8bnsC1Va1OlHam7e93EsYuWhpS+9LSSym0Mb5jyZG55+qF2Kk0WwmiZtvjj6u+eZzXW7ev1WnuAXzqtN8KgGyyTpdncyKMkeByb61wfmTm7Uabl76r+Zs5m3Sdjm9PojikmbaSQecWR/vkL3R6A4od8bGdhmZ9262So1nwD3qmlf5z2M+zaXifrPl+DSsb3zud90Kutj5dGml2v1kibNLizHe15iX9z9Mfwr5yaA4m3dGx/YJmfessiNZtT8Wi+e9faLWe/4VI091Q4fawpt8ofxj4r1LalxZrU+ieJx+6pJD5uxJ+4SsXUQSRHZlY+I+S5jmH0ELpFNrMpj77BKzzXRyAektWVi0ywmdpD5mgHeySJ4HrFip+MxUOnRv2X/9E5uD0l7+Bx5NdIxKm0bnuRLFTuPw4iWW+TbZ9S0vGcNghN6eriqozutdsje9pyI7QfALso4qNTLZkn1p+f2NcqbW8xapSmuk1lISTQDTUpoQaaSEBSpQmhCkIQgMMmkhQ3lJqU0BaahMoQ6tq40bjigZWzNDpphtQ3GUMZ3EfrOGd+RA538Gk2sR206HDrWFwaogO2u2Npyt+sb35cVuEVK6bC2wMOw6WmbG13BpdCAD3Zrh9XSywyOimYWSMNnsIzB/iO3ivFwlOGKrTqVc2nkt1vn7b1OibcIpI+lZWzTv6SeR8zvKc4uI7BfcOwL4KU17W6xzDVKUICk1KpCH1p4XyPZHGNp8haxjfKJNgFvDNWU9htVMYPECN5APIG4v6FOq3B9uV9a8dWC8cPbIR1neDTb5XYvZpnpnUQVRp6NzQIQBM4sDrvOeyL8hbxJ5LzMRiK06/M0GrpXbdvmnbcu03QhFR2pHw9rKb40z6F34ke1nN8aZ9C78SxX5f4p+kj+hal+X+J+XH9C1TY5R/nHwX9RejwZl/azl+NM+hd+JHtZy/GmfQu/EsT+X2KfpI/oWrb9AcYra3ppKlzTHHssYAxrbvObsxyGz85aq88fRg5ynGy6l/UyiqUnZJmj6TaMy0BjL3tlZLtBrwC2xFrtIPf8AasItv1n4h0lWyAHq07esP132cfqhnpK05elhJznRjKpq/a+FjRUSUmkWhJNdBgNNSmhBppIQFISQhDEJqU1idA00kKkKQUkFVag79SVbKfDop5LlkMEcj7C5s2ME2C8lVQYZi0If1JwBZkzDaWLjs33jzXDwU4j/AFHJ/lP+Fcewh9WJgaLpem4CIPLyBvuG729+S+dwuE51TqRk4yTee7vOmc7WVjccV1Z1DCXUkrJm8GP/ADcg7LjquPb1VrFbo5iEHvtLK0De4M6Ro+Uy49a2Ok1hYjTOMVbC2ZzMnBzXQTeNhb6q2Gi1l0D8pWTQHidkSN9LTf1LsVXHU+lFTXFa/C3/AFNdqb0djk20L24jeOIVLtbdJ8GqB1p4HdkjNj/cAS6HAJNww957PYt/Ur+ZSXTpSXvsQ5lbmjiq+1NC+R7I4xtPkLWMbzcTYD1rpWlzMIpqN74YKV8r7xwhrYnFpIzflyFz32HFYvVZg3STPrXjqwXjh7ZCOs7wabfL7FvWOToSrbLSWl97+/kzB0/1KNzcZHRYThmVnex2Wbw6WV383m/YO5cXllc9znvO055c57uLnE3JPiVuutHGOlnZRsPUpuvL2yOGQ+S0/XPJaQsOTqLjT5yXSnm+zd6+ArSu7LRDQkmvQNQ7rs+h1I2kw2IydQlpqJicrbQ2s+5th8lco0fw/wBlVcFPvD3jb8wdZ/1QV1TTyokZQSRwse99QWwgNY5xDTm8kAZDZBHiF5PKb25U6CfSd35evgb6OSczk2I1jp55Z3b5nOfbybnJvgLDwXnXp/8AGVfxeb6CX+ST8PqGgudDK1ozLjDIAO0kjJeqnFZI58zzqlKFkQtCSaAaalNCDQkhAYlClUsToGmpTQg1SlCpDudA0VuDMjjcAaim6Ha4Mf0ewQe5wI8FougWKQ4bVVMOINNO94YzbLSejLS4lptfJ20DcZZDsWc1T01W2CSR7rU0hPQxEXcXg2dI08G5WtncjhbrbLjOA0FeC2ZrXyR9XpWOAliNr7JI777LrjPcvnZVIUZ1aE84N6rVfbR9m/R9NnJKS1OZawsapq2qY6m67YmbDpdkt6Q7RNhfOwvv7StYW8Yrqzq2EupJWTt4Md+bk7vJPfcLWa3R+vg9+pZm23uEZez5zbj1r18NVoKChTkml15+DsaJqV7tGNQlcbuPJNdmaNZ9qaB8j2Rxt2nyFrGN5uJsB6V2pxiwnDeBFMyw4dNK4/eefAHsXLtBq6mp6+Oaq6rGh4Y+xIjeRYONuFtofKXUpNKsJcLPqYXDfY5j1heNym6kqkYbLcVm7b+q/UsjoopJN3zOJzVBke6SR20+Que9183OJuT6SpDhzXavyhwX9NT/ADR/JZCaGikp3SOjifA9nSF3Rts5mztbW7lmq+VXC21Sa97skTmL/wCxwZNK44ZDgN5CF7Bzmd0OxmOiqxPMwvYWvjNrFzLkHbAO/wBzbuJXQfbDw3+++i/7XI1kcBwaetnEMI7ZJCOrE3yj/LiuHE4OhVbqVMrLW+5eP1NkKklkjrWCaU01bIY6dsri0bT3GPZYwcLm+88u/kV7McxeCjgM05y3MZltSu4MA/8ArLyNbR4RR+Sxm85GSeQj1uNu4AcAFyfSDG5q6czTGwFxFED1Ym8hzPM8fQB5GHwUMRVcoJqmuOr97+HadE6rgs9THudck2DbknZG5vYOxClNfSnCUmpTQFISTQAhNCAw6EIWJvKQpVIBoSQqtSHeaMSRYRH7HbtSx0rTC23un9FcZcSXLiVFiE8MnTQyvjkOZeHuDn3NztH4Vzzvdd5wiVrKGme9wY1sMJc4kANGwMyTuC1nSjV/DVOdPSuFNM+7ntteGU8yBm0nmL91zdfPYLF06M5xqaSeuvc+r3bh0VINpNGuYZrMrI7NqY46kD4XvUh7SRdv1Qtmo9ZWHP8AfWzU54kxh7fAsJPqXN8V0ZxCkJ6anfsj+1aOkjtz2m7vGyxAK9GWAwtZbUV3xf3Rq52cTuQ0kwWoHXnp3/4jQ3/cAWv6bRYQcPmfSNozNeLYfF7H6T3xt7bGe6/guXqljS5NjTmpQnKyaduwrqtrNDQhC9I0nrwujNRPDA3fM9jL8gTYu8Bc+C63rBrBT4Y+NnVM+xTsHJp90PmNcFpmqyg6WudMRdtKwkHk9/Vb9XpPQvVrZxDangpgcommR/nPNgD2gN+svLxH72Mp090Vd+f9TbH9NNviaMhSvZhOGzVczYKdu09/zWDi9x4NH/W8hem2km28jTqfTBcJnrJ2wQC7jm5x9yxvF7jy+3cuvUtNR4RRkk7LG5ySEDbnf/EncBwSwygo8Io3Oc4ANAdPObbUzuFh42DRz4kknl2lGkU1fNtuuyJlxBDfJg8p3Nx/6XjycsfPZjlSWr4v34avM6ElSX/InSTH5q+bpJOqxtxDDfKJv8XHif4ALEpJr14QjCKjFWSOdtvNjTSQsjEpNSmqCk1KEIWhJCAxCahUsTeNCEICkikmqtSHdMR/qKT/ACf/AArl+AaZV9EAxjxNCN0Ml3NaOTDe7e69uxdRljdNgZbENt0tIBG0b3EwZAdvBaHqsoKOeef2Q1kr2NYaeJ4DmkEnbeGnIkdTuuvDwsoKhVc43Slpr9u3gjfNPaVjZsL1m0UlhUxyUruLrdLH6W9b6qy5GCVxv/RKh54/mxL/AAcFzrWZQ0sFY1tM1sZcwOniaAGsdc2Nhk0kcO48c9RIvvW2nyfRqQVWk3G/v3mYuo07PM7TUau8Kfujkiv5M0n3iV4X6sKH4M9SO8wn7gXLaeunjyimli82V7PsK98WkuJN3VlR4zvd+8Ss/wAJi1pWv2+35k24fxN/9q+l+MTeiL+S1XTfR2mw50EcL5JHyh7n7RZZjRYCwAG8k/NWO/KvE/jk3z14qiqqauVplkfPK7ZjjLnFxzPVaOy7vWt1CjiYzTqVE48PaMZShbJHVNVtB0VAZiOtVPc/t2G9Ro9IcflLmekeIeya2pnvcSPdsH9RvVZ9VoXW8flbh+EvbGbGGJsER47RAja7vub+C4zQ0cs8rIIGF8kh2WsH2nkAM78Fz8nvnJ1cQ9G7LsWfp3oyqqyUT64bQTVMzIIG7ckm4cAOLnHgBzXYcEwmlwmlc97wCAHVNSci88hxtc2De3iSp0dwOmwqmfJI5u3baqag5Cw+C3k0cuJXOdMdKZK+Szbx00RPRR7i8/pH9vZwHisJzlj583B2prV8fe5d73IqSpK71I0t0llr5b5xwRk9DFz4bb+bj6hlzJwS2vDtFC3D6murAWWieaWE3B2iLNkd4kWHitSXpUHTs4U9I5d/z63xNMk73e8pNSmt5gUhJNANNSmhCk1KaoGhCEIYdNJCxOgtNQqQg0ITugOsap8VqJad1M9jjFTe9VHwRc3MJvmSL3y3A2Nsr+jSnV/FUvdUUjhSzklzm59FI7yss2OPMX7rm6yuBtjoMHjkDbiGA1EgG97izpH+kkrm1DrDxKKV0j3tnbIdp0Lm2Y3sjIzbllx8TmvBhCtVr1KuHtGz8fvq9xvbiopSMbi+jWIUpPsinfs5kzNBkjPaXNvbxsVhwQd2a69hmszD5ABO2SldxJaZI/Asz9LQst0eCV+dqSpcd5HRdL426wXV+PrUv89J9q0+fmYc2n0WcMTXZ6jV1hT77MckV/Jmk++SvC/VdQ/BmqR3uhP3AtkeVcM97XavRsjoyOULZtXWH9PiUNxdtPtTv+Tk367mnwXu0y0NpsPpmzNmlke97Y2MIZY3BJJsOTT6lnNUWH7MNRVOGcrmxM81guSO8ut8lXEYyDwsqkHk8l2v6XJGDU7MetGaSV1HQQNMkkzjL0Y3mwLWeGbzc5DZvwWZ0V0egwyndLK5vSlu1U1BNmxtGZY0nc0c+O/kBlvYEMc81bIRtloZ0jrAQRNFy0E7hfacT29gXLdOdLnVrzBAS2ljOW8GocNz3DyeQ8TnYDzaCniIRw9PKC6T4t5/RLquzbK0W5PXcfPTXSx9dJ0cd2UsZuxu4ykf2j/4Dh37s7oFoXtbFXWs6uTqeAjfykeOXIeK07Aqylp39NPC6qeyxhguGxX8uQ5k28myys+nuJOnZNttY1huKdrbRvHFrr3JuON8t4svTq0KvN8zh1sri/Jdr1fcjSpK+1LM2PWric7WxUwYWwSWe+bK0rmm4jHK2Ts9+XI35su06ZQR1WFTPI9zGKmMkZtLRteBtceJXFVjyVNOhspWaefX1/LuLWT2rjTSVL0TSCalNCFISVIATUpoQpCSFQYhNJCxOgaaSEIWgqUyqtSH6KwZjXUNM1wDmuhhDmkXDgYwCCOS5jpVq7qIHOloWmohzPQjOaIeSBvkHdn2Het7rJXswN0kbixzKQOY8EhzSIQQQeBWo6P6z3tAjxCMy2sOnjDQ/vezIHvbbuXzuEWIi51KOavZrj76nfuudE9nJM505paS1wLXNyc0ggtPIg7kiAd+a7mKjBcUAuaepdawDgGztHZez2+CxVdqwoH3MEk1OTubtCRg8HDa+su+HKtNO1ROL99/wNfNPdmcspsQqIhaKaWIDcGTSMt80r3M0nxNu6sqPGZzvtW1VOqqoHvVVFJy2o3x/YXLxP1Z4mNxp3d0z/4sC3fisLPPaT7dfirmOxNbjW8TxqrqQ0VMz5gy5YHEdW+85dy7dozQikoKeJ1m9GwOlN7AOd13m/LaJXMva2xTlD9N/wCqz0+jekU9M2klqacQgBp/OP23tG5r3CO7h9vG65Ma6NaEYQqRSTz+iS7fEzhtRbbTMNp5piatxpqZxFMw9Z241JHHzBwHHfyWmrodNqrlNumqmN5hsLn+suH2LN0OrbDoyDK6aoPFpeGN9DAD61thjsHQgoQd11J/Oxi6c5O7OSxRue4MY1z3uyaxrS5zuwAZlb7orq+lc5s2IDo4xYinvd8nY+2TW9m89i21+JYNhjSxroID8KOMB0rvODbuPeVqGkGsiWQOjoWGBpuOndsmU+a3MN78/BYPE4nE/poQ2U/9n8vpdjYjHOTub7pX/V1b/gz/ALhXBl23EnE4JK5xJLqRxc4m5JMOZJO8riSvJK2ac1wkK+qGmpTXqmgtJJCApNSmhCk1KaAaEkISxiU0kKHQNNJCAaEIVRDvGJZ4DJbP+h/8K5poFovHiUs3TSOjjpwwuDdkPeX7VgCQbDqnhyW76t9IIaukbRTEdNAzozGbWmhAs0gHfZtmkdl+KxGI6J4jhk76rBnOkjcCHQWD5Gt37Ba73wDgR1u/MnwqM3S52g3szbum9PHddG6SvaW41nTrRtmHVDI43mSKZu2za2dtljYtNhY8M7Df2Z46hx+ugsIKmaMDczpXFg+Sbj1L5YxiVTUzulqnOfKLMILQ3owNzA2w2bXOXaV4l69OEubjGrm7Z8GaXa90bZTaw8XZvlZN58Mf3A1e5mtDER7qKmd+zlH31oyaweDw71gvC3kXblxN99tOu/QU/wDq/iXzfrQxA+5jpm/s5T99aMmp+Cw/8ENuXE2qp0/xZ+6ZsXYyGL7wJWHrcarZ7iepmkB3sMr9g/JBt6ljkLbCjTh0YpdiS+pi5Peyggqoo3PcGMa573ZNY1pc53cBmVv2ier6V7mzYgNiMWcKa4L5Ox/BrezeexK2IhRW1Ufq+xakjFyyRuGJZYHJfK1IR/oria6lrN0ijjgNDE4GWbZ6ax96jyNj2uyFuV+y/LFxclwkqTk10nddnv1NlZ/qsNCEL0jSNNJCEGmkhAUmpTQhSEkIDEKlCah0FJpIQg00kID6wTPje2SNzo3sO0x7SWuaeYI3Louj2tF7A2PEYzIBl7IYAH972ZA94t3Lmya01sPTrK1RX8/fwCk1od2bV4HioAJp6lxyDXAMnb3B1njwWNrtWGHPzhdNT/qh4e364LvWuNkDispQ6Q18FuhqpmAbm9K5zB8l1x6lw/l9Wn/hqtLg9PT4Ge2nqjdKjVRMPequN/IOgcz1hzl4pNV+JD3MlM79rKD64146bWNizPdSMm8+Bn3Nle5mtPEB7qKmd+zmb98q25Qjvi/h8kT9vrPj7WeKf3H0zvwr6RasMSO99Mz9rKT6mL7e2rW/F4P9T8S+T9aOIn3MdM39lKT/ALit8e/4j9vrPfT6qpjbpatjOYbC5/rLh9izdDq0w5mczpqg8QZNhv1AD61o1TrAxZ+6ZsXYyGL7XAlYitxqtnv09TNKDvaZX7Hzb29SnMY2fSqpdi+i8xtQW47FJiWDYY0sa6CA/CjjAdK7zg27j3ladpDrJmlBjoGGBpyM7tkykfqtzDe/PwXPgOSa2UuTaMJbU7yfX6etySqvRZFve5xLnEuc4kucSSXE7ySd5QpTXoGotNQqQg0IQgGmpTQg00kICkJIQhiE1Kah0FKlCaApNJCEGmkhAUmpTQhSahUhBoQhAUhSqQDTUpoQaaSFSFJqU0BaahUhBoQhANNSmhBoSQgMShJNQ6BpqU0IUqUJoCk0kIQaaSEA00k0IUmoVIQaEIQFIUqkA01KaEGmkhUhSalNAWmoVIQaEIQDQhCEMOEwmhQ6QCEIQxGmhCApNCEICYQhAATCEIQaEIQFJoQhATQhAAVBCEIATTQqUEIQhiNNCEBSaEIQEIQgP//Z;" vertex="1" parent="1">
          <mxGeometry x="1140" y="560" width="40" height="40" as="geometry" />
        </mxCell>
        <mxCell id="br1NFhTCXlxhO1oLuqVo-54" value="" style="shape=image;verticalLabelPosition=bottom;labelBackgroundColor=default;verticalAlign=top;aspect=fixed;imageAspect=0;image=data:image/jpeg,/9j/4AAQSkZJRgABAQAAAQABAAD/2wCEAAkGBw0PDg8ODRASDRANGA8QDQ0YDg8REQ0VGBUXFxYRFRgYHSkgGBolGxUVIT0hJSkrMi4uFx8zRDMsNygtLisBCgoKDg0OGhAQGy0lHSUrLTAtLSsvLS0rLSsrLS0tListLS0tLS0rKy0tLystLS0tLS0tKy4tKystLS0tLS0rLf/AABEIAOEA4QMBIgACEQEDEQH/xAAcAAADAAMBAQEAAAAAAAAAAAAAAQIFBgcEAwj/xABMEAABAwICBgUEDQgKAwAAAAABAAIDBBEFIQYHEjFBURMiYXGBUnKRoRQXMjNCVIKSk6KxwtIWI1Nig7LB0SQ1Q2NzdKOzw+EV4vD/xAAaAQEBAAMBAQAAAAAAAAAAAAAAAQIDBAUG/8QANxEAAgECAwMKBAYCAwAAAAAAAAECAxEEITESQVEFEzJhcYGRsdHwocHh8RQVIiNS0jNCYrLi/9oADAMBAAIRAxEAPwDAIQhfbnnjTUpoQtJJCApNSmhCkJJoBpqU0IUmpTVBSalNCFISTQDTUpoQaaSEBSpQmhCkIQgKQkmqAQhCEMSmoVLE3jQhCAaaSEINNJCApNSmhCkJJoBpqU0IUmpTVBSalNCFISTQDTUpoQaaSEBSpQmhCk0kICkkJIDEJqU1DeWmoVIQaEIQDTQ0EkAAkmwAAuSTuAHErdcA1d1EwElW72Kw5iOwdM4do3M8bnsC1Va1OlHam7e93EsYuWhpS+9LSSym0Mb5jyZG55+qF2Kk0WwmiZtvjj6u+eZzXW7ev1WnuAXzqtN8KgGyyTpdncyKMkeByb61wfmTm7Uabl76r+Zs5m3Sdjm9PojikmbaSQecWR/vkL3R6A4od8bGdhmZ9262So1nwD3qmlf5z2M+zaXifrPl+DSsb3zud90Kutj5dGml2v1kibNLizHe15iX9z9Mfwr5yaA4m3dGx/YJmfessiNZtT8Wi+e9faLWe/4VI091Q4fawpt8ofxj4r1LalxZrU+ieJx+6pJD5uxJ+4SsXUQSRHZlY+I+S5jmH0ELpFNrMpj77BKzzXRyAektWVi0ywmdpD5mgHeySJ4HrFip+MxUOnRv2X/9E5uD0l7+Bx5NdIxKm0bnuRLFTuPw4iWW+TbZ9S0vGcNghN6eriqozutdsje9pyI7QfALso4qNTLZkn1p+f2NcqbW8xapSmuk1lISTQDTUpoQaaSEBSpQmhCkIQgMMmkhQ3lJqU0BaahMoQ6tq40bjigZWzNDpphtQ3GUMZ3EfrOGd+RA538Gk2sR206HDrWFwaogO2u2Npyt+sb35cVuEVK6bC2wMOw6WmbG13BpdCAD3Zrh9XSywyOimYWSMNnsIzB/iO3ivFwlOGKrTqVc2nkt1vn7b1OibcIpI+lZWzTv6SeR8zvKc4uI7BfcOwL4KU17W6xzDVKUICk1KpCH1p4XyPZHGNp8haxjfKJNgFvDNWU9htVMYPECN5APIG4v6FOq3B9uV9a8dWC8cPbIR1neDTb5XYvZpnpnUQVRp6NzQIQBM4sDrvOeyL8hbxJ5LzMRiK06/M0GrpXbdvmnbcu03QhFR2pHw9rKb40z6F34ke1nN8aZ9C78SxX5f4p+kj+hal+X+J+XH9C1TY5R/nHwX9RejwZl/azl+NM+hd+JHtZy/GmfQu/EsT+X2KfpI/oWrb9AcYra3ppKlzTHHssYAxrbvObsxyGz85aq88fRg5ynGy6l/UyiqUnZJmj6TaMy0BjL3tlZLtBrwC2xFrtIPf8AasItv1n4h0lWyAHq07esP132cfqhnpK05elhJznRjKpq/a+FjRUSUmkWhJNdBgNNSmhBppIQFISQhDEJqU1idA00kKkKQUkFVag79SVbKfDop5LlkMEcj7C5s2ME2C8lVQYZi0If1JwBZkzDaWLjs33jzXDwU4j/AFHJ/lP+Fcewh9WJgaLpem4CIPLyBvuG729+S+dwuE51TqRk4yTee7vOmc7WVjccV1Z1DCXUkrJm8GP/ADcg7LjquPb1VrFbo5iEHvtLK0De4M6Ro+Uy49a2Ok1hYjTOMVbC2ZzMnBzXQTeNhb6q2Gi1l0D8pWTQHidkSN9LTf1LsVXHU+lFTXFa/C3/AFNdqb0djk20L24jeOIVLtbdJ8GqB1p4HdkjNj/cAS6HAJNww957PYt/Ur+ZSXTpSXvsQ5lbmjiq+1NC+R7I4xtPkLWMbzcTYD1rpWlzMIpqN74YKV8r7xwhrYnFpIzflyFz32HFYvVZg3STPrXjqwXjh7ZCOs7wabfL7FvWOToSrbLSWl97+/kzB0/1KNzcZHRYThmVnex2Wbw6WV383m/YO5cXllc9znvO055c57uLnE3JPiVuutHGOlnZRsPUpuvL2yOGQ+S0/XPJaQsOTqLjT5yXSnm+zd6+ArSu7LRDQkmvQNQ7rs+h1I2kw2IydQlpqJicrbQ2s+5th8lco0fw/wBlVcFPvD3jb8wdZ/1QV1TTyokZQSRwse99QWwgNY5xDTm8kAZDZBHiF5PKb25U6CfSd35evgb6OSczk2I1jp55Z3b5nOfbybnJvgLDwXnXp/8AGVfxeb6CX+ST8PqGgudDK1ozLjDIAO0kjJeqnFZI58zzqlKFkQtCSaAaalNCDQkhAYlClUsToGmpTQg1SlCpDudA0VuDMjjcAaim6Ha4Mf0ewQe5wI8FougWKQ4bVVMOINNO94YzbLSejLS4lptfJ20DcZZDsWc1T01W2CSR7rU0hPQxEXcXg2dI08G5WtncjhbrbLjOA0FeC2ZrXyR9XpWOAliNr7JI777LrjPcvnZVIUZ1aE84N6rVfbR9m/R9NnJKS1OZawsapq2qY6m67YmbDpdkt6Q7RNhfOwvv7StYW8Yrqzq2EupJWTt4Md+bk7vJPfcLWa3R+vg9+pZm23uEZez5zbj1r18NVoKChTkml15+DsaJqV7tGNQlcbuPJNdmaNZ9qaB8j2Rxt2nyFrGN5uJsB6V2pxiwnDeBFMyw4dNK4/eefAHsXLtBq6mp6+Oaq6rGh4Y+xIjeRYONuFtofKXUpNKsJcLPqYXDfY5j1heNym6kqkYbLcVm7b+q/UsjoopJN3zOJzVBke6SR20+Que9183OJuT6SpDhzXavyhwX9NT/ADR/JZCaGikp3SOjifA9nSF3Rts5mztbW7lmq+VXC21Sa97skTmL/wCxwZNK44ZDgN5CF7Bzmd0OxmOiqxPMwvYWvjNrFzLkHbAO/wBzbuJXQfbDw3+++i/7XI1kcBwaetnEMI7ZJCOrE3yj/LiuHE4OhVbqVMrLW+5eP1NkKklkjrWCaU01bIY6dsri0bT3GPZYwcLm+88u/kV7McxeCjgM05y3MZltSu4MA/8ArLyNbR4RR+Sxm85GSeQj1uNu4AcAFyfSDG5q6czTGwFxFED1Ym8hzPM8fQB5GHwUMRVcoJqmuOr97+HadE6rgs9THudck2DbknZG5vYOxClNfSnCUmpTQFISTQAhNCAw6EIWJvKQpVIBoSQqtSHeaMSRYRH7HbtSx0rTC23un9FcZcSXLiVFiE8MnTQyvjkOZeHuDn3NztH4Vzzvdd5wiVrKGme9wY1sMJc4kANGwMyTuC1nSjV/DVOdPSuFNM+7ntteGU8yBm0nmL91zdfPYLF06M5xqaSeuvc+r3bh0VINpNGuYZrMrI7NqY46kD4XvUh7SRdv1Qtmo9ZWHP8AfWzU54kxh7fAsJPqXN8V0ZxCkJ6anfsj+1aOkjtz2m7vGyxAK9GWAwtZbUV3xf3Rq52cTuQ0kwWoHXnp3/4jQ3/cAWv6bRYQcPmfSNozNeLYfF7H6T3xt7bGe6/guXqljS5NjTmpQnKyaduwrqtrNDQhC9I0nrwujNRPDA3fM9jL8gTYu8Bc+C63rBrBT4Y+NnVM+xTsHJp90PmNcFpmqyg6WudMRdtKwkHk9/Vb9XpPQvVrZxDangpgcommR/nPNgD2gN+svLxH72Mp090Vd+f9TbH9NNviaMhSvZhOGzVczYKdu09/zWDi9x4NH/W8hem2km28jTqfTBcJnrJ2wQC7jm5x9yxvF7jy+3cuvUtNR4RRkk7LG5ySEDbnf/EncBwSwygo8Io3Oc4ANAdPObbUzuFh42DRz4kknl2lGkU1fNtuuyJlxBDfJg8p3Nx/6XjycsfPZjlSWr4v34avM6ElSX/InSTH5q+bpJOqxtxDDfKJv8XHif4ALEpJr14QjCKjFWSOdtvNjTSQsjEpNSmqCk1KEIWhJCAxCahUsTeNCEICkikmqtSHdMR/qKT/ACf/AArl+AaZV9EAxjxNCN0Ml3NaOTDe7e69uxdRljdNgZbENt0tIBG0b3EwZAdvBaHqsoKOeef2Q1kr2NYaeJ4DmkEnbeGnIkdTuuvDwsoKhVc43Slpr9u3gjfNPaVjZsL1m0UlhUxyUruLrdLH6W9b6qy5GCVxv/RKh54/mxL/AAcFzrWZQ0sFY1tM1sZcwOniaAGsdc2Nhk0kcO48c9RIvvW2nyfRqQVWk3G/v3mYuo07PM7TUau8Kfujkiv5M0n3iV4X6sKH4M9SO8wn7gXLaeunjyimli82V7PsK98WkuJN3VlR4zvd+8Ss/wAJi1pWv2+35k24fxN/9q+l+MTeiL+S1XTfR2mw50EcL5JHyh7n7RZZjRYCwAG8k/NWO/KvE/jk3z14qiqqauVplkfPK7ZjjLnFxzPVaOy7vWt1CjiYzTqVE48PaMZShbJHVNVtB0VAZiOtVPc/t2G9Ro9IcflLmekeIeya2pnvcSPdsH9RvVZ9VoXW8flbh+EvbGbGGJsER47RAja7vub+C4zQ0cs8rIIGF8kh2WsH2nkAM78Fz8nvnJ1cQ9G7LsWfp3oyqqyUT64bQTVMzIIG7ckm4cAOLnHgBzXYcEwmlwmlc97wCAHVNSci88hxtc2De3iSp0dwOmwqmfJI5u3baqag5Cw+C3k0cuJXOdMdKZK+Szbx00RPRR7i8/pH9vZwHisJzlj583B2prV8fe5d73IqSpK71I0t0llr5b5xwRk9DFz4bb+bj6hlzJwS2vDtFC3D6murAWWieaWE3B2iLNkd4kWHitSXpUHTs4U9I5d/z63xNMk73e8pNSmt5gUhJNANNSmhCk1KaoGhCEIYdNJCxOgtNQqQg0ITugOsap8VqJad1M9jjFTe9VHwRc3MJvmSL3y3A2Nsr+jSnV/FUvdUUjhSzklzm59FI7yss2OPMX7rm6yuBtjoMHjkDbiGA1EgG97izpH+kkrm1DrDxKKV0j3tnbIdp0Lm2Y3sjIzbllx8TmvBhCtVr1KuHtGz8fvq9xvbiopSMbi+jWIUpPsinfs5kzNBkjPaXNvbxsVhwQd2a69hmszD5ABO2SldxJaZI/Asz9LQst0eCV+dqSpcd5HRdL426wXV+PrUv89J9q0+fmYc2n0WcMTXZ6jV1hT77MckV/Jmk++SvC/VdQ/BmqR3uhP3AtkeVcM97XavRsjoyOULZtXWH9PiUNxdtPtTv+Tk367mnwXu0y0NpsPpmzNmlke97Y2MIZY3BJJsOTT6lnNUWH7MNRVOGcrmxM81guSO8ut8lXEYyDwsqkHk8l2v6XJGDU7MetGaSV1HQQNMkkzjL0Y3mwLWeGbzc5DZvwWZ0V0egwyndLK5vSlu1U1BNmxtGZY0nc0c+O/kBlvYEMc81bIRtloZ0jrAQRNFy0E7hfacT29gXLdOdLnVrzBAS2ljOW8GocNz3DyeQ8TnYDzaCniIRw9PKC6T4t5/RLquzbK0W5PXcfPTXSx9dJ0cd2UsZuxu4ykf2j/4Dh37s7oFoXtbFXWs6uTqeAjfykeOXIeK07Aqylp39NPC6qeyxhguGxX8uQ5k28myys+nuJOnZNttY1huKdrbRvHFrr3JuON8t4svTq0KvN8zh1sri/Jdr1fcjSpK+1LM2PWric7WxUwYWwSWe+bK0rmm4jHK2Ts9+XI35su06ZQR1WFTPI9zGKmMkZtLRteBtceJXFVjyVNOhspWaefX1/LuLWT2rjTSVL0TSCalNCFISVIATUpoQpCSFQYhNJCxOgaaSEIWgqUyqtSH6KwZjXUNM1wDmuhhDmkXDgYwCCOS5jpVq7qIHOloWmohzPQjOaIeSBvkHdn2Het7rJXswN0kbixzKQOY8EhzSIQQQeBWo6P6z3tAjxCMy2sOnjDQ/vezIHvbbuXzuEWIi51KOavZrj76nfuudE9nJM505paS1wLXNyc0ggtPIg7kiAd+a7mKjBcUAuaepdawDgGztHZez2+CxVdqwoH3MEk1OTubtCRg8HDa+su+HKtNO1ROL99/wNfNPdmcspsQqIhaKaWIDcGTSMt80r3M0nxNu6sqPGZzvtW1VOqqoHvVVFJy2o3x/YXLxP1Z4mNxp3d0z/4sC3fisLPPaT7dfirmOxNbjW8TxqrqQ0VMz5gy5YHEdW+85dy7dozQikoKeJ1m9GwOlN7AOd13m/LaJXMva2xTlD9N/wCqz0+jekU9M2klqacQgBp/OP23tG5r3CO7h9vG65Ma6NaEYQqRSTz+iS7fEzhtRbbTMNp5piatxpqZxFMw9Z241JHHzBwHHfyWmrodNqrlNumqmN5hsLn+suH2LN0OrbDoyDK6aoPFpeGN9DAD61thjsHQgoQd11J/Oxi6c5O7OSxRue4MY1z3uyaxrS5zuwAZlb7orq+lc5s2IDo4xYinvd8nY+2TW9m89i21+JYNhjSxroID8KOMB0rvODbuPeVqGkGsiWQOjoWGBpuOndsmU+a3MN78/BYPE4nE/poQ2U/9n8vpdjYjHOTub7pX/V1b/gz/ALhXBl23EnE4JK5xJLqRxc4m5JMOZJO8riSvJK2ac1wkK+qGmpTXqmgtJJCApNSmhCk1KaAaEkISxiU0kKHQNNJCAaEIVRDvGJZ4DJbP+h/8K5poFovHiUs3TSOjjpwwuDdkPeX7VgCQbDqnhyW76t9IIaukbRTEdNAzozGbWmhAs0gHfZtmkdl+KxGI6J4jhk76rBnOkjcCHQWD5Gt37Ba73wDgR1u/MnwqM3S52g3szbum9PHddG6SvaW41nTrRtmHVDI43mSKZu2za2dtljYtNhY8M7Df2Z46hx+ugsIKmaMDczpXFg+Sbj1L5YxiVTUzulqnOfKLMILQ3owNzA2w2bXOXaV4l69OEubjGrm7Z8GaXa90bZTaw8XZvlZN58Mf3A1e5mtDER7qKmd+zlH31oyaweDw71gvC3kXblxN99tOu/QU/wDq/iXzfrQxA+5jpm/s5T99aMmp+Cw/8ENuXE2qp0/xZ+6ZsXYyGL7wJWHrcarZ7iepmkB3sMr9g/JBt6ljkLbCjTh0YpdiS+pi5Peyggqoo3PcGMa573ZNY1pc53cBmVv2ier6V7mzYgNiMWcKa4L5Ox/BrezeexK2IhRW1Ufq+xakjFyyRuGJZYHJfK1IR/oria6lrN0ijjgNDE4GWbZ6ax96jyNj2uyFuV+y/LFxclwkqTk10nddnv1NlZ/qsNCEL0jSNNJCEGmkhAUmpTQhSEkIDEKlCah0FJpIQg00kID6wTPje2SNzo3sO0x7SWuaeYI3Louj2tF7A2PEYzIBl7IYAH972ZA94t3Lmya01sPTrK1RX8/fwCk1od2bV4HioAJp6lxyDXAMnb3B1njwWNrtWGHPzhdNT/qh4e364LvWuNkDispQ6Q18FuhqpmAbm9K5zB8l1x6lw/l9Wn/hqtLg9PT4Ge2nqjdKjVRMPequN/IOgcz1hzl4pNV+JD3MlM79rKD64146bWNizPdSMm8+Bn3Nle5mtPEB7qKmd+zmb98q25Qjvi/h8kT9vrPj7WeKf3H0zvwr6RasMSO99Mz9rKT6mL7e2rW/F4P9T8S+T9aOIn3MdM39lKT/ALit8e/4j9vrPfT6qpjbpatjOYbC5/rLh9izdDq0w5mczpqg8QZNhv1AD61o1TrAxZ+6ZsXYyGL7XAlYitxqtnv09TNKDvaZX7Hzb29SnMY2fSqpdi+i8xtQW47FJiWDYY0sa6CA/CjjAdK7zg27j3ladpDrJmlBjoGGBpyM7tkykfqtzDe/PwXPgOSa2UuTaMJbU7yfX6etySqvRZFve5xLnEuc4kucSSXE7ySd5QpTXoGotNQqQg0IQgGmpTQg00kICkJIQhiE1Kah0FKlCaApNJCEGmkhAUmpTQhSahUhBoQhAUhSqQDTUpoQaaSFSFJqU0BaahUhBoQhANNSmhBoSQgMShJNQ6BpqU0IUqUJoCk0kIQaaSEA00k0IUmoVIQaEIQFIUqkA01KaEGmkhUhSalNAWmoVIQaEIQDQhCEMOEwmhQ6QCEIQxGmhCApNCEICYQhAATCEIQaEIQFJoQhATQhAAVBCEIATTQqUEIQhiNNCEBSaEIQEIQgP//Z;" vertex="1" parent="1">
          <mxGeometry x="1200" y="560" width="40" height="40" as="geometry" />
        </mxCell>
        <mxCell id="br1NFhTCXlxhO1oLuqVo-55" value="" style="shape=image;verticalLabelPosition=bottom;labelBackgroundColor=default;verticalAlign=top;aspect=fixed;imageAspect=0;image=data:image/jpeg,/9j/4AAQSkZJRgABAQAAAQABAAD/2wCEAAkGBw0PDg8ODRASDRANGA8QDQ0YDg8REQ0VGBUXFxYRFRgYHSkgGBolGxUVIT0hJSkrMi4uFx8zRDMsNygtLisBCgoKDg0OGhAQGy0lHSUrLTAtLSsvLS0rLSsrLS0tListLS0tLS0rKy0tLystLS0tLS0tKy4tKystLS0tLS0rLf/AABEIAOEA4QMBIgACEQEDEQH/xAAcAAADAAMBAQEAAAAAAAAAAAAAAQIFBgcEAwj/xABMEAABAwICBgUEDQgKAwAAAAABAAIDBBEFIQYHEjFBURMiYXGBUnKRoRQXMjNCVIKSk6KxwtIWI1Nig7LB0SQ1Q2NzdKOzw+EV4vD/xAAaAQEBAAMBAQAAAAAAAAAAAAAAAQIDBAUG/8QANxEAAgECAwMKBAYCAwAAAAAAAAECAxEEITESQVEFEzJhcYGRsdHwocHh8RQVIiNS0jNCYrLi/9oADAMBAAIRAxEAPwDAIQhfbnnjTUpoQtJJCApNSmhCkJJoBpqU0IUmpTVBSalNCFISTQDTUpoQaaSEBSpQmhCkIQgKQkmqAQhCEMSmoVLE3jQhCAaaSEINNJCApNSmhCkJJoBpqU0IUmpTVBSalNCFISTQDTUpoQaaSEBSpQmhCk0kICkkJIDEJqU1DeWmoVIQaEIQDTQ0EkAAkmwAAuSTuAHErdcA1d1EwElW72Kw5iOwdM4do3M8bnsC1Va1OlHam7e93EsYuWhpS+9LSSym0Mb5jyZG55+qF2Kk0WwmiZtvjj6u+eZzXW7ev1WnuAXzqtN8KgGyyTpdncyKMkeByb61wfmTm7Uabl76r+Zs5m3Sdjm9PojikmbaSQecWR/vkL3R6A4od8bGdhmZ9262So1nwD3qmlf5z2M+zaXifrPl+DSsb3zud90Kutj5dGml2v1kibNLizHe15iX9z9Mfwr5yaA4m3dGx/YJmfessiNZtT8Wi+e9faLWe/4VI091Q4fawpt8ofxj4r1LalxZrU+ieJx+6pJD5uxJ+4SsXUQSRHZlY+I+S5jmH0ELpFNrMpj77BKzzXRyAektWVi0ywmdpD5mgHeySJ4HrFip+MxUOnRv2X/9E5uD0l7+Bx5NdIxKm0bnuRLFTuPw4iWW+TbZ9S0vGcNghN6eriqozutdsje9pyI7QfALso4qNTLZkn1p+f2NcqbW8xapSmuk1lISTQDTUpoQaaSEBSpQmhCkIQgMMmkhQ3lJqU0BaahMoQ6tq40bjigZWzNDpphtQ3GUMZ3EfrOGd+RA538Gk2sR206HDrWFwaogO2u2Npyt+sb35cVuEVK6bC2wMOw6WmbG13BpdCAD3Zrh9XSywyOimYWSMNnsIzB/iO3ivFwlOGKrTqVc2nkt1vn7b1OibcIpI+lZWzTv6SeR8zvKc4uI7BfcOwL4KU17W6xzDVKUICk1KpCH1p4XyPZHGNp8haxjfKJNgFvDNWU9htVMYPECN5APIG4v6FOq3B9uV9a8dWC8cPbIR1neDTb5XYvZpnpnUQVRp6NzQIQBM4sDrvOeyL8hbxJ5LzMRiK06/M0GrpXbdvmnbcu03QhFR2pHw9rKb40z6F34ke1nN8aZ9C78SxX5f4p+kj+hal+X+J+XH9C1TY5R/nHwX9RejwZl/azl+NM+hd+JHtZy/GmfQu/EsT+X2KfpI/oWrb9AcYra3ppKlzTHHssYAxrbvObsxyGz85aq88fRg5ynGy6l/UyiqUnZJmj6TaMy0BjL3tlZLtBrwC2xFrtIPf8AasItv1n4h0lWyAHq07esP132cfqhnpK05elhJznRjKpq/a+FjRUSUmkWhJNdBgNNSmhBppIQFISQhDEJqU1idA00kKkKQUkFVag79SVbKfDop5LlkMEcj7C5s2ME2C8lVQYZi0If1JwBZkzDaWLjs33jzXDwU4j/AFHJ/lP+Fcewh9WJgaLpem4CIPLyBvuG729+S+dwuE51TqRk4yTee7vOmc7WVjccV1Z1DCXUkrJm8GP/ADcg7LjquPb1VrFbo5iEHvtLK0De4M6Ro+Uy49a2Ok1hYjTOMVbC2ZzMnBzXQTeNhb6q2Gi1l0D8pWTQHidkSN9LTf1LsVXHU+lFTXFa/C3/AFNdqb0djk20L24jeOIVLtbdJ8GqB1p4HdkjNj/cAS6HAJNww957PYt/Ur+ZSXTpSXvsQ5lbmjiq+1NC+R7I4xtPkLWMbzcTYD1rpWlzMIpqN74YKV8r7xwhrYnFpIzflyFz32HFYvVZg3STPrXjqwXjh7ZCOs7wabfL7FvWOToSrbLSWl97+/kzB0/1KNzcZHRYThmVnex2Wbw6WV383m/YO5cXllc9znvO055c57uLnE3JPiVuutHGOlnZRsPUpuvL2yOGQ+S0/XPJaQsOTqLjT5yXSnm+zd6+ArSu7LRDQkmvQNQ7rs+h1I2kw2IydQlpqJicrbQ2s+5th8lco0fw/wBlVcFPvD3jb8wdZ/1QV1TTyokZQSRwse99QWwgNY5xDTm8kAZDZBHiF5PKb25U6CfSd35evgb6OSczk2I1jp55Z3b5nOfbybnJvgLDwXnXp/8AGVfxeb6CX+ST8PqGgudDK1ozLjDIAO0kjJeqnFZI58zzqlKFkQtCSaAaalNCDQkhAYlClUsToGmpTQg1SlCpDudA0VuDMjjcAaim6Ha4Mf0ewQe5wI8FougWKQ4bVVMOINNO94YzbLSejLS4lptfJ20DcZZDsWc1T01W2CSR7rU0hPQxEXcXg2dI08G5WtncjhbrbLjOA0FeC2ZrXyR9XpWOAliNr7JI777LrjPcvnZVIUZ1aE84N6rVfbR9m/R9NnJKS1OZawsapq2qY6m67YmbDpdkt6Q7RNhfOwvv7StYW8Yrqzq2EupJWTt4Md+bk7vJPfcLWa3R+vg9+pZm23uEZez5zbj1r18NVoKChTkml15+DsaJqV7tGNQlcbuPJNdmaNZ9qaB8j2Rxt2nyFrGN5uJsB6V2pxiwnDeBFMyw4dNK4/eefAHsXLtBq6mp6+Oaq6rGh4Y+xIjeRYONuFtofKXUpNKsJcLPqYXDfY5j1heNym6kqkYbLcVm7b+q/UsjoopJN3zOJzVBke6SR20+Que9183OJuT6SpDhzXavyhwX9NT/ADR/JZCaGikp3SOjifA9nSF3Rts5mztbW7lmq+VXC21Sa97skTmL/wCxwZNK44ZDgN5CF7Bzmd0OxmOiqxPMwvYWvjNrFzLkHbAO/wBzbuJXQfbDw3+++i/7XI1kcBwaetnEMI7ZJCOrE3yj/LiuHE4OhVbqVMrLW+5eP1NkKklkjrWCaU01bIY6dsri0bT3GPZYwcLm+88u/kV7McxeCjgM05y3MZltSu4MA/8ArLyNbR4RR+Sxm85GSeQj1uNu4AcAFyfSDG5q6czTGwFxFED1Ym8hzPM8fQB5GHwUMRVcoJqmuOr97+HadE6rgs9THudck2DbknZG5vYOxClNfSnCUmpTQFISTQAhNCAw6EIWJvKQpVIBoSQqtSHeaMSRYRH7HbtSx0rTC23un9FcZcSXLiVFiE8MnTQyvjkOZeHuDn3NztH4Vzzvdd5wiVrKGme9wY1sMJc4kANGwMyTuC1nSjV/DVOdPSuFNM+7ntteGU8yBm0nmL91zdfPYLF06M5xqaSeuvc+r3bh0VINpNGuYZrMrI7NqY46kD4XvUh7SRdv1Qtmo9ZWHP8AfWzU54kxh7fAsJPqXN8V0ZxCkJ6anfsj+1aOkjtz2m7vGyxAK9GWAwtZbUV3xf3Rq52cTuQ0kwWoHXnp3/4jQ3/cAWv6bRYQcPmfSNozNeLYfF7H6T3xt7bGe6/guXqljS5NjTmpQnKyaduwrqtrNDQhC9I0nrwujNRPDA3fM9jL8gTYu8Bc+C63rBrBT4Y+NnVM+xTsHJp90PmNcFpmqyg6WudMRdtKwkHk9/Vb9XpPQvVrZxDangpgcommR/nPNgD2gN+svLxH72Mp090Vd+f9TbH9NNviaMhSvZhOGzVczYKdu09/zWDi9x4NH/W8hem2km28jTqfTBcJnrJ2wQC7jm5x9yxvF7jy+3cuvUtNR4RRkk7LG5ySEDbnf/EncBwSwygo8Io3Oc4ANAdPObbUzuFh42DRz4kknl2lGkU1fNtuuyJlxBDfJg8p3Nx/6XjycsfPZjlSWr4v34avM6ElSX/InSTH5q+bpJOqxtxDDfKJv8XHif4ALEpJr14QjCKjFWSOdtvNjTSQsjEpNSmqCk1KEIWhJCAxCahUsTeNCEICkikmqtSHdMR/qKT/ACf/AArl+AaZV9EAxjxNCN0Ml3NaOTDe7e69uxdRljdNgZbENt0tIBG0b3EwZAdvBaHqsoKOeef2Q1kr2NYaeJ4DmkEnbeGnIkdTuuvDwsoKhVc43Slpr9u3gjfNPaVjZsL1m0UlhUxyUruLrdLH6W9b6qy5GCVxv/RKh54/mxL/AAcFzrWZQ0sFY1tM1sZcwOniaAGsdc2Nhk0kcO48c9RIvvW2nyfRqQVWk3G/v3mYuo07PM7TUau8Kfujkiv5M0n3iV4X6sKH4M9SO8wn7gXLaeunjyimli82V7PsK98WkuJN3VlR4zvd+8Ss/wAJi1pWv2+35k24fxN/9q+l+MTeiL+S1XTfR2mw50EcL5JHyh7n7RZZjRYCwAG8k/NWO/KvE/jk3z14qiqqauVplkfPK7ZjjLnFxzPVaOy7vWt1CjiYzTqVE48PaMZShbJHVNVtB0VAZiOtVPc/t2G9Ro9IcflLmekeIeya2pnvcSPdsH9RvVZ9VoXW8flbh+EvbGbGGJsER47RAja7vub+C4zQ0cs8rIIGF8kh2WsH2nkAM78Fz8nvnJ1cQ9G7LsWfp3oyqqyUT64bQTVMzIIG7ckm4cAOLnHgBzXYcEwmlwmlc97wCAHVNSci88hxtc2De3iSp0dwOmwqmfJI5u3baqag5Cw+C3k0cuJXOdMdKZK+Szbx00RPRR7i8/pH9vZwHisJzlj583B2prV8fe5d73IqSpK71I0t0llr5b5xwRk9DFz4bb+bj6hlzJwS2vDtFC3D6murAWWieaWE3B2iLNkd4kWHitSXpUHTs4U9I5d/z63xNMk73e8pNSmt5gUhJNANNSmhCk1KaoGhCEIYdNJCxOgtNQqQg0ITugOsap8VqJad1M9jjFTe9VHwRc3MJvmSL3y3A2Nsr+jSnV/FUvdUUjhSzklzm59FI7yss2OPMX7rm6yuBtjoMHjkDbiGA1EgG97izpH+kkrm1DrDxKKV0j3tnbIdp0Lm2Y3sjIzbllx8TmvBhCtVr1KuHtGz8fvq9xvbiopSMbi+jWIUpPsinfs5kzNBkjPaXNvbxsVhwQd2a69hmszD5ABO2SldxJaZI/Asz9LQst0eCV+dqSpcd5HRdL426wXV+PrUv89J9q0+fmYc2n0WcMTXZ6jV1hT77MckV/Jmk++SvC/VdQ/BmqR3uhP3AtkeVcM97XavRsjoyOULZtXWH9PiUNxdtPtTv+Tk367mnwXu0y0NpsPpmzNmlke97Y2MIZY3BJJsOTT6lnNUWH7MNRVOGcrmxM81guSO8ut8lXEYyDwsqkHk8l2v6XJGDU7MetGaSV1HQQNMkkzjL0Y3mwLWeGbzc5DZvwWZ0V0egwyndLK5vSlu1U1BNmxtGZY0nc0c+O/kBlvYEMc81bIRtloZ0jrAQRNFy0E7hfacT29gXLdOdLnVrzBAS2ljOW8GocNz3DyeQ8TnYDzaCniIRw9PKC6T4t5/RLquzbK0W5PXcfPTXSx9dJ0cd2UsZuxu4ykf2j/4Dh37s7oFoXtbFXWs6uTqeAjfykeOXIeK07Aqylp39NPC6qeyxhguGxX8uQ5k28myys+nuJOnZNttY1huKdrbRvHFrr3JuON8t4svTq0KvN8zh1sri/Jdr1fcjSpK+1LM2PWric7WxUwYWwSWe+bK0rmm4jHK2Ts9+XI35su06ZQR1WFTPI9zGKmMkZtLRteBtceJXFVjyVNOhspWaefX1/LuLWT2rjTSVL0TSCalNCFISVIATUpoQpCSFQYhNJCxOgaaSEIWgqUyqtSH6KwZjXUNM1wDmuhhDmkXDgYwCCOS5jpVq7qIHOloWmohzPQjOaIeSBvkHdn2Het7rJXswN0kbixzKQOY8EhzSIQQQeBWo6P6z3tAjxCMy2sOnjDQ/vezIHvbbuXzuEWIi51KOavZrj76nfuudE9nJM505paS1wLXNyc0ggtPIg7kiAd+a7mKjBcUAuaepdawDgGztHZez2+CxVdqwoH3MEk1OTubtCRg8HDa+su+HKtNO1ROL99/wNfNPdmcspsQqIhaKaWIDcGTSMt80r3M0nxNu6sqPGZzvtW1VOqqoHvVVFJy2o3x/YXLxP1Z4mNxp3d0z/4sC3fisLPPaT7dfirmOxNbjW8TxqrqQ0VMz5gy5YHEdW+85dy7dozQikoKeJ1m9GwOlN7AOd13m/LaJXMva2xTlD9N/wCqz0+jekU9M2klqacQgBp/OP23tG5r3CO7h9vG65Ma6NaEYQqRSTz+iS7fEzhtRbbTMNp5piatxpqZxFMw9Z241JHHzBwHHfyWmrodNqrlNumqmN5hsLn+suH2LN0OrbDoyDK6aoPFpeGN9DAD61thjsHQgoQd11J/Oxi6c5O7OSxRue4MY1z3uyaxrS5zuwAZlb7orq+lc5s2IDo4xYinvd8nY+2TW9m89i21+JYNhjSxroID8KOMB0rvODbuPeVqGkGsiWQOjoWGBpuOndsmU+a3MN78/BYPE4nE/poQ2U/9n8vpdjYjHOTub7pX/V1b/gz/ALhXBl23EnE4JK5xJLqRxc4m5JMOZJO8riSvJK2ac1wkK+qGmpTXqmgtJJCApNSmhCk1KaAaEkISxiU0kKHQNNJCAaEIVRDvGJZ4DJbP+h/8K5poFovHiUs3TSOjjpwwuDdkPeX7VgCQbDqnhyW76t9IIaukbRTEdNAzozGbWmhAs0gHfZtmkdl+KxGI6J4jhk76rBnOkjcCHQWD5Gt37Ba73wDgR1u/MnwqM3S52g3szbum9PHddG6SvaW41nTrRtmHVDI43mSKZu2za2dtljYtNhY8M7Df2Z46hx+ugsIKmaMDczpXFg+Sbj1L5YxiVTUzulqnOfKLMILQ3owNzA2w2bXOXaV4l69OEubjGrm7Z8GaXa90bZTaw8XZvlZN58Mf3A1e5mtDER7qKmd+zlH31oyaweDw71gvC3kXblxN99tOu/QU/wDq/iXzfrQxA+5jpm/s5T99aMmp+Cw/8ENuXE2qp0/xZ+6ZsXYyGL7wJWHrcarZ7iepmkB3sMr9g/JBt6ljkLbCjTh0YpdiS+pi5Peyggqoo3PcGMa573ZNY1pc53cBmVv2ier6V7mzYgNiMWcKa4L5Ox/BrezeexK2IhRW1Ufq+xakjFyyRuGJZYHJfK1IR/oria6lrN0ijjgNDE4GWbZ6ax96jyNj2uyFuV+y/LFxclwkqTk10nddnv1NlZ/qsNCEL0jSNNJCEGmkhAUmpTQhSEkIDEKlCah0FJpIQg00kID6wTPje2SNzo3sO0x7SWuaeYI3Louj2tF7A2PEYzIBl7IYAH972ZA94t3Lmya01sPTrK1RX8/fwCk1od2bV4HioAJp6lxyDXAMnb3B1njwWNrtWGHPzhdNT/qh4e364LvWuNkDispQ6Q18FuhqpmAbm9K5zB8l1x6lw/l9Wn/hqtLg9PT4Ge2nqjdKjVRMPequN/IOgcz1hzl4pNV+JD3MlM79rKD64146bWNizPdSMm8+Bn3Nle5mtPEB7qKmd+zmb98q25Qjvi/h8kT9vrPj7WeKf3H0zvwr6RasMSO99Mz9rKT6mL7e2rW/F4P9T8S+T9aOIn3MdM39lKT/ALit8e/4j9vrPfT6qpjbpatjOYbC5/rLh9izdDq0w5mczpqg8QZNhv1AD61o1TrAxZ+6ZsXYyGL7XAlYitxqtnv09TNKDvaZX7Hzb29SnMY2fSqpdi+i8xtQW47FJiWDYY0sa6CA/CjjAdK7zg27j3ladpDrJmlBjoGGBpyM7tkykfqtzDe/PwXPgOSa2UuTaMJbU7yfX6etySqvRZFve5xLnEuc4kucSSXE7ySd5QpTXoGotNQqQg0IQgGmpTQg00kICkJIQhiE1Kah0FKlCaApNJCEGmkhAUmpTQhSahUhBoQhAUhSqQDTUpoQaaSFSFJqU0BaahUhBoQhANNSmhBoSQgMShJNQ6BpqU0IUqUJoCk0kIQaaSEA00k0IUmoVIQaEIQFIUqkA01KaEGmkhUhSalNAWmoVIQaEIQDQhCEMOEwmhQ6QCEIQxGmhCApNCEICYQhAATCEIQaEIQFJoQhATQhAAVBCEIATTQqUEIQhiNNCEBSaEIQEIQgP//Z;" vertex="1" parent="1">
          <mxGeometry x="1260" y="560" width="40" height="40" as="geometry" />
        </mxCell>
        <mxCell id="br1NFhTCXlxhO1oLuqVo-56" value="" style="shape=image;verticalLabelPosition=bottom;labelBackgroundColor=default;verticalAlign=top;aspect=fixed;imageAspect=0;image=data:image/jpeg,/9j/4AAQSkZJRgABAQAAAQABAAD/2wCEAAkGBw0PDg8ODRASDRANGA8QDQ0YDg8REQ0VGBUXFxYRFRgYHSkgGBolGxUVIT0hJSkrMi4uFx8zRDMsNygtLisBCgoKDg0OGhAQGy0lHSUrLTAtLSsvLS0rLSsrLS0tListLS0tLS0rKy0tLystLS0tLS0tKy4tKystLS0tLS0rLf/AABEIAOEA4QMBIgACEQEDEQH/xAAcAAADAAMBAQEAAAAAAAAAAAAAAQIFBgcEAwj/xABMEAABAwICBgUEDQgKAwAAAAABAAIDBBEFIQYHEjFBURMiYXGBUnKRoRQXMjNCVIKSk6KxwtIWI1Nig7LB0SQ1Q2NzdKOzw+EV4vD/xAAaAQEBAAMBAQAAAAAAAAAAAAAAAQIDBAUG/8QANxEAAgECAwMKBAYCAwAAAAAAAAECAxEEITESQVEFEzJhcYGRsdHwocHh8RQVIiNS0jNCYrLi/9oADAMBAAIRAxEAPwDAIQhfbnnjTUpoQtJJCApNSmhCkJJoBpqU0IUmpTVBSalNCFISTQDTUpoQaaSEBSpQmhCkIQgKQkmqAQhCEMSmoVLE3jQhCAaaSEINNJCApNSmhCkJJoBpqU0IUmpTVBSalNCFISTQDTUpoQaaSEBSpQmhCk0kICkkJIDEJqU1DeWmoVIQaEIQDTQ0EkAAkmwAAuSTuAHErdcA1d1EwElW72Kw5iOwdM4do3M8bnsC1Va1OlHam7e93EsYuWhpS+9LSSym0Mb5jyZG55+qF2Kk0WwmiZtvjj6u+eZzXW7ev1WnuAXzqtN8KgGyyTpdncyKMkeByb61wfmTm7Uabl76r+Zs5m3Sdjm9PojikmbaSQecWR/vkL3R6A4od8bGdhmZ9262So1nwD3qmlf5z2M+zaXifrPl+DSsb3zud90Kutj5dGml2v1kibNLizHe15iX9z9Mfwr5yaA4m3dGx/YJmfessiNZtT8Wi+e9faLWe/4VI091Q4fawpt8ofxj4r1LalxZrU+ieJx+6pJD5uxJ+4SsXUQSRHZlY+I+S5jmH0ELpFNrMpj77BKzzXRyAektWVi0ywmdpD5mgHeySJ4HrFip+MxUOnRv2X/9E5uD0l7+Bx5NdIxKm0bnuRLFTuPw4iWW+TbZ9S0vGcNghN6eriqozutdsje9pyI7QfALso4qNTLZkn1p+f2NcqbW8xapSmuk1lISTQDTUpoQaaSEBSpQmhCkIQgMMmkhQ3lJqU0BaahMoQ6tq40bjigZWzNDpphtQ3GUMZ3EfrOGd+RA538Gk2sR206HDrWFwaogO2u2Npyt+sb35cVuEVK6bC2wMOw6WmbG13BpdCAD3Zrh9XSywyOimYWSMNnsIzB/iO3ivFwlOGKrTqVc2nkt1vn7b1OibcIpI+lZWzTv6SeR8zvKc4uI7BfcOwL4KU17W6xzDVKUICk1KpCH1p4XyPZHGNp8haxjfKJNgFvDNWU9htVMYPECN5APIG4v6FOq3B9uV9a8dWC8cPbIR1neDTb5XYvZpnpnUQVRp6NzQIQBM4sDrvOeyL8hbxJ5LzMRiK06/M0GrpXbdvmnbcu03QhFR2pHw9rKb40z6F34ke1nN8aZ9C78SxX5f4p+kj+hal+X+J+XH9C1TY5R/nHwX9RejwZl/azl+NM+hd+JHtZy/GmfQu/EsT+X2KfpI/oWrb9AcYra3ppKlzTHHssYAxrbvObsxyGz85aq88fRg5ynGy6l/UyiqUnZJmj6TaMy0BjL3tlZLtBrwC2xFrtIPf8AasItv1n4h0lWyAHq07esP132cfqhnpK05elhJznRjKpq/a+FjRUSUmkWhJNdBgNNSmhBppIQFISQhDEJqU1idA00kKkKQUkFVag79SVbKfDop5LlkMEcj7C5s2ME2C8lVQYZi0If1JwBZkzDaWLjs33jzXDwU4j/AFHJ/lP+Fcewh9WJgaLpem4CIPLyBvuG729+S+dwuE51TqRk4yTee7vOmc7WVjccV1Z1DCXUkrJm8GP/ADcg7LjquPb1VrFbo5iEHvtLK0De4M6Ro+Uy49a2Ok1hYjTOMVbC2ZzMnBzXQTeNhb6q2Gi1l0D8pWTQHidkSN9LTf1LsVXHU+lFTXFa/C3/AFNdqb0djk20L24jeOIVLtbdJ8GqB1p4HdkjNj/cAS6HAJNww957PYt/Ur+ZSXTpSXvsQ5lbmjiq+1NC+R7I4xtPkLWMbzcTYD1rpWlzMIpqN74YKV8r7xwhrYnFpIzflyFz32HFYvVZg3STPrXjqwXjh7ZCOs7wabfL7FvWOToSrbLSWl97+/kzB0/1KNzcZHRYThmVnex2Wbw6WV383m/YO5cXllc9znvO055c57uLnE3JPiVuutHGOlnZRsPUpuvL2yOGQ+S0/XPJaQsOTqLjT5yXSnm+zd6+ArSu7LRDQkmvQNQ7rs+h1I2kw2IydQlpqJicrbQ2s+5th8lco0fw/wBlVcFPvD3jb8wdZ/1QV1TTyokZQSRwse99QWwgNY5xDTm8kAZDZBHiF5PKb25U6CfSd35evgb6OSczk2I1jp55Z3b5nOfbybnJvgLDwXnXp/8AGVfxeb6CX+ST8PqGgudDK1ozLjDIAO0kjJeqnFZI58zzqlKFkQtCSaAaalNCDQkhAYlClUsToGmpTQg1SlCpDudA0VuDMjjcAaim6Ha4Mf0ewQe5wI8FougWKQ4bVVMOINNO94YzbLSejLS4lptfJ20DcZZDsWc1T01W2CSR7rU0hPQxEXcXg2dI08G5WtncjhbrbLjOA0FeC2ZrXyR9XpWOAliNr7JI777LrjPcvnZVIUZ1aE84N6rVfbR9m/R9NnJKS1OZawsapq2qY6m67YmbDpdkt6Q7RNhfOwvv7StYW8Yrqzq2EupJWTt4Md+bk7vJPfcLWa3R+vg9+pZm23uEZez5zbj1r18NVoKChTkml15+DsaJqV7tGNQlcbuPJNdmaNZ9qaB8j2Rxt2nyFrGN5uJsB6V2pxiwnDeBFMyw4dNK4/eefAHsXLtBq6mp6+Oaq6rGh4Y+xIjeRYONuFtofKXUpNKsJcLPqYXDfY5j1heNym6kqkYbLcVm7b+q/UsjoopJN3zOJzVBke6SR20+Que9183OJuT6SpDhzXavyhwX9NT/ADR/JZCaGikp3SOjifA9nSF3Rts5mztbW7lmq+VXC21Sa97skTmL/wCxwZNK44ZDgN5CF7Bzmd0OxmOiqxPMwvYWvjNrFzLkHbAO/wBzbuJXQfbDw3+++i/7XI1kcBwaetnEMI7ZJCOrE3yj/LiuHE4OhVbqVMrLW+5eP1NkKklkjrWCaU01bIY6dsri0bT3GPZYwcLm+88u/kV7McxeCjgM05y3MZltSu4MA/8ArLyNbR4RR+Sxm85GSeQj1uNu4AcAFyfSDG5q6czTGwFxFED1Ym8hzPM8fQB5GHwUMRVcoJqmuOr97+HadE6rgs9THudck2DbknZG5vYOxClNfSnCUmpTQFISTQAhNCAw6EIWJvKQpVIBoSQqtSHeaMSRYRH7HbtSx0rTC23un9FcZcSXLiVFiE8MnTQyvjkOZeHuDn3NztH4Vzzvdd5wiVrKGme9wY1sMJc4kANGwMyTuC1nSjV/DVOdPSuFNM+7ntteGU8yBm0nmL91zdfPYLF06M5xqaSeuvc+r3bh0VINpNGuYZrMrI7NqY46kD4XvUh7SRdv1Qtmo9ZWHP8AfWzU54kxh7fAsJPqXN8V0ZxCkJ6anfsj+1aOkjtz2m7vGyxAK9GWAwtZbUV3xf3Rq52cTuQ0kwWoHXnp3/4jQ3/cAWv6bRYQcPmfSNozNeLYfF7H6T3xt7bGe6/guXqljS5NjTmpQnKyaduwrqtrNDQhC9I0nrwujNRPDA3fM9jL8gTYu8Bc+C63rBrBT4Y+NnVM+xTsHJp90PmNcFpmqyg6WudMRdtKwkHk9/Vb9XpPQvVrZxDangpgcommR/nPNgD2gN+svLxH72Mp090Vd+f9TbH9NNviaMhSvZhOGzVczYKdu09/zWDi9x4NH/W8hem2km28jTqfTBcJnrJ2wQC7jm5x9yxvF7jy+3cuvUtNR4RRkk7LG5ySEDbnf/EncBwSwygo8Io3Oc4ANAdPObbUzuFh42DRz4kknl2lGkU1fNtuuyJlxBDfJg8p3Nx/6XjycsfPZjlSWr4v34avM6ElSX/InSTH5q+bpJOqxtxDDfKJv8XHif4ALEpJr14QjCKjFWSOdtvNjTSQsjEpNSmqCk1KEIWhJCAxCahUsTeNCEICkikmqtSHdMR/qKT/ACf/AArl+AaZV9EAxjxNCN0Ml3NaOTDe7e69uxdRljdNgZbENt0tIBG0b3EwZAdvBaHqsoKOeef2Q1kr2NYaeJ4DmkEnbeGnIkdTuuvDwsoKhVc43Slpr9u3gjfNPaVjZsL1m0UlhUxyUruLrdLH6W9b6qy5GCVxv/RKh54/mxL/AAcFzrWZQ0sFY1tM1sZcwOniaAGsdc2Nhk0kcO48c9RIvvW2nyfRqQVWk3G/v3mYuo07PM7TUau8Kfujkiv5M0n3iV4X6sKH4M9SO8wn7gXLaeunjyimli82V7PsK98WkuJN3VlR4zvd+8Ss/wAJi1pWv2+35k24fxN/9q+l+MTeiL+S1XTfR2mw50EcL5JHyh7n7RZZjRYCwAG8k/NWO/KvE/jk3z14qiqqauVplkfPK7ZjjLnFxzPVaOy7vWt1CjiYzTqVE48PaMZShbJHVNVtB0VAZiOtVPc/t2G9Ro9IcflLmekeIeya2pnvcSPdsH9RvVZ9VoXW8flbh+EvbGbGGJsER47RAja7vub+C4zQ0cs8rIIGF8kh2WsH2nkAM78Fz8nvnJ1cQ9G7LsWfp3oyqqyUT64bQTVMzIIG7ckm4cAOLnHgBzXYcEwmlwmlc97wCAHVNSci88hxtc2De3iSp0dwOmwqmfJI5u3baqag5Cw+C3k0cuJXOdMdKZK+Szbx00RPRR7i8/pH9vZwHisJzlj583B2prV8fe5d73IqSpK71I0t0llr5b5xwRk9DFz4bb+bj6hlzJwS2vDtFC3D6murAWWieaWE3B2iLNkd4kWHitSXpUHTs4U9I5d/z63xNMk73e8pNSmt5gUhJNANNSmhCk1KaoGhCEIYdNJCxOgtNQqQg0ITugOsap8VqJad1M9jjFTe9VHwRc3MJvmSL3y3A2Nsr+jSnV/FUvdUUjhSzklzm59FI7yss2OPMX7rm6yuBtjoMHjkDbiGA1EgG97izpH+kkrm1DrDxKKV0j3tnbIdp0Lm2Y3sjIzbllx8TmvBhCtVr1KuHtGz8fvq9xvbiopSMbi+jWIUpPsinfs5kzNBkjPaXNvbxsVhwQd2a69hmszD5ABO2SldxJaZI/Asz9LQst0eCV+dqSpcd5HRdL426wXV+PrUv89J9q0+fmYc2n0WcMTXZ6jV1hT77MckV/Jmk++SvC/VdQ/BmqR3uhP3AtkeVcM97XavRsjoyOULZtXWH9PiUNxdtPtTv+Tk367mnwXu0y0NpsPpmzNmlke97Y2MIZY3BJJsOTT6lnNUWH7MNRVOGcrmxM81guSO8ut8lXEYyDwsqkHk8l2v6XJGDU7MetGaSV1HQQNMkkzjL0Y3mwLWeGbzc5DZvwWZ0V0egwyndLK5vSlu1U1BNmxtGZY0nc0c+O/kBlvYEMc81bIRtloZ0jrAQRNFy0E7hfacT29gXLdOdLnVrzBAS2ljOW8GocNz3DyeQ8TnYDzaCniIRw9PKC6T4t5/RLquzbK0W5PXcfPTXSx9dJ0cd2UsZuxu4ykf2j/4Dh37s7oFoXtbFXWs6uTqeAjfykeOXIeK07Aqylp39NPC6qeyxhguGxX8uQ5k28myys+nuJOnZNttY1huKdrbRvHFrr3JuON8t4svTq0KvN8zh1sri/Jdr1fcjSpK+1LM2PWric7WxUwYWwSWe+bK0rmm4jHK2Ts9+XI35su06ZQR1WFTPI9zGKmMkZtLRteBtceJXFVjyVNOhspWaefX1/LuLWT2rjTSVL0TSCalNCFISVIATUpoQpCSFQYhNJCxOgaaSEIWgqUyqtSH6KwZjXUNM1wDmuhhDmkXDgYwCCOS5jpVq7qIHOloWmohzPQjOaIeSBvkHdn2Het7rJXswN0kbixzKQOY8EhzSIQQQeBWo6P6z3tAjxCMy2sOnjDQ/vezIHvbbuXzuEWIi51KOavZrj76nfuudE9nJM505paS1wLXNyc0ggtPIg7kiAd+a7mKjBcUAuaepdawDgGztHZez2+CxVdqwoH3MEk1OTubtCRg8HDa+su+HKtNO1ROL99/wNfNPdmcspsQqIhaKaWIDcGTSMt80r3M0nxNu6sqPGZzvtW1VOqqoHvVVFJy2o3x/YXLxP1Z4mNxp3d0z/4sC3fisLPPaT7dfirmOxNbjW8TxqrqQ0VMz5gy5YHEdW+85dy7dozQikoKeJ1m9GwOlN7AOd13m/LaJXMva2xTlD9N/wCqz0+jekU9M2klqacQgBp/OP23tG5r3CO7h9vG65Ma6NaEYQqRSTz+iS7fEzhtRbbTMNp5piatxpqZxFMw9Z241JHHzBwHHfyWmrodNqrlNumqmN5hsLn+suH2LN0OrbDoyDK6aoPFpeGN9DAD61thjsHQgoQd11J/Oxi6c5O7OSxRue4MY1z3uyaxrS5zuwAZlb7orq+lc5s2IDo4xYinvd8nY+2TW9m89i21+JYNhjSxroID8KOMB0rvODbuPeVqGkGsiWQOjoWGBpuOndsmU+a3MN78/BYPE4nE/poQ2U/9n8vpdjYjHOTub7pX/V1b/gz/ALhXBl23EnE4JK5xJLqRxc4m5JMOZJO8riSvJK2ac1wkK+qGmpTXqmgtJJCApNSmhCk1KaAaEkISxiU0kKHQNNJCAaEIVRDvGJZ4DJbP+h/8K5poFovHiUs3TSOjjpwwuDdkPeX7VgCQbDqnhyW76t9IIaukbRTEdNAzozGbWmhAs0gHfZtmkdl+KxGI6J4jhk76rBnOkjcCHQWD5Gt37Ba73wDgR1u/MnwqM3S52g3szbum9PHddG6SvaW41nTrRtmHVDI43mSKZu2za2dtljYtNhY8M7Df2Z46hx+ugsIKmaMDczpXFg+Sbj1L5YxiVTUzulqnOfKLMILQ3owNzA2w2bXOXaV4l69OEubjGrm7Z8GaXa90bZTaw8XZvlZN58Mf3A1e5mtDER7qKmd+zlH31oyaweDw71gvC3kXblxN99tOu/QU/wDq/iXzfrQxA+5jpm/s5T99aMmp+Cw/8ENuXE2qp0/xZ+6ZsXYyGL7wJWHrcarZ7iepmkB3sMr9g/JBt6ljkLbCjTh0YpdiS+pi5Peyggqoo3PcGMa573ZNY1pc53cBmVv2ier6V7mzYgNiMWcKa4L5Ox/BrezeexK2IhRW1Ufq+xakjFyyRuGJZYHJfK1IR/oria6lrN0ijjgNDE4GWbZ6ax96jyNj2uyFuV+y/LFxclwkqTk10nddnv1NlZ/qsNCEL0jSNNJCEGmkhAUmpTQhSEkIDEKlCah0FJpIQg00kID6wTPje2SNzo3sO0x7SWuaeYI3Louj2tF7A2PEYzIBl7IYAH972ZA94t3Lmya01sPTrK1RX8/fwCk1od2bV4HioAJp6lxyDXAMnb3B1njwWNrtWGHPzhdNT/qh4e364LvWuNkDispQ6Q18FuhqpmAbm9K5zB8l1x6lw/l9Wn/hqtLg9PT4Ge2nqjdKjVRMPequN/IOgcz1hzl4pNV+JD3MlM79rKD64146bWNizPdSMm8+Bn3Nle5mtPEB7qKmd+zmb98q25Qjvi/h8kT9vrPj7WeKf3H0zvwr6RasMSO99Mz9rKT6mL7e2rW/F4P9T8S+T9aOIn3MdM39lKT/ALit8e/4j9vrPfT6qpjbpatjOYbC5/rLh9izdDq0w5mczpqg8QZNhv1AD61o1TrAxZ+6ZsXYyGL7XAlYitxqtnv09TNKDvaZX7Hzb29SnMY2fSqpdi+i8xtQW47FJiWDYY0sa6CA/CjjAdK7zg27j3ladpDrJmlBjoGGBpyM7tkykfqtzDe/PwXPgOSa2UuTaMJbU7yfX6etySqvRZFve5xLnEuc4kucSSXE7ySd5QpTXoGotNQqQg0IQgGmpTQg00kICkJIQhiE1Kah0FKlCaApNJCEGmkhAUmpTQhSahUhBoQhAUhSqQDTUpoQaaSFSFJqU0BaahUhBoQhANNSmhBoSQgMShJNQ6BpqU0IUqUJoCk0kIQaaSEA00k0IUmoVIQaEIQFIUqkA01KaEGmkhUhSalNAWmoVIQaEIQDQhCEMOEwmhQ6QCEIQxGmhCApNCEICYQhAATCEIQaEIQFJoQhATQhAAVBCEIATTQqUEIQhiNNCEBSaEIQEIQgP//Z;" vertex="1" parent="1">
          <mxGeometry x="1080" y="610" width="40" height="40" as="geometry" />
        </mxCell>
        <mxCell id="br1NFhTCXlxhO1oLuqVo-57" value="" style="shape=image;verticalLabelPosition=bottom;labelBackgroundColor=default;verticalAlign=top;aspect=fixed;imageAspect=0;image=data:image/jpeg,/9j/4AAQSkZJRgABAQAAAQABAAD/2wCEAAkGBw0PDg8ODRASDRANGA8QDQ0YDg8REQ0VGBUXFxYRFRgYHSkgGBolGxUVIT0hJSkrMi4uFx8zRDMsNygtLisBCgoKDg0OGhAQGy0lHSUrLTAtLSsvLS0rLSsrLS0tListLS0tLS0rKy0tLystLS0tLS0tKy4tKystLS0tLS0rLf/AABEIAOEA4QMBIgACEQEDEQH/xAAcAAADAAMBAQEAAAAAAAAAAAAAAQIFBgcEAwj/xABMEAABAwICBgUEDQgKAwAAAAABAAIDBBEFIQYHEjFBURMiYXGBUnKRoRQXMjNCVIKSk6KxwtIWI1Nig7LB0SQ1Q2NzdKOzw+EV4vD/xAAaAQEBAAMBAQAAAAAAAAAAAAAAAQIDBAUG/8QANxEAAgECAwMKBAYCAwAAAAAAAAECAxEEITESQVEFEzJhcYGRsdHwocHh8RQVIiNS0jNCYrLi/9oADAMBAAIRAxEAPwDAIQhfbnnjTUpoQtJJCApNSmhCkJJoBpqU0IUmpTVBSalNCFISTQDTUpoQaaSEBSpQmhCkIQgKQkmqAQhCEMSmoVLE3jQhCAaaSEINNJCApNSmhCkJJoBpqU0IUmpTVBSalNCFISTQDTUpoQaaSEBSpQmhCk0kICkkJIDEJqU1DeWmoVIQaEIQDTQ0EkAAkmwAAuSTuAHErdcA1d1EwElW72Kw5iOwdM4do3M8bnsC1Va1OlHam7e93EsYuWhpS+9LSSym0Mb5jyZG55+qF2Kk0WwmiZtvjj6u+eZzXW7ev1WnuAXzqtN8KgGyyTpdncyKMkeByb61wfmTm7Uabl76r+Zs5m3Sdjm9PojikmbaSQecWR/vkL3R6A4od8bGdhmZ9262So1nwD3qmlf5z2M+zaXifrPl+DSsb3zud90Kutj5dGml2v1kibNLizHe15iX9z9Mfwr5yaA4m3dGx/YJmfessiNZtT8Wi+e9faLWe/4VI091Q4fawpt8ofxj4r1LalxZrU+ieJx+6pJD5uxJ+4SsXUQSRHZlY+I+S5jmH0ELpFNrMpj77BKzzXRyAektWVi0ywmdpD5mgHeySJ4HrFip+MxUOnRv2X/9E5uD0l7+Bx5NdIxKm0bnuRLFTuPw4iWW+TbZ9S0vGcNghN6eriqozutdsje9pyI7QfALso4qNTLZkn1p+f2NcqbW8xapSmuk1lISTQDTUpoQaaSEBSpQmhCkIQgMMmkhQ3lJqU0BaahMoQ6tq40bjigZWzNDpphtQ3GUMZ3EfrOGd+RA538Gk2sR206HDrWFwaogO2u2Npyt+sb35cVuEVK6bC2wMOw6WmbG13BpdCAD3Zrh9XSywyOimYWSMNnsIzB/iO3ivFwlOGKrTqVc2nkt1vn7b1OibcIpI+lZWzTv6SeR8zvKc4uI7BfcOwL4KU17W6xzDVKUICk1KpCH1p4XyPZHGNp8haxjfKJNgFvDNWU9htVMYPECN5APIG4v6FOq3B9uV9a8dWC8cPbIR1neDTb5XYvZpnpnUQVRp6NzQIQBM4sDrvOeyL8hbxJ5LzMRiK06/M0GrpXbdvmnbcu03QhFR2pHw9rKb40z6F34ke1nN8aZ9C78SxX5f4p+kj+hal+X+J+XH9C1TY5R/nHwX9RejwZl/azl+NM+hd+JHtZy/GmfQu/EsT+X2KfpI/oWrb9AcYra3ppKlzTHHssYAxrbvObsxyGz85aq88fRg5ynGy6l/UyiqUnZJmj6TaMy0BjL3tlZLtBrwC2xFrtIPf8AasItv1n4h0lWyAHq07esP132cfqhnpK05elhJznRjKpq/a+FjRUSUmkWhJNdBgNNSmhBppIQFISQhDEJqU1idA00kKkKQUkFVag79SVbKfDop5LlkMEcj7C5s2ME2C8lVQYZi0If1JwBZkzDaWLjs33jzXDwU4j/AFHJ/lP+Fcewh9WJgaLpem4CIPLyBvuG729+S+dwuE51TqRk4yTee7vOmc7WVjccV1Z1DCXUkrJm8GP/ADcg7LjquPb1VrFbo5iEHvtLK0De4M6Ro+Uy49a2Ok1hYjTOMVbC2ZzMnBzXQTeNhb6q2Gi1l0D8pWTQHidkSN9LTf1LsVXHU+lFTXFa/C3/AFNdqb0djk20L24jeOIVLtbdJ8GqB1p4HdkjNj/cAS6HAJNww957PYt/Ur+ZSXTpSXvsQ5lbmjiq+1NC+R7I4xtPkLWMbzcTYD1rpWlzMIpqN74YKV8r7xwhrYnFpIzflyFz32HFYvVZg3STPrXjqwXjh7ZCOs7wabfL7FvWOToSrbLSWl97+/kzB0/1KNzcZHRYThmVnex2Wbw6WV383m/YO5cXllc9znvO055c57uLnE3JPiVuutHGOlnZRsPUpuvL2yOGQ+S0/XPJaQsOTqLjT5yXSnm+zd6+ArSu7LRDQkmvQNQ7rs+h1I2kw2IydQlpqJicrbQ2s+5th8lco0fw/wBlVcFPvD3jb8wdZ/1QV1TTyokZQSRwse99QWwgNY5xDTm8kAZDZBHiF5PKb25U6CfSd35evgb6OSczk2I1jp55Z3b5nOfbybnJvgLDwXnXp/8AGVfxeb6CX+ST8PqGgudDK1ozLjDIAO0kjJeqnFZI58zzqlKFkQtCSaAaalNCDQkhAYlClUsToGmpTQg1SlCpDudA0VuDMjjcAaim6Ha4Mf0ewQe5wI8FougWKQ4bVVMOINNO94YzbLSejLS4lptfJ20DcZZDsWc1T01W2CSR7rU0hPQxEXcXg2dI08G5WtncjhbrbLjOA0FeC2ZrXyR9XpWOAliNr7JI777LrjPcvnZVIUZ1aE84N6rVfbR9m/R9NnJKS1OZawsapq2qY6m67YmbDpdkt6Q7RNhfOwvv7StYW8Yrqzq2EupJWTt4Md+bk7vJPfcLWa3R+vg9+pZm23uEZez5zbj1r18NVoKChTkml15+DsaJqV7tGNQlcbuPJNdmaNZ9qaB8j2Rxt2nyFrGN5uJsB6V2pxiwnDeBFMyw4dNK4/eefAHsXLtBq6mp6+Oaq6rGh4Y+xIjeRYONuFtofKXUpNKsJcLPqYXDfY5j1heNym6kqkYbLcVm7b+q/UsjoopJN3zOJzVBke6SR20+Que9183OJuT6SpDhzXavyhwX9NT/ADR/JZCaGikp3SOjifA9nSF3Rts5mztbW7lmq+VXC21Sa97skTmL/wCxwZNK44ZDgN5CF7Bzmd0OxmOiqxPMwvYWvjNrFzLkHbAO/wBzbuJXQfbDw3+++i/7XI1kcBwaetnEMI7ZJCOrE3yj/LiuHE4OhVbqVMrLW+5eP1NkKklkjrWCaU01bIY6dsri0bT3GPZYwcLm+88u/kV7McxeCjgM05y3MZltSu4MA/8ArLyNbR4RR+Sxm85GSeQj1uNu4AcAFyfSDG5q6czTGwFxFED1Ym8hzPM8fQB5GHwUMRVcoJqmuOr97+HadE6rgs9THudck2DbknZG5vYOxClNfSnCUmpTQFISTQAhNCAw6EIWJvKQpVIBoSQqtSHeaMSRYRH7HbtSx0rTC23un9FcZcSXLiVFiE8MnTQyvjkOZeHuDn3NztH4Vzzvdd5wiVrKGme9wY1sMJc4kANGwMyTuC1nSjV/DVOdPSuFNM+7ntteGU8yBm0nmL91zdfPYLF06M5xqaSeuvc+r3bh0VINpNGuYZrMrI7NqY46kD4XvUh7SRdv1Qtmo9ZWHP8AfWzU54kxh7fAsJPqXN8V0ZxCkJ6anfsj+1aOkjtz2m7vGyxAK9GWAwtZbUV3xf3Rq52cTuQ0kwWoHXnp3/4jQ3/cAWv6bRYQcPmfSNozNeLYfF7H6T3xt7bGe6/guXqljS5NjTmpQnKyaduwrqtrNDQhC9I0nrwujNRPDA3fM9jL8gTYu8Bc+C63rBrBT4Y+NnVM+xTsHJp90PmNcFpmqyg6WudMRdtKwkHk9/Vb9XpPQvVrZxDangpgcommR/nPNgD2gN+svLxH72Mp090Vd+f9TbH9NNviaMhSvZhOGzVczYKdu09/zWDi9x4NH/W8hem2km28jTqfTBcJnrJ2wQC7jm5x9yxvF7jy+3cuvUtNR4RRkk7LG5ySEDbnf/EncBwSwygo8Io3Oc4ANAdPObbUzuFh42DRz4kknl2lGkU1fNtuuyJlxBDfJg8p3Nx/6XjycsfPZjlSWr4v34avM6ElSX/InSTH5q+bpJOqxtxDDfKJv8XHif4ALEpJr14QjCKjFWSOdtvNjTSQsjEpNSmqCk1KEIWhJCAxCahUsTeNCEICkikmqtSHdMR/qKT/ACf/AArl+AaZV9EAxjxNCN0Ml3NaOTDe7e69uxdRljdNgZbENt0tIBG0b3EwZAdvBaHqsoKOeef2Q1kr2NYaeJ4DmkEnbeGnIkdTuuvDwsoKhVc43Slpr9u3gjfNPaVjZsL1m0UlhUxyUruLrdLH6W9b6qy5GCVxv/RKh54/mxL/AAcFzrWZQ0sFY1tM1sZcwOniaAGsdc2Nhk0kcO48c9RIvvW2nyfRqQVWk3G/v3mYuo07PM7TUau8Kfujkiv5M0n3iV4X6sKH4M9SO8wn7gXLaeunjyimli82V7PsK98WkuJN3VlR4zvd+8Ss/wAJi1pWv2+35k24fxN/9q+l+MTeiL+S1XTfR2mw50EcL5JHyh7n7RZZjRYCwAG8k/NWO/KvE/jk3z14qiqqauVplkfPK7ZjjLnFxzPVaOy7vWt1CjiYzTqVE48PaMZShbJHVNVtB0VAZiOtVPc/t2G9Ro9IcflLmekeIeya2pnvcSPdsH9RvVZ9VoXW8flbh+EvbGbGGJsER47RAja7vub+C4zQ0cs8rIIGF8kh2WsH2nkAM78Fz8nvnJ1cQ9G7LsWfp3oyqqyUT64bQTVMzIIG7ckm4cAOLnHgBzXYcEwmlwmlc97wCAHVNSci88hxtc2De3iSp0dwOmwqmfJI5u3baqag5Cw+C3k0cuJXOdMdKZK+Szbx00RPRR7i8/pH9vZwHisJzlj583B2prV8fe5d73IqSpK71I0t0llr5b5xwRk9DFz4bb+bj6hlzJwS2vDtFC3D6murAWWieaWE3B2iLNkd4kWHitSXpUHTs4U9I5d/z63xNMk73e8pNSmt5gUhJNANNSmhCk1KaoGhCEIYdNJCxOgtNQqQg0ITugOsap8VqJad1M9jjFTe9VHwRc3MJvmSL3y3A2Nsr+jSnV/FUvdUUjhSzklzm59FI7yss2OPMX7rm6yuBtjoMHjkDbiGA1EgG97izpH+kkrm1DrDxKKV0j3tnbIdp0Lm2Y3sjIzbllx8TmvBhCtVr1KuHtGz8fvq9xvbiopSMbi+jWIUpPsinfs5kzNBkjPaXNvbxsVhwQd2a69hmszD5ABO2SldxJaZI/Asz9LQst0eCV+dqSpcd5HRdL426wXV+PrUv89J9q0+fmYc2n0WcMTXZ6jV1hT77MckV/Jmk++SvC/VdQ/BmqR3uhP3AtkeVcM97XavRsjoyOULZtXWH9PiUNxdtPtTv+Tk367mnwXu0y0NpsPpmzNmlke97Y2MIZY3BJJsOTT6lnNUWH7MNRVOGcrmxM81guSO8ut8lXEYyDwsqkHk8l2v6XJGDU7MetGaSV1HQQNMkkzjL0Y3mwLWeGbzc5DZvwWZ0V0egwyndLK5vSlu1U1BNmxtGZY0nc0c+O/kBlvYEMc81bIRtloZ0jrAQRNFy0E7hfacT29gXLdOdLnVrzBAS2ljOW8GocNz3DyeQ8TnYDzaCniIRw9PKC6T4t5/RLquzbK0W5PXcfPTXSx9dJ0cd2UsZuxu4ykf2j/4Dh37s7oFoXtbFXWs6uTqeAjfykeOXIeK07Aqylp39NPC6qeyxhguGxX8uQ5k28myys+nuJOnZNttY1huKdrbRvHFrr3JuON8t4svTq0KvN8zh1sri/Jdr1fcjSpK+1LM2PWric7WxUwYWwSWe+bK0rmm4jHK2Ts9+XI35su06ZQR1WFTPI9zGKmMkZtLRteBtceJXFVjyVNOhspWaefX1/LuLWT2rjTSVL0TSCalNCFISVIATUpoQpCSFQYhNJCxOgaaSEIWgqUyqtSH6KwZjXUNM1wDmuhhDmkXDgYwCCOS5jpVq7qIHOloWmohzPQjOaIeSBvkHdn2Het7rJXswN0kbixzKQOY8EhzSIQQQeBWo6P6z3tAjxCMy2sOnjDQ/vezIHvbbuXzuEWIi51KOavZrj76nfuudE9nJM505paS1wLXNyc0ggtPIg7kiAd+a7mKjBcUAuaepdawDgGztHZez2+CxVdqwoH3MEk1OTubtCRg8HDa+su+HKtNO1ROL99/wNfNPdmcspsQqIhaKaWIDcGTSMt80r3M0nxNu6sqPGZzvtW1VOqqoHvVVFJy2o3x/YXLxP1Z4mNxp3d0z/4sC3fisLPPaT7dfirmOxNbjW8TxqrqQ0VMz5gy5YHEdW+85dy7dozQikoKeJ1m9GwOlN7AOd13m/LaJXMva2xTlD9N/wCqz0+jekU9M2klqacQgBp/OP23tG5r3CO7h9vG65Ma6NaEYQqRSTz+iS7fEzhtRbbTMNp5piatxpqZxFMw9Z241JHHzBwHHfyWmrodNqrlNumqmN5hsLn+suH2LN0OrbDoyDK6aoPFpeGN9DAD61thjsHQgoQd11J/Oxi6c5O7OSxRue4MY1z3uyaxrS5zuwAZlb7orq+lc5s2IDo4xYinvd8nY+2TW9m89i21+JYNhjSxroID8KOMB0rvODbuPeVqGkGsiWQOjoWGBpuOndsmU+a3MN78/BYPE4nE/poQ2U/9n8vpdjYjHOTub7pX/V1b/gz/ALhXBl23EnE4JK5xJLqRxc4m5JMOZJO8riSvJK2ac1wkK+qGmpTXqmgtJJCApNSmhCk1KaAaEkISxiU0kKHQNNJCAaEIVRDvGJZ4DJbP+h/8K5poFovHiUs3TSOjjpwwuDdkPeX7VgCQbDqnhyW76t9IIaukbRTEdNAzozGbWmhAs0gHfZtmkdl+KxGI6J4jhk76rBnOkjcCHQWD5Gt37Ba73wDgR1u/MnwqM3S52g3szbum9PHddG6SvaW41nTrRtmHVDI43mSKZu2za2dtljYtNhY8M7Df2Z46hx+ugsIKmaMDczpXFg+Sbj1L5YxiVTUzulqnOfKLMILQ3owNzA2w2bXOXaV4l69OEubjGrm7Z8GaXa90bZTaw8XZvlZN58Mf3A1e5mtDER7qKmd+zlH31oyaweDw71gvC3kXblxN99tOu/QU/wDq/iXzfrQxA+5jpm/s5T99aMmp+Cw/8ENuXE2qp0/xZ+6ZsXYyGL7wJWHrcarZ7iepmkB3sMr9g/JBt6ljkLbCjTh0YpdiS+pi5Peyggqoo3PcGMa573ZNY1pc53cBmVv2ier6V7mzYgNiMWcKa4L5Ox/BrezeexK2IhRW1Ufq+xakjFyyRuGJZYHJfK1IR/oria6lrN0ijjgNDE4GWbZ6ax96jyNj2uyFuV+y/LFxclwkqTk10nddnv1NlZ/qsNCEL0jSNNJCEGmkhAUmpTQhSEkIDEKlCah0FJpIQg00kID6wTPje2SNzo3sO0x7SWuaeYI3Louj2tF7A2PEYzIBl7IYAH972ZA94t3Lmya01sPTrK1RX8/fwCk1od2bV4HioAJp6lxyDXAMnb3B1njwWNrtWGHPzhdNT/qh4e364LvWuNkDispQ6Q18FuhqpmAbm9K5zB8l1x6lw/l9Wn/hqtLg9PT4Ge2nqjdKjVRMPequN/IOgcz1hzl4pNV+JD3MlM79rKD64146bWNizPdSMm8+Bn3Nle5mtPEB7qKmd+zmb98q25Qjvi/h8kT9vrPj7WeKf3H0zvwr6RasMSO99Mz9rKT6mL7e2rW/F4P9T8S+T9aOIn3MdM39lKT/ALit8e/4j9vrPfT6qpjbpatjOYbC5/rLh9izdDq0w5mczpqg8QZNhv1AD61o1TrAxZ+6ZsXYyGL7XAlYitxqtnv09TNKDvaZX7Hzb29SnMY2fSqpdi+i8xtQW47FJiWDYY0sa6CA/CjjAdK7zg27j3ladpDrJmlBjoGGBpyM7tkykfqtzDe/PwXPgOSa2UuTaMJbU7yfX6etySqvRZFve5xLnEuc4kucSSXE7ySd5QpTXoGotNQqQg0IQgGmpTQg00kICkJIQhiE1Kah0FKlCaApNJCEGmkhAUmpTQhSahUhBoQhAUhSqQDTUpoQaaSFSFJqU0BaahUhBoQhANNSmhBoSQgMShJNQ6BpqU0IUqUJoCk0kIQaaSEA00k0IUmoVIQaEIQFIUqkA01KaEGmkhUhSalNAWmoVIQaEIQDQhCEMOEwmhQ6QCEIQxGmhCApNCEICYQhAATCEIQaEIQFJoQhATQhAAVBCEIATTQqUEIQhiNNCEBSaEIQEIQgP//Z;" vertex="1" parent="1">
          <mxGeometry x="1140" y="610" width="40" height="40" as="geometry" />
        </mxCell>
        <mxCell id="br1NFhTCXlxhO1oLuqVo-58" value="" style="shape=image;verticalLabelPosition=bottom;labelBackgroundColor=default;verticalAlign=top;aspect=fixed;imageAspect=0;image=data:image/jpeg,/9j/4AAQSkZJRgABAQAAAQABAAD/2wCEAAkGBw0PDg8ODRASDRANGA8QDQ0YDg8REQ0VGBUXFxYRFRgYHSkgGBolGxUVIT0hJSkrMi4uFx8zRDMsNygtLisBCgoKDg0OGhAQGy0lHSUrLTAtLSsvLS0rLSsrLS0tListLS0tLS0rKy0tLystLS0tLS0tKy4tKystLS0tLS0rLf/AABEIAOEA4QMBIgACEQEDEQH/xAAcAAADAAMBAQEAAAAAAAAAAAAAAQIFBgcEAwj/xABMEAABAwICBgUEDQgKAwAAAAABAAIDBBEFIQYHEjFBURMiYXGBUnKRoRQXMjNCVIKSk6KxwtIWI1Nig7LB0SQ1Q2NzdKOzw+EV4vD/xAAaAQEBAAMBAQAAAAAAAAAAAAAAAQIDBAUG/8QANxEAAgECAwMKBAYCAwAAAAAAAAECAxEEITESQVEFEzJhcYGRsdHwocHh8RQVIiNS0jNCYrLi/9oADAMBAAIRAxEAPwDAIQhfbnnjTUpoQtJJCApNSmhCkJJoBpqU0IUmpTVBSalNCFISTQDTUpoQaaSEBSpQmhCkIQgKQkmqAQhCEMSmoVLE3jQhCAaaSEINNJCApNSmhCkJJoBpqU0IUmpTVBSalNCFISTQDTUpoQaaSEBSpQmhCk0kICkkJIDEJqU1DeWmoVIQaEIQDTQ0EkAAkmwAAuSTuAHErdcA1d1EwElW72Kw5iOwdM4do3M8bnsC1Va1OlHam7e93EsYuWhpS+9LSSym0Mb5jyZG55+qF2Kk0WwmiZtvjj6u+eZzXW7ev1WnuAXzqtN8KgGyyTpdncyKMkeByb61wfmTm7Uabl76r+Zs5m3Sdjm9PojikmbaSQecWR/vkL3R6A4od8bGdhmZ9262So1nwD3qmlf5z2M+zaXifrPl+DSsb3zud90Kutj5dGml2v1kibNLizHe15iX9z9Mfwr5yaA4m3dGx/YJmfessiNZtT8Wi+e9faLWe/4VI091Q4fawpt8ofxj4r1LalxZrU+ieJx+6pJD5uxJ+4SsXUQSRHZlY+I+S5jmH0ELpFNrMpj77BKzzXRyAektWVi0ywmdpD5mgHeySJ4HrFip+MxUOnRv2X/9E5uD0l7+Bx5NdIxKm0bnuRLFTuPw4iWW+TbZ9S0vGcNghN6eriqozutdsje9pyI7QfALso4qNTLZkn1p+f2NcqbW8xapSmuk1lISTQDTUpoQaaSEBSpQmhCkIQgMMmkhQ3lJqU0BaahMoQ6tq40bjigZWzNDpphtQ3GUMZ3EfrOGd+RA538Gk2sR206HDrWFwaogO2u2Npyt+sb35cVuEVK6bC2wMOw6WmbG13BpdCAD3Zrh9XSywyOimYWSMNnsIzB/iO3ivFwlOGKrTqVc2nkt1vn7b1OibcIpI+lZWzTv6SeR8zvKc4uI7BfcOwL4KU17W6xzDVKUICk1KpCH1p4XyPZHGNp8haxjfKJNgFvDNWU9htVMYPECN5APIG4v6FOq3B9uV9a8dWC8cPbIR1neDTb5XYvZpnpnUQVRp6NzQIQBM4sDrvOeyL8hbxJ5LzMRiK06/M0GrpXbdvmnbcu03QhFR2pHw9rKb40z6F34ke1nN8aZ9C78SxX5f4p+kj+hal+X+J+XH9C1TY5R/nHwX9RejwZl/azl+NM+hd+JHtZy/GmfQu/EsT+X2KfpI/oWrb9AcYra3ppKlzTHHssYAxrbvObsxyGz85aq88fRg5ynGy6l/UyiqUnZJmj6TaMy0BjL3tlZLtBrwC2xFrtIPf8AasItv1n4h0lWyAHq07esP132cfqhnpK05elhJznRjKpq/a+FjRUSUmkWhJNdBgNNSmhBppIQFISQhDEJqU1idA00kKkKQUkFVag79SVbKfDop5LlkMEcj7C5s2ME2C8lVQYZi0If1JwBZkzDaWLjs33jzXDwU4j/AFHJ/lP+Fcewh9WJgaLpem4CIPLyBvuG729+S+dwuE51TqRk4yTee7vOmc7WVjccV1Z1DCXUkrJm8GP/ADcg7LjquPb1VrFbo5iEHvtLK0De4M6Ro+Uy49a2Ok1hYjTOMVbC2ZzMnBzXQTeNhb6q2Gi1l0D8pWTQHidkSN9LTf1LsVXHU+lFTXFa/C3/AFNdqb0djk20L24jeOIVLtbdJ8GqB1p4HdkjNj/cAS6HAJNww957PYt/Ur+ZSXTpSXvsQ5lbmjiq+1NC+R7I4xtPkLWMbzcTYD1rpWlzMIpqN74YKV8r7xwhrYnFpIzflyFz32HFYvVZg3STPrXjqwXjh7ZCOs7wabfL7FvWOToSrbLSWl97+/kzB0/1KNzcZHRYThmVnex2Wbw6WV383m/YO5cXllc9znvO055c57uLnE3JPiVuutHGOlnZRsPUpuvL2yOGQ+S0/XPJaQsOTqLjT5yXSnm+zd6+ArSu7LRDQkmvQNQ7rs+h1I2kw2IydQlpqJicrbQ2s+5th8lco0fw/wBlVcFPvD3jb8wdZ/1QV1TTyokZQSRwse99QWwgNY5xDTm8kAZDZBHiF5PKb25U6CfSd35evgb6OSczk2I1jp55Z3b5nOfbybnJvgLDwXnXp/8AGVfxeb6CX+ST8PqGgudDK1ozLjDIAO0kjJeqnFZI58zzqlKFkQtCSaAaalNCDQkhAYlClUsToGmpTQg1SlCpDudA0VuDMjjcAaim6Ha4Mf0ewQe5wI8FougWKQ4bVVMOINNO94YzbLSejLS4lptfJ20DcZZDsWc1T01W2CSR7rU0hPQxEXcXg2dI08G5WtncjhbrbLjOA0FeC2ZrXyR9XpWOAliNr7JI777LrjPcvnZVIUZ1aE84N6rVfbR9m/R9NnJKS1OZawsapq2qY6m67YmbDpdkt6Q7RNhfOwvv7StYW8Yrqzq2EupJWTt4Md+bk7vJPfcLWa3R+vg9+pZm23uEZez5zbj1r18NVoKChTkml15+DsaJqV7tGNQlcbuPJNdmaNZ9qaB8j2Rxt2nyFrGN5uJsB6V2pxiwnDeBFMyw4dNK4/eefAHsXLtBq6mp6+Oaq6rGh4Y+xIjeRYONuFtofKXUpNKsJcLPqYXDfY5j1heNym6kqkYbLcVm7b+q/UsjoopJN3zOJzVBke6SR20+Que9183OJuT6SpDhzXavyhwX9NT/ADR/JZCaGikp3SOjifA9nSF3Rts5mztbW7lmq+VXC21Sa97skTmL/wCxwZNK44ZDgN5CF7Bzmd0OxmOiqxPMwvYWvjNrFzLkHbAO/wBzbuJXQfbDw3+++i/7XI1kcBwaetnEMI7ZJCOrE3yj/LiuHE4OhVbqVMrLW+5eP1NkKklkjrWCaU01bIY6dsri0bT3GPZYwcLm+88u/kV7McxeCjgM05y3MZltSu4MA/8ArLyNbR4RR+Sxm85GSeQj1uNu4AcAFyfSDG5q6czTGwFxFED1Ym8hzPM8fQB5GHwUMRVcoJqmuOr97+HadE6rgs9THudck2DbknZG5vYOxClNfSnCUmpTQFISTQAhNCAw6EIWJvKQpVIBoSQqtSHeaMSRYRH7HbtSx0rTC23un9FcZcSXLiVFiE8MnTQyvjkOZeHuDn3NztH4Vzzvdd5wiVrKGme9wY1sMJc4kANGwMyTuC1nSjV/DVOdPSuFNM+7ntteGU8yBm0nmL91zdfPYLF06M5xqaSeuvc+r3bh0VINpNGuYZrMrI7NqY46kD4XvUh7SRdv1Qtmo9ZWHP8AfWzU54kxh7fAsJPqXN8V0ZxCkJ6anfsj+1aOkjtz2m7vGyxAK9GWAwtZbUV3xf3Rq52cTuQ0kwWoHXnp3/4jQ3/cAWv6bRYQcPmfSNozNeLYfF7H6T3xt7bGe6/guXqljS5NjTmpQnKyaduwrqtrNDQhC9I0nrwujNRPDA3fM9jL8gTYu8Bc+C63rBrBT4Y+NnVM+xTsHJp90PmNcFpmqyg6WudMRdtKwkHk9/Vb9XpPQvVrZxDangpgcommR/nPNgD2gN+svLxH72Mp090Vd+f9TbH9NNviaMhSvZhOGzVczYKdu09/zWDi9x4NH/W8hem2km28jTqfTBcJnrJ2wQC7jm5x9yxvF7jy+3cuvUtNR4RRkk7LG5ySEDbnf/EncBwSwygo8Io3Oc4ANAdPObbUzuFh42DRz4kknl2lGkU1fNtuuyJlxBDfJg8p3Nx/6XjycsfPZjlSWr4v34avM6ElSX/InSTH5q+bpJOqxtxDDfKJv8XHif4ALEpJr14QjCKjFWSOdtvNjTSQsjEpNSmqCk1KEIWhJCAxCahUsTeNCEICkikmqtSHdMR/qKT/ACf/AArl+AaZV9EAxjxNCN0Ml3NaOTDe7e69uxdRljdNgZbENt0tIBG0b3EwZAdvBaHqsoKOeef2Q1kr2NYaeJ4DmkEnbeGnIkdTuuvDwsoKhVc43Slpr9u3gjfNPaVjZsL1m0UlhUxyUruLrdLH6W9b6qy5GCVxv/RKh54/mxL/AAcFzrWZQ0sFY1tM1sZcwOniaAGsdc2Nhk0kcO48c9RIvvW2nyfRqQVWk3G/v3mYuo07PM7TUau8Kfujkiv5M0n3iV4X6sKH4M9SO8wn7gXLaeunjyimli82V7PsK98WkuJN3VlR4zvd+8Ss/wAJi1pWv2+35k24fxN/9q+l+MTeiL+S1XTfR2mw50EcL5JHyh7n7RZZjRYCwAG8k/NWO/KvE/jk3z14qiqqauVplkfPK7ZjjLnFxzPVaOy7vWt1CjiYzTqVE48PaMZShbJHVNVtB0VAZiOtVPc/t2G9Ro9IcflLmekeIeya2pnvcSPdsH9RvVZ9VoXW8flbh+EvbGbGGJsER47RAja7vub+C4zQ0cs8rIIGF8kh2WsH2nkAM78Fz8nvnJ1cQ9G7LsWfp3oyqqyUT64bQTVMzIIG7ckm4cAOLnHgBzXYcEwmlwmlc97wCAHVNSci88hxtc2De3iSp0dwOmwqmfJI5u3baqag5Cw+C3k0cuJXOdMdKZK+Szbx00RPRR7i8/pH9vZwHisJzlj583B2prV8fe5d73IqSpK71I0t0llr5b5xwRk9DFz4bb+bj6hlzJwS2vDtFC3D6murAWWieaWE3B2iLNkd4kWHitSXpUHTs4U9I5d/z63xNMk73e8pNSmt5gUhJNANNSmhCk1KaoGhCEIYdNJCxOgtNQqQg0ITugOsap8VqJad1M9jjFTe9VHwRc3MJvmSL3y3A2Nsr+jSnV/FUvdUUjhSzklzm59FI7yss2OPMX7rm6yuBtjoMHjkDbiGA1EgG97izpH+kkrm1DrDxKKV0j3tnbIdp0Lm2Y3sjIzbllx8TmvBhCtVr1KuHtGz8fvq9xvbiopSMbi+jWIUpPsinfs5kzNBkjPaXNvbxsVhwQd2a69hmszD5ABO2SldxJaZI/Asz9LQst0eCV+dqSpcd5HRdL426wXV+PrUv89J9q0+fmYc2n0WcMTXZ6jV1hT77MckV/Jmk++SvC/VdQ/BmqR3uhP3AtkeVcM97XavRsjoyOULZtXWH9PiUNxdtPtTv+Tk367mnwXu0y0NpsPpmzNmlke97Y2MIZY3BJJsOTT6lnNUWH7MNRVOGcrmxM81guSO8ut8lXEYyDwsqkHk8l2v6XJGDU7MetGaSV1HQQNMkkzjL0Y3mwLWeGbzc5DZvwWZ0V0egwyndLK5vSlu1U1BNmxtGZY0nc0c+O/kBlvYEMc81bIRtloZ0jrAQRNFy0E7hfacT29gXLdOdLnVrzBAS2ljOW8GocNz3DyeQ8TnYDzaCniIRw9PKC6T4t5/RLquzbK0W5PXcfPTXSx9dJ0cd2UsZuxu4ykf2j/4Dh37s7oFoXtbFXWs6uTqeAjfykeOXIeK07Aqylp39NPC6qeyxhguGxX8uQ5k28myys+nuJOnZNttY1huKdrbRvHFrr3JuON8t4svTq0KvN8zh1sri/Jdr1fcjSpK+1LM2PWric7WxUwYWwSWe+bK0rmm4jHK2Ts9+XI35su06ZQR1WFTPI9zGKmMkZtLRteBtceJXFVjyVNOhspWaefX1/LuLWT2rjTSVL0TSCalNCFISVIATUpoQpCSFQYhNJCxOgaaSEIWgqUyqtSH6KwZjXUNM1wDmuhhDmkXDgYwCCOS5jpVq7qIHOloWmohzPQjOaIeSBvkHdn2Het7rJXswN0kbixzKQOY8EhzSIQQQeBWo6P6z3tAjxCMy2sOnjDQ/vezIHvbbuXzuEWIi51KOavZrj76nfuudE9nJM505paS1wLXNyc0ggtPIg7kiAd+a7mKjBcUAuaepdawDgGztHZez2+CxVdqwoH3MEk1OTubtCRg8HDa+su+HKtNO1ROL99/wNfNPdmcspsQqIhaKaWIDcGTSMt80r3M0nxNu6sqPGZzvtW1VOqqoHvVVFJy2o3x/YXLxP1Z4mNxp3d0z/4sC3fisLPPaT7dfirmOxNbjW8TxqrqQ0VMz5gy5YHEdW+85dy7dozQikoKeJ1m9GwOlN7AOd13m/LaJXMva2xTlD9N/wCqz0+jekU9M2klqacQgBp/OP23tG5r3CO7h9vG65Ma6NaEYQqRSTz+iS7fEzhtRbbTMNp5piatxpqZxFMw9Z241JHHzBwHHfyWmrodNqrlNumqmN5hsLn+suH2LN0OrbDoyDK6aoPFpeGN9DAD61thjsHQgoQd11J/Oxi6c5O7OSxRue4MY1z3uyaxrS5zuwAZlb7orq+lc5s2IDo4xYinvd8nY+2TW9m89i21+JYNhjSxroID8KOMB0rvODbuPeVqGkGsiWQOjoWGBpuOndsmU+a3MN78/BYPE4nE/poQ2U/9n8vpdjYjHOTub7pX/V1b/gz/ALhXBl23EnE4JK5xJLqRxc4m5JMOZJO8riSvJK2ac1wkK+qGmpTXqmgtJJCApNSmhCk1KaAaEkISxiU0kKHQNNJCAaEIVRDvGJZ4DJbP+h/8K5poFovHiUs3TSOjjpwwuDdkPeX7VgCQbDqnhyW76t9IIaukbRTEdNAzozGbWmhAs0gHfZtmkdl+KxGI6J4jhk76rBnOkjcCHQWD5Gt37Ba73wDgR1u/MnwqM3S52g3szbum9PHddG6SvaW41nTrRtmHVDI43mSKZu2za2dtljYtNhY8M7Df2Z46hx+ugsIKmaMDczpXFg+Sbj1L5YxiVTUzulqnOfKLMILQ3owNzA2w2bXOXaV4l69OEubjGrm7Z8GaXa90bZTaw8XZvlZN58Mf3A1e5mtDER7qKmd+zlH31oyaweDw71gvC3kXblxN99tOu/QU/wDq/iXzfrQxA+5jpm/s5T99aMmp+Cw/8ENuXE2qp0/xZ+6ZsXYyGL7wJWHrcarZ7iepmkB3sMr9g/JBt6ljkLbCjTh0YpdiS+pi5Peyggqoo3PcGMa573ZNY1pc53cBmVv2ier6V7mzYgNiMWcKa4L5Ox/BrezeexK2IhRW1Ufq+xakjFyyRuGJZYHJfK1IR/oria6lrN0ijjgNDE4GWbZ6ax96jyNj2uyFuV+y/LFxclwkqTk10nddnv1NlZ/qsNCEL0jSNNJCEGmkhAUmpTQhSEkIDEKlCah0FJpIQg00kID6wTPje2SNzo3sO0x7SWuaeYI3Louj2tF7A2PEYzIBl7IYAH972ZA94t3Lmya01sPTrK1RX8/fwCk1od2bV4HioAJp6lxyDXAMnb3B1njwWNrtWGHPzhdNT/qh4e364LvWuNkDispQ6Q18FuhqpmAbm9K5zB8l1x6lw/l9Wn/hqtLg9PT4Ge2nqjdKjVRMPequN/IOgcz1hzl4pNV+JD3MlM79rKD64146bWNizPdSMm8+Bn3Nle5mtPEB7qKmd+zmb98q25Qjvi/h8kT9vrPj7WeKf3H0zvwr6RasMSO99Mz9rKT6mL7e2rW/F4P9T8S+T9aOIn3MdM39lKT/ALit8e/4j9vrPfT6qpjbpatjOYbC5/rLh9izdDq0w5mczpqg8QZNhv1AD61o1TrAxZ+6ZsXYyGL7XAlYitxqtnv09TNKDvaZX7Hzb29SnMY2fSqpdi+i8xtQW47FJiWDYY0sa6CA/CjjAdK7zg27j3ladpDrJmlBjoGGBpyM7tkykfqtzDe/PwXPgOSa2UuTaMJbU7yfX6etySqvRZFve5xLnEuc4kucSSXE7ySd5QpTXoGotNQqQg0IQgGmpTQg00kICkJIQhiE1Kah0FKlCaApNJCEGmkhAUmpTQhSahUhBoQhAUhSqQDTUpoQaaSFSFJqU0BaahUhBoQhANNSmhBoSQgMShJNQ6BpqU0IUqUJoCk0kIQaaSEA00k0IUmoVIQaEIQFIUqkA01KaEGmkhUhSalNAWmoVIQaEIQDQhCEMOEwmhQ6QCEIQxGmhCApNCEICYQhAATCEIQaEIQFJoQhATQhAAVBCEIATTQqUEIQhiNNCEBSaEIQEIQgP//Z;" vertex="1" parent="1">
          <mxGeometry x="1200" y="610" width="40" height="40" as="geometry" />
        </mxCell>
        <mxCell id="br1NFhTCXlxhO1oLuqVo-59" value="" style="shape=image;verticalLabelPosition=bottom;labelBackgroundColor=default;verticalAlign=top;aspect=fixed;imageAspect=0;image=data:image/jpeg,/9j/4AAQSkZJRgABAQAAAQABAAD/2wCEAAkGBw0PDg8ODRASDRANGA8QDQ0YDg8REQ0VGBUXFxYRFRgYHSkgGBolGxUVIT0hJSkrMi4uFx8zRDMsNygtLisBCgoKDg0OGhAQGy0lHSUrLTAtLSsvLS0rLSsrLS0tListLS0tLS0rKy0tLystLS0tLS0tKy4tKystLS0tLS0rLf/AABEIAOEA4QMBIgACEQEDEQH/xAAcAAADAAMBAQEAAAAAAAAAAAAAAQIFBgcEAwj/xABMEAABAwICBgUEDQgKAwAAAAABAAIDBBEFIQYHEjFBURMiYXGBUnKRoRQXMjNCVIKSk6KxwtIWI1Nig7LB0SQ1Q2NzdKOzw+EV4vD/xAAaAQEBAAMBAQAAAAAAAAAAAAAAAQIDBAUG/8QANxEAAgECAwMKBAYCAwAAAAAAAAECAxEEITESQVEFEzJhcYGRsdHwocHh8RQVIiNS0jNCYrLi/9oADAMBAAIRAxEAPwDAIQhfbnnjTUpoQtJJCApNSmhCkJJoBpqU0IUmpTVBSalNCFISTQDTUpoQaaSEBSpQmhCkIQgKQkmqAQhCEMSmoVLE3jQhCAaaSEINNJCApNSmhCkJJoBpqU0IUmpTVBSalNCFISTQDTUpoQaaSEBSpQmhCk0kICkkJIDEJqU1DeWmoVIQaEIQDTQ0EkAAkmwAAuSTuAHErdcA1d1EwElW72Kw5iOwdM4do3M8bnsC1Va1OlHam7e93EsYuWhpS+9LSSym0Mb5jyZG55+qF2Kk0WwmiZtvjj6u+eZzXW7ev1WnuAXzqtN8KgGyyTpdncyKMkeByb61wfmTm7Uabl76r+Zs5m3Sdjm9PojikmbaSQecWR/vkL3R6A4od8bGdhmZ9262So1nwD3qmlf5z2M+zaXifrPl+DSsb3zud90Kutj5dGml2v1kibNLizHe15iX9z9Mfwr5yaA4m3dGx/YJmfessiNZtT8Wi+e9faLWe/4VI091Q4fawpt8ofxj4r1LalxZrU+ieJx+6pJD5uxJ+4SsXUQSRHZlY+I+S5jmH0ELpFNrMpj77BKzzXRyAektWVi0ywmdpD5mgHeySJ4HrFip+MxUOnRv2X/9E5uD0l7+Bx5NdIxKm0bnuRLFTuPw4iWW+TbZ9S0vGcNghN6eriqozutdsje9pyI7QfALso4qNTLZkn1p+f2NcqbW8xapSmuk1lISTQDTUpoQaaSEBSpQmhCkIQgMMmkhQ3lJqU0BaahMoQ6tq40bjigZWzNDpphtQ3GUMZ3EfrOGd+RA538Gk2sR206HDrWFwaogO2u2Npyt+sb35cVuEVK6bC2wMOw6WmbG13BpdCAD3Zrh9XSywyOimYWSMNnsIzB/iO3ivFwlOGKrTqVc2nkt1vn7b1OibcIpI+lZWzTv6SeR8zvKc4uI7BfcOwL4KU17W6xzDVKUICk1KpCH1p4XyPZHGNp8haxjfKJNgFvDNWU9htVMYPECN5APIG4v6FOq3B9uV9a8dWC8cPbIR1neDTb5XYvZpnpnUQVRp6NzQIQBM4sDrvOeyL8hbxJ5LzMRiK06/M0GrpXbdvmnbcu03QhFR2pHw9rKb40z6F34ke1nN8aZ9C78SxX5f4p+kj+hal+X+J+XH9C1TY5R/nHwX9RejwZl/azl+NM+hd+JHtZy/GmfQu/EsT+X2KfpI/oWrb9AcYra3ppKlzTHHssYAxrbvObsxyGz85aq88fRg5ynGy6l/UyiqUnZJmj6TaMy0BjL3tlZLtBrwC2xFrtIPf8AasItv1n4h0lWyAHq07esP132cfqhnpK05elhJznRjKpq/a+FjRUSUmkWhJNdBgNNSmhBppIQFISQhDEJqU1idA00kKkKQUkFVag79SVbKfDop5LlkMEcj7C5s2ME2C8lVQYZi0If1JwBZkzDaWLjs33jzXDwU4j/AFHJ/lP+Fcewh9WJgaLpem4CIPLyBvuG729+S+dwuE51TqRk4yTee7vOmc7WVjccV1Z1DCXUkrJm8GP/ADcg7LjquPb1VrFbo5iEHvtLK0De4M6Ro+Uy49a2Ok1hYjTOMVbC2ZzMnBzXQTeNhb6q2Gi1l0D8pWTQHidkSN9LTf1LsVXHU+lFTXFa/C3/AFNdqb0djk20L24jeOIVLtbdJ8GqB1p4HdkjNj/cAS6HAJNww957PYt/Ur+ZSXTpSXvsQ5lbmjiq+1NC+R7I4xtPkLWMbzcTYD1rpWlzMIpqN74YKV8r7xwhrYnFpIzflyFz32HFYvVZg3STPrXjqwXjh7ZCOs7wabfL7FvWOToSrbLSWl97+/kzB0/1KNzcZHRYThmVnex2Wbw6WV383m/YO5cXllc9znvO055c57uLnE3JPiVuutHGOlnZRsPUpuvL2yOGQ+S0/XPJaQsOTqLjT5yXSnm+zd6+ArSu7LRDQkmvQNQ7rs+h1I2kw2IydQlpqJicrbQ2s+5th8lco0fw/wBlVcFPvD3jb8wdZ/1QV1TTyokZQSRwse99QWwgNY5xDTm8kAZDZBHiF5PKb25U6CfSd35evgb6OSczk2I1jp55Z3b5nOfbybnJvgLDwXnXp/8AGVfxeb6CX+ST8PqGgudDK1ozLjDIAO0kjJeqnFZI58zzqlKFkQtCSaAaalNCDQkhAYlClUsToGmpTQg1SlCpDudA0VuDMjjcAaim6Ha4Mf0ewQe5wI8FougWKQ4bVVMOINNO94YzbLSejLS4lptfJ20DcZZDsWc1T01W2CSR7rU0hPQxEXcXg2dI08G5WtncjhbrbLjOA0FeC2ZrXyR9XpWOAliNr7JI777LrjPcvnZVIUZ1aE84N6rVfbR9m/R9NnJKS1OZawsapq2qY6m67YmbDpdkt6Q7RNhfOwvv7StYW8Yrqzq2EupJWTt4Md+bk7vJPfcLWa3R+vg9+pZm23uEZez5zbj1r18NVoKChTkml15+DsaJqV7tGNQlcbuPJNdmaNZ9qaB8j2Rxt2nyFrGN5uJsB6V2pxiwnDeBFMyw4dNK4/eefAHsXLtBq6mp6+Oaq6rGh4Y+xIjeRYONuFtofKXUpNKsJcLPqYXDfY5j1heNym6kqkYbLcVm7b+q/UsjoopJN3zOJzVBke6SR20+Que9183OJuT6SpDhzXavyhwX9NT/ADR/JZCaGikp3SOjifA9nSF3Rts5mztbW7lmq+VXC21Sa97skTmL/wCxwZNK44ZDgN5CF7Bzmd0OxmOiqxPMwvYWvjNrFzLkHbAO/wBzbuJXQfbDw3+++i/7XI1kcBwaetnEMI7ZJCOrE3yj/LiuHE4OhVbqVMrLW+5eP1NkKklkjrWCaU01bIY6dsri0bT3GPZYwcLm+88u/kV7McxeCjgM05y3MZltSu4MA/8ArLyNbR4RR+Sxm85GSeQj1uNu4AcAFyfSDG5q6czTGwFxFED1Ym8hzPM8fQB5GHwUMRVcoJqmuOr97+HadE6rgs9THudck2DbknZG5vYOxClNfSnCUmpTQFISTQAhNCAw6EIWJvKQpVIBoSQqtSHeaMSRYRH7HbtSx0rTC23un9FcZcSXLiVFiE8MnTQyvjkOZeHuDn3NztH4Vzzvdd5wiVrKGme9wY1sMJc4kANGwMyTuC1nSjV/DVOdPSuFNM+7ntteGU8yBm0nmL91zdfPYLF06M5xqaSeuvc+r3bh0VINpNGuYZrMrI7NqY46kD4XvUh7SRdv1Qtmo9ZWHP8AfWzU54kxh7fAsJPqXN8V0ZxCkJ6anfsj+1aOkjtz2m7vGyxAK9GWAwtZbUV3xf3Rq52cTuQ0kwWoHXnp3/4jQ3/cAWv6bRYQcPmfSNozNeLYfF7H6T3xt7bGe6/guXqljS5NjTmpQnKyaduwrqtrNDQhC9I0nrwujNRPDA3fM9jL8gTYu8Bc+C63rBrBT4Y+NnVM+xTsHJp90PmNcFpmqyg6WudMRdtKwkHk9/Vb9XpPQvVrZxDangpgcommR/nPNgD2gN+svLxH72Mp090Vd+f9TbH9NNviaMhSvZhOGzVczYKdu09/zWDi9x4NH/W8hem2km28jTqfTBcJnrJ2wQC7jm5x9yxvF7jy+3cuvUtNR4RRkk7LG5ySEDbnf/EncBwSwygo8Io3Oc4ANAdPObbUzuFh42DRz4kknl2lGkU1fNtuuyJlxBDfJg8p3Nx/6XjycsfPZjlSWr4v34avM6ElSX/InSTH5q+bpJOqxtxDDfKJv8XHif4ALEpJr14QjCKjFWSOdtvNjTSQsjEpNSmqCk1KEIWhJCAxCahUsTeNCEICkikmqtSHdMR/qKT/ACf/AArl+AaZV9EAxjxNCN0Ml3NaOTDe7e69uxdRljdNgZbENt0tIBG0b3EwZAdvBaHqsoKOeef2Q1kr2NYaeJ4DmkEnbeGnIkdTuuvDwsoKhVc43Slpr9u3gjfNPaVjZsL1m0UlhUxyUruLrdLH6W9b6qy5GCVxv/RKh54/mxL/AAcFzrWZQ0sFY1tM1sZcwOniaAGsdc2Nhk0kcO48c9RIvvW2nyfRqQVWk3G/v3mYuo07PM7TUau8Kfujkiv5M0n3iV4X6sKH4M9SO8wn7gXLaeunjyimli82V7PsK98WkuJN3VlR4zvd+8Ss/wAJi1pWv2+35k24fxN/9q+l+MTeiL+S1XTfR2mw50EcL5JHyh7n7RZZjRYCwAG8k/NWO/KvE/jk3z14qiqqauVplkfPK7ZjjLnFxzPVaOy7vWt1CjiYzTqVE48PaMZShbJHVNVtB0VAZiOtVPc/t2G9Ro9IcflLmekeIeya2pnvcSPdsH9RvVZ9VoXW8flbh+EvbGbGGJsER47RAja7vub+C4zQ0cs8rIIGF8kh2WsH2nkAM78Fz8nvnJ1cQ9G7LsWfp3oyqqyUT64bQTVMzIIG7ckm4cAOLnHgBzXYcEwmlwmlc97wCAHVNSci88hxtc2De3iSp0dwOmwqmfJI5u3baqag5Cw+C3k0cuJXOdMdKZK+Szbx00RPRR7i8/pH9vZwHisJzlj583B2prV8fe5d73IqSpK71I0t0llr5b5xwRk9DFz4bb+bj6hlzJwS2vDtFC3D6murAWWieaWE3B2iLNkd4kWHitSXpUHTs4U9I5d/z63xNMk73e8pNSmt5gUhJNANNSmhCk1KaoGhCEIYdNJCxOgtNQqQg0ITugOsap8VqJad1M9jjFTe9VHwRc3MJvmSL3y3A2Nsr+jSnV/FUvdUUjhSzklzm59FI7yss2OPMX7rm6yuBtjoMHjkDbiGA1EgG97izpH+kkrm1DrDxKKV0j3tnbIdp0Lm2Y3sjIzbllx8TmvBhCtVr1KuHtGz8fvq9xvbiopSMbi+jWIUpPsinfs5kzNBkjPaXNvbxsVhwQd2a69hmszD5ABO2SldxJaZI/Asz9LQst0eCV+dqSpcd5HRdL426wXV+PrUv89J9q0+fmYc2n0WcMTXZ6jV1hT77MckV/Jmk++SvC/VdQ/BmqR3uhP3AtkeVcM97XavRsjoyOULZtXWH9PiUNxdtPtTv+Tk367mnwXu0y0NpsPpmzNmlke97Y2MIZY3BJJsOTT6lnNUWH7MNRVOGcrmxM81guSO8ut8lXEYyDwsqkHk8l2v6XJGDU7MetGaSV1HQQNMkkzjL0Y3mwLWeGbzc5DZvwWZ0V0egwyndLK5vSlu1U1BNmxtGZY0nc0c+O/kBlvYEMc81bIRtloZ0jrAQRNFy0E7hfacT29gXLdOdLnVrzBAS2ljOW8GocNz3DyeQ8TnYDzaCniIRw9PKC6T4t5/RLquzbK0W5PXcfPTXSx9dJ0cd2UsZuxu4ykf2j/4Dh37s7oFoXtbFXWs6uTqeAjfykeOXIeK07Aqylp39NPC6qeyxhguGxX8uQ5k28myys+nuJOnZNttY1huKdrbRvHFrr3JuON8t4svTq0KvN8zh1sri/Jdr1fcjSpK+1LM2PWric7WxUwYWwSWe+bK0rmm4jHK2Ts9+XI35su06ZQR1WFTPI9zGKmMkZtLRteBtceJXFVjyVNOhspWaefX1/LuLWT2rjTSVL0TSCalNCFISVIATUpoQpCSFQYhNJCxOgaaSEIWgqUyqtSH6KwZjXUNM1wDmuhhDmkXDgYwCCOS5jpVq7qIHOloWmohzPQjOaIeSBvkHdn2Het7rJXswN0kbixzKQOY8EhzSIQQQeBWo6P6z3tAjxCMy2sOnjDQ/vezIHvbbuXzuEWIi51KOavZrj76nfuudE9nJM505paS1wLXNyc0ggtPIg7kiAd+a7mKjBcUAuaepdawDgGztHZez2+CxVdqwoH3MEk1OTubtCRg8HDa+su+HKtNO1ROL99/wNfNPdmcspsQqIhaKaWIDcGTSMt80r3M0nxNu6sqPGZzvtW1VOqqoHvVVFJy2o3x/YXLxP1Z4mNxp3d0z/4sC3fisLPPaT7dfirmOxNbjW8TxqrqQ0VMz5gy5YHEdW+85dy7dozQikoKeJ1m9GwOlN7AOd13m/LaJXMva2xTlD9N/wCqz0+jekU9M2klqacQgBp/OP23tG5r3CO7h9vG65Ma6NaEYQqRSTz+iS7fEzhtRbbTMNp5piatxpqZxFMw9Z241JHHzBwHHfyWmrodNqrlNumqmN5hsLn+suH2LN0OrbDoyDK6aoPFpeGN9DAD61thjsHQgoQd11J/Oxi6c5O7OSxRue4MY1z3uyaxrS5zuwAZlb7orq+lc5s2IDo4xYinvd8nY+2TW9m89i21+JYNhjSxroID8KOMB0rvODbuPeVqGkGsiWQOjoWGBpuOndsmU+a3MN78/BYPE4nE/poQ2U/9n8vpdjYjHOTub7pX/V1b/gz/ALhXBl23EnE4JK5xJLqRxc4m5JMOZJO8riSvJK2ac1wkK+qGmpTXqmgtJJCApNSmhCk1KaAaEkISxiU0kKHQNNJCAaEIVRDvGJZ4DJbP+h/8K5poFovHiUs3TSOjjpwwuDdkPeX7VgCQbDqnhyW76t9IIaukbRTEdNAzozGbWmhAs0gHfZtmkdl+KxGI6J4jhk76rBnOkjcCHQWD5Gt37Ba73wDgR1u/MnwqM3S52g3szbum9PHddG6SvaW41nTrRtmHVDI43mSKZu2za2dtljYtNhY8M7Df2Z46hx+ugsIKmaMDczpXFg+Sbj1L5YxiVTUzulqnOfKLMILQ3owNzA2w2bXOXaV4l69OEubjGrm7Z8GaXa90bZTaw8XZvlZN58Mf3A1e5mtDER7qKmd+zlH31oyaweDw71gvC3kXblxN99tOu/QU/wDq/iXzfrQxA+5jpm/s5T99aMmp+Cw/8ENuXE2qp0/xZ+6ZsXYyGL7wJWHrcarZ7iepmkB3sMr9g/JBt6ljkLbCjTh0YpdiS+pi5Peyggqoo3PcGMa573ZNY1pc53cBmVv2ier6V7mzYgNiMWcKa4L5Ox/BrezeexK2IhRW1Ufq+xakjFyyRuGJZYHJfK1IR/oria6lrN0ijjgNDE4GWbZ6ax96jyNj2uyFuV+y/LFxclwkqTk10nddnv1NlZ/qsNCEL0jSNNJCEGmkhAUmpTQhSEkIDEKlCah0FJpIQg00kID6wTPje2SNzo3sO0x7SWuaeYI3Louj2tF7A2PEYzIBl7IYAH972ZA94t3Lmya01sPTrK1RX8/fwCk1od2bV4HioAJp6lxyDXAMnb3B1njwWNrtWGHPzhdNT/qh4e364LvWuNkDispQ6Q18FuhqpmAbm9K5zB8l1x6lw/l9Wn/hqtLg9PT4Ge2nqjdKjVRMPequN/IOgcz1hzl4pNV+JD3MlM79rKD64146bWNizPdSMm8+Bn3Nle5mtPEB7qKmd+zmb98q25Qjvi/h8kT9vrPj7WeKf3H0zvwr6RasMSO99Mz9rKT6mL7e2rW/F4P9T8S+T9aOIn3MdM39lKT/ALit8e/4j9vrPfT6qpjbpatjOYbC5/rLh9izdDq0w5mczpqg8QZNhv1AD61o1TrAxZ+6ZsXYyGL7XAlYitxqtnv09TNKDvaZX7Hzb29SnMY2fSqpdi+i8xtQW47FJiWDYY0sa6CA/CjjAdK7zg27j3ladpDrJmlBjoGGBpyM7tkykfqtzDe/PwXPgOSa2UuTaMJbU7yfX6etySqvRZFve5xLnEuc4kucSSXE7ySd5QpTXoGotNQqQg0IQgGmpTQg00kICkJIQhiE1Kah0FKlCaApNJCEGmkhAUmpTQhSahUhBoQhAUhSqQDTUpoQaaSFSFJqU0BaahUhBoQhANNSmhBoSQgMShJNQ6BpqU0IUqUJoCk0kIQaaSEA00k0IUmoVIQaEIQFIUqkA01KaEGmkhUhSalNAWmoVIQaEIQDQhCEMOEwmhQ6QCEIQxGmhCApNCEICYQhAATCEIQaEIQFJoQhATQhAAVBCEIATTQqUEIQhiNNCEBSaEIQEIQgP//Z;" vertex="1" parent="1">
          <mxGeometry x="1260" y="610" width="40" height="40" as="geometry" />
        </mxCell>
        <mxCell id="br1NFhTCXlxhO1oLuqVo-61" value="" style="edgeStyle=orthogonalEdgeStyle;rounded=0;orthogonalLoop=1;jettySize=auto;html=1;entryX=0;entryY=0.5;entryDx=0;entryDy=0;" edge="1" parent="1" source="br1NFhTCXlxhO1oLuqVo-39" target="br1NFhTCXlxhO1oLuqVo-60">
          <mxGeometry relative="1" as="geometry">
            <mxPoint x="1070" y="605" as="targetPoint" />
            <mxPoint x="870" y="605" as="sourcePoint" />
          </mxGeometry>
        </mxCell>
        <mxCell id="br1NFhTCXlxhO1oLuqVo-60" value="Storage/Retrieve&lt;div&gt;Data&lt;/div&gt;" style="text;html=1;align=center;verticalAlign=middle;whiteSpace=wrap;rounded=0;fillColor=#6a00ff;strokeColor=#3700CC;perimeterSpacing=1;strokeWidth=2;fontStyle=1;fontColor=#ffffff;gradientColor=none;" vertex="1" parent="1">
          <mxGeometry x="920" y="588" width="110" height="34" as="geometry" />
        </mxCell>
      </root>
    </mxGraphModel>
  </diagram>
</mxfile>
